<svg class="canvas-item cls-010-panda.svg" style="enable-background: new 0 0 512 512" name="010-panda.svg" xml:space="preserve" viewBox="0 0 512 512" y="0px" x="0px" xmlns:xlink="http://www.w3.org/1999/xlink" xmlns="http://www.w3.org/2000/svg" version="1.1"><circle style="fill: #4B3F4E" r="90.84" cy="90.84" cx="421.16"></circle><circle style="fill: #6F6571" r="57.806" cy="90.84" cx="421.16"></circle><circle style="fill: #4B3F4E" r="90.84" cy="90.84" cx="90.84"></circle><circle style="fill: #6F6571" r="57.806" cy="90.84" cx="90.84"></circle><ellipse style="fill: #EDEBED" cy="280.77" cx="256" ry="231.23" rx="239.48"></ellipse><ellipse style="fill: #4B3F4E" cy="286.135" cx="370.771" ry="70.148" rx="82.578" transform="matrix(0.5 0.866 -0.866 0.5 433.1796 -178.0299)"></ellipse><path style="fill: #DBD9DC" d="M90.839,272.516c0-91.778,45.208-172.233,113.09-217.422&#10;&#9;C96.715,78.057,16.516,170.346,16.516,280.774c0,124.145,101.338,225.41,228.498,230.958&#10;&#9;C154.887,474.98,90.839,381.768,90.839,272.516z"></path><g><path style="fill: #FFFFFF" d="M338.581,404.645c0-18.243-22.595-33.032-50.466-33.032c-12.201,0-23.389,2.835-32.115,7.551&#10;&#9;&#9;c-8.726-4.716-19.914-7.551-32.115-7.551c-27.871,0-50.466,14.789-50.466,33.032c0,10.966,8.198,20.656,20.764,26.664&#10;&#9;&#9;c1.251,26.482,28.408,47.659,61.817,47.659s60.566-21.177,61.817-47.659C330.383,425.301,338.581,415.611,338.581,404.645z"></path></g><path style="fill: #5D5360" d="M297.29,371.613c0,13.682-18.486,33.032-41.29,33.032s-41.29-19.35-41.29-33.032&#10;&#9;s18.486-24.774,41.29-24.774S297.29,357.93,297.29,371.613z"></path><path style="fill: #6F6571" d="M338.419,403.024c-0.883-4.415-5.157-7.234-9.565-6.431c-4.435,0.81-7.387,5.097-6.653,9.544&#10;&#9;c0.04,0.25,0.96,6.21-3.734,11.069c-4.024,4.169-15.371,10.565-45.972,6.597c-2.738-0.355-5.486-0.621-8.238-0.798v-20.837&#10;&#9;c0-4.56-3.698-5.78-8.258-5.78s-8.258,1.219-8.258,5.78v20.837c-2.753,0.177-5.5,0.443-8.238,0.798&#10;&#9;c-30.605,3.968-41.948-2.427-45.972-6.597c-4.694-4.859-3.774-10.819-3.758-10.94c0.895-4.476-2.004-8.823-6.476-9.718&#10;&#9;c-4.504-0.887-8.827,2.004-9.718,6.476c-1.04,5.21-0.589,16.391,7.71,25.274c8.246,8.827,21.867,13.266,40.625,13.266&#10;&#9;c6.04,0,12.621-0.46,19.718-1.383c9.532-1.242,19.202-1.242,28.734,0c29.129,3.79,49.435-0.214,60.343-11.883&#10;&#9;C339.008,419.415,339.46,408.234,338.419,403.024z"></path><g><path style="fill: #4B3F4E" d="M272.516,396.387c-22.804,0-41.29-22.114-41.29-37.751c0-2.637,0.695-5.139,1.678-7.561&#10;&#9;&#9;c-10.977,4.453-18.195,11.989-18.195,20.538c0,13.682,18.486,33.032,41.29,33.032c10.504,0,19.984-4.189,27.272-9.955&#10;&#9;&#9;C279.837,395.747,276.243,396.387,272.516,396.387z"></path><ellipse style="fill: #4B3F4E" cy="286.115" cx="141.253" ry="70.148" rx="82.578" transform="matrix(0.5 -0.866 0.866 0.5 -177.1563 265.3817)"></ellipse></g><g></g><g></g><g></g><g></g><g></g><g></g><g></g><g></g><g></g><g></g><g></g><g></g><g></g><g></g><g></g></svg>
