<?xml version="1.0" encoding="iso-8859-1"?>
<!-- Generator: Adobe Illustrator 19.0.0, SVG Export Plug-In . SVG Version: 6.00 Build 0)  -->
<svg version="1.1" id="Capa_1" xmlns="http://www.w3.org/2000/svg" xmlns:xlink="http://www.w3.org/1999/xlink" x="0px" y="0px"
	 viewBox="0 0 512 512" style="enable-background:new 0 0 512 512;" xml:space="preserve">
<g>
	<path style="fill:#FF8087;" d="M427.025,275.534l-23.316,28.498c13.644,1.727,76.167,20.472,76.167,46.379
		c0,21.657-68.395,63.467-270.47,34.451c-18.613-2.673-12.435,9.763-12.435,9.763C441.533,447.475,512,380.116,512,346.956
		C512,295.741,427.025,275.534,427.025,275.534z"/>
	<path style="fill:#FF8087;" d="M334.11,317.503l-24.482,5.745c-5.16,1.211-9.305,4.826-10.987,9.583l-2.986,8.447
		c-0.987,2.793,1.217,5.677,4.339,5.677h56.12c3.927,0,7.225-2.784,7.66-6.465l2.369-22.76L334.11,317.503z"/>
</g>
<path style="fill:#9C969E;" d="M363.524,121.818c-81.002-30.725-164.424,17.962-204.839,7.599
	c-33.669-8.633-92.229-31.089-157.333,64.961c-2.483,3.663-1.371,8.745,1.902,11.723c5.589,5.085,15.767,12.288,31.137,15.695
	c22.075,25.064,52.519,27.04,75.064,19.139c57.886,78.935,158.094,74.491,193.272,60.505c0,0,12.435,20.644,55.901,20.644
	c50.475,0,79.78-31.29,79.787-82.123C438.424,192.549,425.66,145.386,363.524,121.818z"/>
<path style="fill:#867E88;" d="M158.258,107.769c-10.679-16.68-44.062-13.826-57.953,19.453c-2.822,6.759-0.884,14.357,5.263,19.138
	c5.672,4.412,13.765,5.652,20.716,2.987C142.26,143.22,170.572,127.002,158.258,107.769z"/>
<circle style="fill:#4B3F4E;" cx="85.05" cy="177" r="12.435"/>
<path style="fill:#FF8087;" d="M105.242,148.498c5.186,4.004,12.585,5.13,18.94,2.711c6.968-2.652,16.482-7.394,23.318-13.519
	c3.842-3.443,5.764-8.341,4.658-13.038c-0.244-1.038-0.607-2.017-1.138-2.85c-8.849-13.875-38.24-12.494-48.944,18.071
	C100.878,143.293,103.464,147.125,105.242,148.498z"/>
<g>
	<path style="fill:#867E88;" d="M67.337,219.643c-12.087,2.995-23.472,3.581-33.905,1.879c0.339,0.08,0.616,0.199,0.96,0.275
		c6.592,7.485,13.938,12.872,21.59,16.591c5.035-0.547,10.138-1.359,15.354-2.658c4.445-1.105,7.149-5.602,6.048-10.043
		C76.275,221.238,71.758,218.518,67.337,219.643z"/>
	<path style="fill:#867E88;" d="M302.729,301.441c-10.68-11.3-12.09-25.353-12.09-39.472c0-6.779,1.31-13.575,3.174-19.667
		c3.961-12.954-16.331-21.353-23.455-9.831c-1.838,2.972-3.514,6.654-4.935,11.197c-4.252,13.607-50.141,75.741-118.829,5.636
		c-8.274-8.444-20.406-11.941-31.967-9.473l-5.171,1.105C165.94,318.885,266.398,315.924,302.729,301.441z"/>
</g>
<path style="fill:#9C969E;" d="M180.735,255.763c0,22.552,11.183,46.542,18.339,59.583c2.702,4.924-0.21,11.012-5.726,12.072
	l-1.927,0.371c-7.808,1.501-13.449,8.332-13.449,16.282c0,1.593,1.291,2.885,2.884,2.885l35.021,0.001
	c3.757,0,7.019-2.496,8.003-6.121c4.214-15.544,10.744-46.757,13.85-73.155L180.735,255.763z"/>
<g>
	<path style="fill:#FF8087;" d="M180.856,346.956l35.021,0.001c3.757,0,7.019-2.496,8.003-6.121
		c1.202-4.435,2.599-10.235,4.044-16.744l-27.878-4.439c-0.166,3.65-2.74,7.005-6.697,7.766l-1.927,0.371
		c-7.808,1.501-13.449,8.332-13.449,16.282C177.972,345.664,179.263,346.956,180.856,346.956z"/>
	<path style="fill:#FF8087;" d="M3.255,206.102c2.103,1.913,4.858,4.126,8.292,6.324c4.686-2.26,7.958-6.991,7.958-12.541
		c0-7.154-5.392-12.974-12.322-13.808c-1.937,2.668-3.881,5.425-5.831,8.301C-1.131,198.042-0.019,203.124,3.255,206.102z"/>
</g>
<g>
</g>
<g>
</g>
<g>
</g>
<g>
</g>
<g>
</g>
<g>
</g>
<g>
</g>
<g>
</g>
<g>
</g>
<g>
</g>
<g>
</g>
<g>
</g>
<g>
</g>
<g>
</g>
<g>
</g>
</svg>
