<?xml version="1.0" encoding="iso-8859-1"?>
<!-- Generator: Adobe Illustrator 19.0.0, SVG Export Plug-In . SVG Version: 6.00 Build 0)  -->
<svg version="1.1" id="Capa_1" xmlns="http://www.w3.org/2000/svg" xmlns:xlink="http://www.w3.org/1999/xlink" x="0px" y="0px"
	 viewBox="0 0 512 512" style="enable-background:new 0 0 512 512;" xml:space="preserve">
<g>
	<path style="fill:#FFAAB4;" d="M427.002,289.916l-23.322,28.505c13.647,1.727,76.187,20.477,76.187,46.391
		c0,21.663-68.413,63.484-270.541,34.46c-18.618-2.673-12.439,9.766-12.439,9.766C441.514,461.902,512,394.526,512,361.356
		C512,310.128,427.002,289.916,427.002,289.916z"/>
	<path style="fill:#FFAAB4;" d="M334.064,331.896l-24.488,5.747c-5.162,1.211-9.308,4.828-10.99,9.586l-2.987,8.449
		c-0.988,2.794,1.217,5.679,4.341,5.679h56.134c3.928,0,7.227-2.785,7.662-6.467l2.37-22.766L334.064,331.896z"/>
</g>
<path style="fill:#EDEBED;" d="M355.489,125.245c-81.023-30.733-184.17,7.681-184.17,7.681S68.224,90.271,1.219,208.74
	c-2.179,3.853-1.372,8.748,1.903,11.727c5.591,5.086,15.771,12.291,31.146,15.699c22.08,25.07,52.532,27.047,75.083,19.144
	c63.404,86.46,167.42,87.117,205.766,73.669c11.035,4.93,25.268,7.801,43.473,7.501c50.481-0.832,79.801-31.299,79.808-82.145
	C438.405,206.91,417.641,148.82,355.489,125.245z"/>
<g>
	<path style="fill:#DBD9DC;" d="M315.097,328.985c-24.433-10.99-32.704-32.353-32.704-52.638c0-6.781,1.309-13.578,3.173-19.672
		c3.963-12.957-13.647-21.358-20.772-9.833c-1.838,2.973-3.516,6.656-4.936,11.2c-4.253,13.611-44.655,75.761-113.36,5.638
		c-8.276-8.446-20.41-11.944-31.974-9.475l-5.173,1.105C172.745,341.754,276.736,342.427,315.097,328.985z"/>
	<path style="fill:#DBD9DC;" d="M178.92,98.762c-14.425-25.746-59.515-21.34-78.278,30.025c-3.811,10.433-1.193,22.159,7.108,29.539
		c7.661,6.809,18.592,8.724,27.981,4.611C157.311,153.482,195.552,128.449,178.92,98.762z"/>
</g>
<path style="fill:#EDEBED;" d="M172.01,270.14c0,22.558,11.185,46.554,18.344,59.599c2.703,4.926-0.211,11.014-5.727,12.075
	l-1.927,0.371c-7.81,1.502-13.453,8.334-13.453,16.286c0,1.594,1.292,2.885,2.885,2.885h35.03c3.758,0,7.021-2.496,8.005-6.123
	c4.215-15.548,10.747-46.77,13.854-73.174L172.01,270.14z"/>
<circle style="fill:#E6646E;" cx="84.939" cy="191.36" r="12.439"/>
<g>
	<path style="fill:#FFAAB4;" d="M107.75,158.327c7.661,6.809,18.592,8.724,27.981,4.611c10.294-4.51,24.349-12.575,34.447-22.993
		c5.675-5.855,8.515-14.186,6.882-22.175c-0.361-1.765-0.896-3.431-1.681-4.846c-13.073-23.598-56.492-21.249-72.306,30.734
		C101.303,149.474,105.124,155.992,107.75,158.327z"/>
	<path style="fill:#FFAAB4;" d="M172.131,361.356h35.03c3.758,0,7.021-2.496,8.005-6.123c1.203-4.436,2.599-10.238,4.045-16.749
		l-27.886-4.44c-0.166,3.651-2.741,7.007-6.699,7.768l-1.927,0.371c-7.81,1.502-13.453,8.334-13.453,16.286
		C169.246,360.065,170.538,361.356,172.131,361.356z"/>
</g>
<path style="fill:#C9C6CA;" d="M67.221,234.01c-12.09,2.996-23.478,3.582-33.914,1.879c0.339,0.08,0.616,0.199,0.961,0.275
	c6.594,7.487,13.942,12.875,21.596,16.595c5.036-0.548,10.141-1.359,15.358-2.659c4.446-1.105,7.151-5.604,6.049-10.046
	C76.161,235.606,71.642,232.885,67.221,234.01z"/>
<path style="fill:#FFAAB4;" d="M3.122,220.466c2.179,1.983,5.081,4.286,8.691,6.563c4.907-2.174,8.341-7.07,8.341-12.782
	c0-7.681-6.191-13.902-13.854-13.979c-1.709,2.751-3.414,5.524-5.082,8.472C-0.96,212.592-0.152,217.487,3.122,220.466z"/>
<g>
</g>
<g>
</g>
<g>
</g>
<g>
</g>
<g>
</g>
<g>
</g>
<g>
</g>
<g>
</g>
<g>
</g>
<g>
</g>
<g>
</g>
<g>
</g>
<g>
</g>
<g>
</g>
<g>
</g>
</svg>
