<?xml version="1.0" encoding="iso-8859-1"?>
<!-- Generator: Adobe Illustrator 19.0.0, SVG Export Plug-In . SVG Version: 6.00 Build 0)  -->
<svg version="1.1" id="Capa_1" xmlns="http://www.w3.org/2000/svg" xmlns:xlink="http://www.w3.org/1999/xlink" x="0px" y="0px"
	 viewBox="0 0 512 512" style="enable-background:new 0 0 512 512;" xml:space="preserve">
<path style="fill:#DBD9DC;" d="M120.845,136.258C95.54,64.743,126.697,0,142.53,0c13.075,0,21.67,19.355,21.67,19.355
	L143.813,134.71L120.845,136.258z"/>
<path style="fill:#EDEBED;" d="M207.54,230.357c-5.56-1.547-9.896-5.834-11.483-11.382c-4.367-15.267-13.9-46.764-24.522-70.289
	c-2.298-5.089-1.529-10.881,1.549-15.54c28.769-43.549,30.636-97.952,21.184-116.385c-11.237-21.913-29.544-12.116-45.513,26.971
	c-8.948,21.903-8.958,49.178-6.386,72.24c0.881,7.897-5.245,14.706-13.183,15.063c-24.775,1.113-43.315,5.76-54.269,15.03
	c-11.183,9.462-44.592,45.43-35.168,63.985c4.426,8.715,12.537,12.402,20.451,13.09c5.811,13.613,16.253,21.645,27.357,23.285
	l-1.113,3.382c-30.968,86.71,29.916,156.044,56.693,183.312c28.297,28.817,28.297,45.849,28.297,45.849h-7.75
	c-7.579,0-14.185,5.158-16.023,12.51l-3.856,15.424c-0.647,2.589,1.311,5.098,3.98,5.098h24.044c8.173,0,15.815-3.983,20.428-10.73
	c7.757-11.344,18.378-31.151,20.575-56.866c1.075-12.573,11.929-22.025,24.522-21.221l4.049,1.041
	c-0.363,15.481,5.56,35.466,24.074,54.743h-10.955c-7.579,0-14.185,5.158-16.023,12.51l-3.856,15.424
	c-0.647,2.589,1.311,5.098,3.98,5.098h187.512l16.516-57.806C417.878,297.29,248.4,241.725,207.54,230.357z"/>
<circle style="fill:#4B3F4E;" cx="105.37" cy="177.55" r="12.387"/>
<path style="fill:#DBD9DC;" d="M156.2,395.871c-15.484-23.742-45.935-66.581-20.645-113.032
	c10.655-19.571,15.257-33.091,16.976-42.235c1.223-6.511-6.158-11.281-11.626-7.54c-13.136,8.985-35.48,18.547-53.857,14.91
	l-0.603,1.833c-30.968,86.71,29.916,156.044,56.693,183.312c28.297,28.817,28.297,45.849,28.297,45.849
	S186.542,442.395,156.2,395.871z"/>
<path style="fill:#C9C6CA;" d="M92.932,224.863c-1.556-4.294-6.298-6.516-10.565-4.976c-0.169,0.057-10.342,4.058-22.167,3.253
	c0.377,0.046-0.377-0.033,0,0c2.856,6.689,6.837,12.013,11.458,15.91c9.076-1.095,15.7-3.408,16.29-3.622
	C92.246,233.887,94.472,229.153,92.932,224.863z"/>
<path style="fill:#FFAAB4;" d="M39.75,210.05c2.628,5.174,6.568,8.542,10.981,10.596c2.548-2.566,4.137-6.131,4.137-10.083
	c0-7.81-6.172-14.141-13.787-14.141c-0.746,0-1.465,0.108-2.179,0.225C37.756,201.595,37.798,206.206,39.75,210.05z"/>
<g>
	<path style="fill:#DBD9DC;" d="M237.354,423.183l3.962,1.019c0.634-19.668,11.671-34.827,19.192-42.931
		c3.27-3.523,1.501-9.311-3.181-10.399c-15.651-3.638-44.019-0.043-44.495,73.532C212.914,431.786,224.761,422.379,237.354,423.183z
		"/>
	<path style="fill:#DBD9DC;" d="M313.014,464.943L313.014,464.943c-1.566-1.566-3.668-2.424-5.883-2.404
		c-11.454,0.103-48.811-1.155-63.595-21.153c3.061,11.845,9.717,24.855,21.941,37.583h41.727
		C314.524,478.968,318.189,470.118,313.014,464.943z"/>
	<path style="fill:#DBD9DC;" d="M471.821,447.656c-8.137-16.576-24.086-13.075-34.065-4.473C416.224,461.745,398.53,512,398.53,512
		h47.57c6.404,0,12.236-3.656,14.939-9.461C467.72,488.19,478.454,461.169,471.821,447.656z"/>
</g>
<g>
</g>
<g>
</g>
<g>
</g>
<g>
</g>
<g>
</g>
<g>
</g>
<g>
</g>
<g>
</g>
<g>
</g>
<g>
</g>
<g>
</g>
<g>
</g>
<g>
</g>
<g>
</g>
<g>
</g>
</svg>
