<?xml version="1.0" encoding="iso-8859-1"?>
<!-- Generator: Adobe Illustrator 19.0.0, SVG Export Plug-In . SVG Version: 6.00 Build 0)  -->
<svg version="1.1" id="Capa_1" xmlns="http://www.w3.org/2000/svg" xmlns:xlink="http://www.w3.org/1999/xlink" x="0px" y="0px"
	 viewBox="0 0 512.002 512.002" style="enable-background:new 0 0 512.002 512.002;" xml:space="preserve">
<path style="fill:#EDEBED;" d="M361.842,56.171l-165.67,127.916L201.81,201c0,0,127.075-27.237,167.836-85.501
	C369.647,115.499,378.77,78.82,361.842,56.171z"/>
<path style="fill:#DBD9DC;" d="M351.356,5.695c-65.861,96.717-162.231,172.048-162.231,172.048l4.933,11.98
	c0,0,96.547-39.464,140.945-88.795c46.635-51.816,33.412-83.539,24.819-95.426C357.711,2.582,353.385,2.716,351.356,5.695z"/>
<path style="fill:#EDEBED;" d="M482.283,84.016c0,0-85.265,38.76-152.918,74.7c-42.54,22.599-87.699,33.765-115.386,38.948
	c-0.822-2.797-1.252-4.416-1.252-4.416c-33.827-50.74-81.173-84.051-118.394-76.11c-39.641,8.457-27.132,47.921-27.132,47.921
	l18.676,19.733c16.913-7.048,29.374,2.913,33.122,35.236c5.638,48.626,19.028,122.622,110.642,150.811l74.047,139.865
	c0.897,1.695,3.31,1.739,4.268,0.078l14.06-24.37c3.018-5.232,3.017-11.677-0.004-16.909l-9.203-15.936l19.887-35.411
	c0.819-1.459,1.306-3.08,1.425-4.749l2.895-40.534c0.266-3.719-1.985-7.054-5.436-8.465c-36.081-14.757-63.27-49.126-82.477-83.224
	c0.73,0.225,1.508,0.496,2.192,0.678c42.451,11.347,128.444,24.01,158.234-47.916l-113.164-16.422
	c19.91-1.307,41.503-3.576,64.01-7.362C360.373,210.161,514.348,185.496,482.283,84.016z"/>
<g>
	<path style="fill:#FFC850;" d="M188.768,402.907c-3.543,0-6.838-2.242-8.019-5.785l-4.03-12.078
		c-3.576-10.724-2.758-22.186,2.296-32.282l8.217-16.075c2.122-4.154,7.226-5.789,11.38-3.683c4.162,2.127,5.806,7.222,3.683,11.38
		l-8.184,16.009c-2.998,5.996-3.493,12.875-1.346,19.304l4.022,12.074c1.478,4.431-0.908,9.221-5.343,10.699
		C190.56,402.763,189.651,402.907,188.768,402.907z"/>
	<path style="fill:#FFC850;" d="M153.179,394.446c-4.674,0-8.457-3.787-8.457-8.457v-6.673c0-8.378,2.453-16.492,7.102-23.458
		l17.64-25.742c2.651-3.853,7.903-4.844,11.76-2.193c3.848,2.639,4.831,7.903,2.197,11.756l-17.582,25.655
		c-2.734,4.088-4.204,8.952-4.204,13.982v6.673C161.636,390.66,157.853,394.446,153.179,394.446z"/>
</g>
<g>
	<path style="fill:#BEE86E;" d="M75.416,67.102c-8.982,0-16.934,4.142-22.214,10.581c-1.854,2.261-1.854,5.495,0,7.756
		c5.28,6.439,13.232,10.581,22.214,10.581S92.35,91.878,97.63,85.439c1.854-2.261,1.854-5.495,0-7.756
		C92.35,71.244,84.398,67.102,75.416,67.102z"/>
	<path style="fill:#BEE86E;" d="M38.565,53.73c-7.646-4.712-16.589-5.359-24.462-2.648c-2.764,0.952-4.461,3.705-4.069,6.602
		c1.117,8.252,5.713,15.95,13.359,20.663c7.646,4.712,16.589,5.359,24.463,2.648c2.764-0.952,4.461-3.705,4.069-6.602
		C50.808,66.14,46.211,58.442,38.565,53.73z"/>
	<path style="fill:#BEE86E;" d="M92.724,35.046c5.95-9.604,6.839-20.776,3.513-30.419c-0.955-2.768-3.684-4.459-6.588-4.081
		C79.533,1.862,69.927,7.632,63.977,17.237c-5.95,9.604-6.839,20.776-3.513,30.419c0.955,2.768,3.684,4.459,6.588,4.081
		C77.167,50.421,86.774,44.65,92.724,35.046z"/>
</g>
<path style="fill:#DBD9DC;" d="M184.897,289.443c-54.399-47.38-41.491-98.309-65.011-118.922
	c-11.527-10.103-32.241-11.892-44.794,3.568l10.784,10.703c16.913-7.048,29.374,2.913,33.122,35.236
	c5.47,47.176,18.492,119.074,102.875,148.041C221.874,368.068,234.051,332.254,184.897,289.443z"/>
<path style="fill:#4B3F4E;" d="M97.77,155.721c-4.674,0-8.498-3.787-8.498-8.457s3.741-8.457,8.415-8.457h0.083
	c4.674,0,8.457,3.787,8.457,8.457S102.445,155.721,97.77,155.721z"/>
<path style="fill:#AFD755;" d="M69.312,213.861c-0.529,0-1.074-0.103-1.602-0.318c-0.818-0.334-20.035-8.514-29.813-34.966
	c-12.66-34.264-3.824-81.544,26.278-140.526c1.057-2.094,3.617-2.899,5.69-1.846c2.081,1.061,2.907,3.609,1.842,5.686
	C35.733,112.398,37.715,153.38,45.718,175.344c8.399,23.045,24.544,30.098,25.23,30.387c2.147,0.908,3.163,3.378,2.263,5.529
	C72.532,212.882,70.972,213.861,69.312,213.861z"/>
<path style="fill:#DBD9DC;" d="M307.954,510.781l14.059-24.37c3.019-5.232,3.017-11.678-0.004-16.909L275.522,389
	c-3.87-6.702-10.557-11.227-18.208-12.398c-6.414-0.982-15.552-2.713-27.675-5.764l74.047,139.865
	C304.584,512.398,306.996,512.442,307.954,510.781z"/>
<path style="fill:#FFDC64;" d="M67.14,164.707l18.967,20.041c0,0-7.182,7.182-14.978,21.546c-1.2,2.21-4.149,2.702-5.9,0.897
	C58.709,200.469,47.615,184.232,67.14,164.707z"/>
<path style="fill:#FFC850;" d="M86.107,184.747l-10.548-11.146c-11.323,12.353-7.37,23.78-3.097,30.357
	C79.719,191.206,86.107,184.747,86.107,184.747z"/>
<g>
	<path style="fill:#DBD9DC;" d="M187.357,201.704c0,0,153.341-32.282,302.339-199.342c4.117-4.616,11.9-2.054,12.18,4.125
		c4.47,98.731-94.646,144.476-94.646,144.476C290.606,208.752,187.357,201.704,187.357,201.704z"/>
	<path style="fill:#DBD9DC;" d="M455.863,170.085c-37.388,30.726-95.49,40.076-95.49,40.076
		c-75.342,12.675-133.133,9.157-156.449,7.047c0,0,16.288,18.598,35.236,24.665C382.22,287.681,462.983,224.245,455.863,170.085z"/>
	<path style="fill:#DBD9DC;" d="M334.755,404.517l-28.219-29.005c-3.254-3.345-8.605-3.419-11.958-0.165
		c-3.345,3.258-3.419,8.609-0.165,11.958l35.256,36.238l3.026-5.389c0.819-1.459,1.306-3.08,1.425-4.749L334.755,404.517z"/>
</g>
<g>
</g>
<g>
</g>
<g>
</g>
<g>
</g>
<g>
</g>
<g>
</g>
<g>
</g>
<g>
</g>
<g>
</g>
<g>
</g>
<g>
</g>
<g>
</g>
<g>
</g>
<g>
</g>
<g>
</g>
</svg>
