<?xml version="1.0" encoding="iso-8859-1"?>
<!-- Generator: Adobe Illustrator 19.0.0, SVG Export Plug-In . SVG Version: 6.00 Build 0)  -->
<svg version="1.1" id="Capa_1" xmlns="http://www.w3.org/2000/svg" xmlns:xlink="http://www.w3.org/1999/xlink" x="0px" y="0px"
	 viewBox="0 0 512 512" style="enable-background:new 0 0 512 512;" xml:space="preserve">
<path style="fill:#EBC9A0;" d="M471.358,91.911c-42.565-18.986-103.056,21.863-142.167,92.923l132.21,145.799
	c9.785-14.165,18.738-30.022,26.418-47.241C525.654,198.571,518.284,112.843,471.358,91.911z"/>
<path style="fill:#8B534F;" d="M447.443,136.771c-31.775-14.173-76.93,16.321-106.127,69.366l98.694,108.838
	c7.304-10.574,13.988-22.411,19.721-35.265C487.974,216.392,482.472,152.396,447.443,136.771z"/>
<path style="fill:#F5DCB4;" d="M452.235,371.648l15.146-30.977c1.288-2.634,1.422-5.699,0.226-8.377
	c-12.388-27.738-42.989-74.223-42.989-74.223l-36.938,11.047L452.235,371.648z"/>
<path style="fill:#FFC850;" d="M231.986,483.844h-16.57v-47.579c0-4.575-3.706-8.285-8.285-8.285s-8.285,3.71-8.285,8.285v47.579
	H157.42c-4.58,0-8.285,3.71-8.285,8.285s3.706,8.285,8.285,8.285h74.567c4.58,0,8.285-3.71,8.285-8.285
	C240.272,487.553,236.566,483.844,231.986,483.844z"/>
<path style="fill:#EBC9A0;" d="M383.192,258.071l-61.104,28.998c0,0,64.29,43.18,117.594,116.147
	c2.756,3.772,8.529,3.217,10.393-1.067l7.176-16.498c3.388-7.788,2.835-16.76-1.416-24.112
	C408.41,279.507,383.192,258.071,383.192,258.071z"/>
<path style="fill:#F5DCB4;" d="M491.361,235.287h-1.78c-4.58,0-8.285-3.71-8.285-8.285s3.706-8.285,8.285-8.285h1.78
	c4.58,0,8.285,3.71,8.285,8.285S495.94,235.287,491.361,235.287z"/>
<g>
	<path style="fill:#AF6E5A;" d="M457.759,218.716h-46.867l31.923-58.514c2.193-4.017,0.712-9.05-3.309-11.243
		c-3.989-2.193-9.046-0.712-11.238,3.305l-24.412,44.747l-4.457-26.752c-0.752-4.511-5.016-7.557-9.531-6.809
		c-4.515,0.752-7.565,5.02-6.813,9.535l6.359,38.161l4.136,24.14h64.211c4.58,0,8.285-3.71,8.285-8.285
		S462.338,218.716,457.759,218.716z"/>
	<path style="fill:#AF6E5A;" d="M148.657,132.781c-17.968-2.722-32.801-14.118-38.422-30.058H49.711
		C49.711,152.435,0,169.005,0,243.572c0,114.395,95.177,166.752,215.416,169.156c69.043,1.381,113.922-14.499,125.062-37.39
		l40.646-138.398c8.918-4,17.914-8.492,26.984-13.523c3.617-2.007,3.634-7.365,0.022-9.38
		C310.62,159.635,199.768,140.524,148.657,132.781z"/>
	<path style="fill:#AF6E5A;" d="M162.08,402.372l19.27,34.252c4.914,8.734,13.765,14.079,23.316,14.079h4.054
		c10.299,0,19.715-6.206,24.321-16.03l13.444-28.676L162.08,402.372z"/>
</g>
<path style="fill:#F5DCB4;" d="M454.959,128.267c-1.343,0-2.702-0.324-3.957-1.011c-4.021-2.189-5.502-7.221-3.309-11.238
	l4.515-8.281c2.193-4.025,7.25-5.498,11.238-3.309c4.021,2.189,5.502,7.221,3.309,11.238l-4.515,8.281
	C460.736,126.705,457.896,128.267,454.959,128.267z"/>
<path style="fill:#8B534F;" d="M340.478,375.338l9.121-31.057c-9.633,3.492-11.55,18.082-26.475,21.498
	c-138.778,31.76-252.009-6.904-281.698-89.066c-24.057-66.576,24.856-132.564,24.856-157.419c0-5.625,0-11.234,0-16.57h-16.57
	C49.711,152.435,0,169.005,0,243.572c0,114.395,95.177,166.752,215.416,169.156C284.459,414.11,329.338,398.229,340.478,375.338z"/>
<path style="fill:#824646;" d="M404.576,374.655C144.398,388.803,99.423,251.857,99.423,251.857s115.993,41.426,281.698,24.856
	l30.029,88.211C412.714,369.52,409.424,374.391,404.576,374.655z"/>
<path style="fill:#8B534F;" d="M400.323,227.538c0,0-112.066,64.02-300.9,24.32l62.378,25.453
	c50.118,20.45,104.496,28.979,158.325,23.277c39.778-4.214,84.977-14.311,122.975-36.555c3.28-1.92,3.6-6.547,0.706-9.011
	C436.038,248.41,420.69,236.668,400.323,227.538z"/>
<path style="fill:#E6646E;" d="M107.708,88.693V53.012c0-22.879-18.547-41.426-41.426-41.426c-32.03,0-57.997,25.966-57.997,57.997
	v57.997c0,4.575,3.709,8.285,8.285,8.285s8.285-3.71,8.285-8.285V82.01c0-6.864,5.564-12.428,12.428-12.428
	s12.428,5.564,12.428,12.428v20.713c0,31.837-20.357,50.139-35.02,78.73c29.881,16.635,51.886-11.945,61.688-38.599
	c9.471-25.754,26.477-31.542,37.472-32.403C110.013,104.108,107.708,96.781,107.708,88.693z"/>
<circle style="fill:#4B3F4E;" cx="57.997" cy="44.727" r="8.285"/>
<path style="fill:#DC4655;" d="M44.116,183.816c9.364-28.566,22.166-51.899,22.166-64.523V98.581
	c0-16.015-12.983-28.998-28.998-28.998l0,0c6.864,0,12.428,5.564,12.428,12.428v20.713c0,31.837-20.357,50.139-35.02,78.73
	C25.63,187.544,35.5,187.533,44.116,183.816z"/>
<g>
</g>
<g>
</g>
<g>
</g>
<g>
</g>
<g>
</g>
<g>
</g>
<g>
</g>
<g>
</g>
<g>
</g>
<g>
</g>
<g>
</g>
<g>
</g>
<g>
</g>
<g>
</g>
<g>
</g>
</svg>
