<?xml version="1.0" encoding="iso-8859-1"?>
<!-- Generator: Adobe Illustrator 19.0.0, SVG Export Plug-In . SVG Version: 6.00 Build 0)  -->
<svg version="1.1" id="Capa_1" xmlns="http://www.w3.org/2000/svg" xmlns:xlink="http://www.w3.org/1999/xlink" x="0px" y="0px"
	 viewBox="0 0 511.998 511.998" style="enable-background:new 0 0 511.998 511.998;" xml:space="preserve">
<g>
	<path style="fill:#8B534F;" d="M151.983,231.805c-4.004-1.174-8.104,0.587-9.695,4.293c-0.024-0.016-0.04-0.032-0.064-0.048
		c-0.265-0.217-0.539-0.426-0.836-0.611l-46.7-29.85c-0.28-0.178-0.615-0.211-0.911-0.353c-0.308-0.15-0.541-0.394-0.873-0.507
		c-13.868-4.703-28.676-6.423-29.303-6.488c-4.566-0.587-8.594,2.733-9.1,7.251c-0.515,4.518,2.733,8.594,7.251,9.1
		c0.07,0.009,4.166,0.5,9.803,1.595c-3.413,3.892-5.819,7.547-6.62,8.848c-2.38,3.867-1.174,8.932,2.685,11.311
		c3.875,2.388,8.924,1.198,11.327-2.669c2.428-3.915,6.906-9.342,10.572-11.85l42.616,27.237c4.068,3.232,7.879,4.132,10.869,4.132
		c1.728,0,3.176-0.305,4.245-0.627c5.507-1.688,9.1-6.351,10.218-10.226C158.728,237.979,156.348,233.067,151.983,231.805z"/>
	<path style="fill:#8B534F;" d="M232.443,360.584c-0.791-5.052,0.811-10.185,4.335-13.891l24.85-26.546
		c20.857-22.281,15.005-58.267-11.838-72.79l0,0c-22.11-11.962-49.763-4.186-62.417,17.536c-0.704,1.209-1.195,2.079-1.407,2.504
		c-11.256,22.583-12.318,48.918-4.897,73.035l27.482,89.318l-23.345,5.836c-5.899,1.475-10.505,6.08-11.979,11.979l-2.696,10.784
		c-1.595,6.381,3.231,12.562,9.808,12.562h50.132c10.108,0,17.83-9.024,16.267-19.011L232.443,360.584z"/>
</g>
<g>
	<path style="fill:#4B3F4E;" d="M175.621,470.91h-8.232c-4.547,0-8.232-3.686-8.232-8.232l0,0c0-4.547,3.686-8.232,8.232-8.232
		h8.232c4.547,0,8.232,3.686,8.232,8.232l0,0C183.854,467.224,180.168,470.91,175.621,470.91z"/>
	<path style="fill:#4B3F4E;" d="M200.318,470.91L200.318,470.91c-4.547,0-8.232-3.686-8.232-8.232l0,0
		c0-4.547,3.686-8.232,8.232-8.232l0,0c4.547,0,8.232,3.686,8.232,8.232l0,0C208.55,467.224,204.865,470.91,200.318,470.91z"/>
</g>
<path style="fill:#C0826C;" d="M411.612,273.336c-23.305-24.677-71.036-70.104-123.484-95.357
	c-55.568-26.755-104.275-10.976-123.484-61.056c-18.646-48.612-34.301-91.927-90.555-69.974C8.566,72.519,0,95.656,0,103.888
	s2.945,42.359,16.464,45.964c7.988,2.13,35.826,3.688,66.653-7.259c4.305-1.529,9.001,0.842,10.407,5.188
	C103.81,179.595,142.763,278.973,238.5,320.61c28.532,12.409,74.718,12.783,76.039,12.752c146.122-3.43,160.903,46.89,148.18,60.37
	c-20.583,21.808-51.108,6.86-67.23-10.29c-10.478-11.147-17.622-5.165-16.808-3.087c19.895,50.765,113.193,69.974,131.716,1.029
	C525.509,325.142,429.106,291.858,411.612,273.336z"/>
<g>
	<path style="fill:#AF6E5A;" d="M487.761,361.832c-27.441-52.138-133.23-45.696-209.922-57.626
		c-92.613-14.406-133.774-94.671-152.297-166.017c-6.846-26.371-19.552-36.702-39.103-26.755
		c-26.173,13.317-62.927,17.727-82.74,19.181c2.48,9.231,6.463,17.555,12.765,19.236c7.988,2.13,35.826,3.688,66.653-7.259
		c4.305-1.529,9.001,0.842,10.407,5.188c10.286,31.814,49.239,131.192,144.976,172.829c28.532,12.409,74.718,12.783,76.039,12.752
		c146.122-3.43,160.903,46.89,148.18,60.37c-20.583,21.808-50.489,6.256-67.23-10.29
		C454.832,442.097,502.81,390.426,487.761,361.832z"/>
	<path style="fill:#AF6E5A;" d="M295.557,360.584c-0.791-5.052,0.811-10.185,4.335-13.891l24.85-26.546
		c20.857-22.281,15.005-58.267-11.838-72.79l0,0c-22.11-11.962-49.763-4.186-62.417,17.536c-0.704,1.209-1.195,2.079-1.407,2.504
		c-11.256,22.583-12.318,48.918-4.897,73.035l27.482,89.318l-23.345,5.836c-5.899,1.475-10.505,6.08-11.979,11.979l-2.696,10.784
		c-1.595,6.381,3.231,12.562,9.808,12.562h50.132c10.108,0,17.83-9.024,16.267-19.011L295.557,360.584z"/>
</g>
<path style="fill:#4B3F4E;" d="M74.171,83.994c-4.55,0-8.272-3.682-8.272-8.232s3.642-8.232,8.192-8.232h0.08
	c4.55,0,8.232,3.682,8.232,8.232S78.721,83.994,74.171,83.994z"/>
<g>
	<path style="fill:#8B534F;" d="M167.893,224.609c-4.18-1.801-9.02,0.137-10.813,4.317l-10.548,24.608
		c-1.375,3.208-4.735,5.073-8.192,4.462l-54.643-9.245c-0.304-0.047-0.603,0.048-0.908,0.034c-0.368-0.017-0.697-0.156-1.077-0.122
		c-14.607,1.077-28.909,5.282-29.512,5.459c-4.357,1.294-6.841,5.877-5.555,10.234c1.061,3.577,4.341,5.893,7.895,5.893
		c0.772,0,1.56-0.105,2.339-0.338c0.07-0.022,4.035-1.169,9.654-2.364c-1.621,4.916-2.407,9.221-2.636,10.733
		c-0.683,4.494,2.404,8.69,6.906,9.366c0.418,0.064,0.828,0.096,1.238,0.096c4.004,0,7.517-2.918,8.128-7.002
		c0.675-4.422,2.701-11.239,5.113-15.017l50.31,8.514c10.925,1.801,21.69-3.987,26.071-14.214l10.548-24.6
		C174.003,231.242,172.065,226.402,167.893,224.609z"/>
	<path style="fill:#8B534F;" d="M6.096,137.854c13.876-0.978,50.052-4.774,83.526-18.833c4.197-1.761,6.166-6.584,4.406-10.773
		c-1.753-4.197-6.608-6.182-10.773-4.406c-34.067,14.303-72.47,17.27-81.513,17.787C2.682,127.126,4.088,132.912,6.096,137.854z"/>
</g>
<path style="fill:#5D5360;" d="M238.735,470.91h-8.232c-4.547,0-8.232-3.686-8.232-8.232l0,0c0-4.547,3.686-8.232,8.232-8.232h8.232
	c4.547,0,8.232,3.686,8.232,8.232l0,0C246.967,467.224,243.282,470.91,238.735,470.91z"/>
<path style="fill:#4B3F4E;" d="M263.432,470.91L263.432,470.91c-4.547,0-8.232-3.686-8.232-8.232l0,0
	c0-4.547,3.686-8.232,8.232-8.232l0,0c4.547,0,8.232,3.686,8.232,8.232l0,0C271.664,467.224,267.979,470.91,263.432,470.91z"/>
<g>
</g>
<g>
</g>
<g>
</g>
<g>
</g>
<g>
</g>
<g>
</g>
<g>
</g>
<g>
</g>
<g>
</g>
<g>
</g>
<g>
</g>
<g>
</g>
<g>
</g>
<g>
</g>
<g>
</g>
</svg>
