<?xml version="1.0" encoding="iso-8859-1"?>
<!-- Generator: Adobe Illustrator 19.0.0, SVG Export Plug-In . SVG Version: 6.00 Build 0)  -->
<svg version="1.1" id="Capa_1" xmlns="http://www.w3.org/2000/svg" xmlns:xlink="http://www.w3.org/1999/xlink" x="0px" y="0px"
	 viewBox="0 0 512.001 512.001" style="enable-background:new 0 0 512.001 512.001;" xml:space="preserve">
<path style="fill:#DBD9DC;" d="M458.76,155.239l31.531,59.272c0,0,21.71-18.264,21.71-31.531
	C512.001,174.709,497.872,158.685,458.76,155.239z"/>
<g>
	<path style="fill:#9C969E;" d="M471.165,311.172l-52.207-5.169l41.94,82.381c0.951,1.869,1.157,4.029,0.576,6.044l-17.984,62.354
		c-1.068,3.701,1.71,7.394,5.563,7.394h24.634c2.972,0,5.461-2.25,5.76-5.206l7.067-69.786c0.448-4.424,0.18-8.891-0.795-13.23
		L471.165,311.172z"/>
	<path style="fill:#9C969E;" d="M188.073,324.956l9.324,35.02c1.131,4.248,1.704,8.625,1.704,13.021v46.397
		c0,2.262-0.464,4.501-1.364,6.577l-13.05,30.114c-1.657,3.823,1.146,8.091,5.312,8.091h27.226c3.003,0,5.507-2.296,5.768-5.288
		l11.946-137.378L188.073,324.956z"/>
</g>
<path style="fill:#EDEBED;" d="M361.064,142.316c-20.958,3.732-124.058,22.055-175.748-40.491
	C134.089,39.84,82.452,39.279,54.539,60.214c-13.591,10.194-20.159,28.43-19.125,41.611c1.819,23.195,9.863,38.594,27.913,58.41
	c63.407,69.61,89.43,137.815,113.719,164.032c43.42,46.866,82.317-7.021,82.632-15.585c41.426,19.031,94.219,18.303,149.754,1.244
	c5.518-1.696,11.32,12.036,26.412,23.644c8.96,6.892,17.629,6.318,27.051,3.963c11.2-2.8,20.48-7.448,22.762-18.765
	c4.071-20.197,9.804-64.833,9.804-86.167C495.46,132.667,411.376,133.356,361.064,142.316z"/>
<path style="fill:#DBD9DC;" d="M155.68,238.805C124.804,150.294,85.036,130.6,83.313,92.004
	c-1.463-32.776,35.839-39.285,54.677-31.461c-33.807-18.955-64.245-14.733-83.451-0.329c-13.591,10.193-20.159,28.43-19.125,41.611
	c1.819,23.195,9.863,38.594,27.913,58.41c63.407,69.61,89.43,137.815,113.719,164.032c20.022,21.611,39.07,21.78,53.829,14.867
	C194.093,336.41,176.356,298.077,155.68,238.805z"/>
<path style="fill:#9C969E;" d="M117.093,86.887c0.447-3.487-2.21-6.546-5.724-6.657c-16.46-0.522-31.158,4.192-31.158,4.192
	c-26.879-8.271-39.63,7.581-39.63,7.581l-38.057,53.28c-2.2,3.08-3.016,6.919-2.233,10.622c1.404,6.647,4.301,16.778,9.276,19.492
	c8.154,4.448,43.783-3.82,58.105-7.412c5.261-1.32,10.029-4.267,13.232-8.644c5.014-6.852,10.626-19.413,9.646-40.804
	C111.202,107.753,116.116,94.524,117.093,86.887z"/>
<path style="fill:#4B3F4E;" d="M62.644,121.209h-0.085c-4.567,0-8.271-3.703-8.271-8.271s3.703-8.271,8.271-8.271
	s8.311,3.703,8.311,8.271S67.211,121.209,62.644,121.209z"/>
<g>
	<path style="fill:#867E88;" d="M117.093,86.887c0.143-1.12-0.121-2.145-0.544-3.094c-7.266,0.686-18.879,3.287-28.485,11.418
		c-1.382,1.169-1.875,3.108-1.279,4.817c1.13,3.238,2.876,9.408,3.764,18.51C111.202,107.753,116.116,94.524,117.093,86.887z"/>
	<path style="fill:#867E88;" d="M16.146,126.215l-13.621,19.07c-2.2,3.08-3.016,6.919-2.233,10.622
		c1.404,6.647,4.301,16.778,9.276,19.492c5.229,2.852,21.742,0.473,36.702-2.546C47.819,146.021,24.041,142.316,16.146,126.215z"/>
</g>
<path style="fill:#6F6571;" d="M11.728,152.67c-0.984-3.305-5.893-4.723-11.098-3.366c-0.636,2.127-0.808,4.38-0.338,6.603
	c0.394,1.867,0.921,4.011,1.564,6.186c0.647-0.107,1.271-0.12,1.931-0.317C9.191,160.167,12.746,156.09,11.728,152.67z"/>
<g>
	<path style="fill:#5D5360;" d="M189.999,464.177h27.226c3.003,0,5.508-2.296,5.768-5.288l1.624-18.683l-28.769-9.878
		l-11.162,25.758C183.03,459.908,185.833,464.177,189.999,464.177z"/>
	<path style="fill:#5D5360;" d="M451.104,430.382l-7.615,26.401c-1.067,3.701,1.711,7.394,5.563,7.394h24.634
		c2.972,0,5.46-2.25,5.76-5.206l2.031-20.052L451.104,430.382z"/>
</g>
<path style="fill:#DBD9DC;" d="M409.432,309.927c1.434-0.441,2.897,0.195,4.528,1.531c0.019-0.014,0.041-0.028,0.06-0.042
	c-9.019-13.166-12.809-38.667-68.118-32.981c-39.551,4.066-64.614-4.7-73.056,1.378c-6.461,4.652-7.409,15.335-13.168,28.869
	C301.103,327.713,353.897,326.986,409.432,309.927z"/>
<g>
</g>
<g>
</g>
<g>
</g>
<g>
</g>
<g>
</g>
<g>
</g>
<g>
</g>
<g>
</g>
<g>
</g>
<g>
</g>
<g>
</g>
<g>
</g>
<g>
</g>
<g>
</g>
<g>
</g>
</svg>
