<?xml version="1.0" encoding="iso-8859-1"?>
<!-- Generator: Adobe Illustrator 19.0.0, SVG Export Plug-In . SVG Version: 6.00 Build 0)  -->
<svg version="1.1" id="Capa_1" xmlns="http://www.w3.org/2000/svg" xmlns:xlink="http://www.w3.org/1999/xlink" x="0px" y="0px"
	 viewBox="0 0 512 512" style="enable-background:new 0 0 512 512;" xml:space="preserve">
<path style="fill:#4B3F4E;" d="M227.382,512c-20.289,0-36.794-16.505-36.794-36.794V462.94c0-4.519,3.661-8.176,8.176-8.176
	s8.176,3.657,8.176,8.176v12.265c0,11.275,9.171,20.441,20.441,20.441c11.271,0,20.441-9.167,20.441-20.441V54.117
	c0-4.519,3.661-8.176,8.176-8.176c4.515,0,8.176,3.657,8.176,8.176v421.089C264.176,495.495,247.672,512,227.382,512z"/>
<path style="fill:#867E88;" d="M459.843,238.059c0.207,2.229-2.539,3.496-4.073,1.865c-7.839-8.332-24.781-14.101-44.417-14.101
	c-22.275,0-41.082,7.422-47.068,17.591c-0.958,1.627-3.096,1.666-4.103,0.069c-6.437-10.203-26.849-17.659-51.034-17.659
	c-24.302,0-44.794,7.528-51.127,17.807c-0.972,1.578-3.069,1.578-4.041,0c-6.332-10.279-26.825-17.807-51.127-17.807
	c-24.185,0-44.597,7.456-51.034,17.659c-1.008,1.597-3.145,1.559-4.103-0.069c-5.986-10.168-24.794-17.591-47.068-17.591
	c-19.636,0-36.578,5.768-44.417,14.101c-1.534,1.631-4.28,0.364-4.073-1.865C60.014,153.485,148.276,86.822,256,86.822
	S451.986,153.485,459.843,238.059z"/>
<path style="fill:#6F6571;" d="M256,86.822c56.17,0,102.192,66.663,106.288,151.235c0.023,0.483,0.075,3.009,0.132,6.551
	c0.72-0.068,1.421-0.443,1.864-1.195c5.987-10.168,24.794-17.591,47.069-17.591c19.636,0,36.578,5.768,44.417,14.1
	c1.534,1.631,4.28,0.364,4.073-1.865C451.986,153.485,363.724,86.822,256,86.822z"/>
<path style="fill:#5D5360;" d="M52.157,238.057c-0.207,2.229,2.539,3.496,4.073,1.865c7.839-8.332,24.78-14.1,44.417-14.1
	c22.275,0,41.082,7.422,47.069,17.591c0.464,0.788,1.207,1.186,1.962,1.223c0.008-3.786,0.019-6.267,0.034-6.579
	C153.808,153.485,199.83,86.822,256,86.822C148.276,86.822,60.014,153.485,52.157,238.057z"/>
<path style="fill:#6F6571;" d="M149.712,238.057c-0.015,0.312-0.026,2.792-0.034,6.579c0.804,0.04,1.621-0.331,2.141-1.155
	c6.437-10.203,26.849-17.659,51.034-17.659c24.302,0,44.794,7.528,51.126,17.807c0.486,0.788,1.253,1.183,2.021,1.183V86.822
	C199.83,86.822,153.808,153.485,149.712,238.057z"/>
<path style="fill:#D1F4FF;" d="M182.412,45.941c0,13.547-10.982,24.529-24.529,24.529c-13.547,0-24.529-10.982-24.529-24.529
	c0-12.42,14.15-34.274,20.956-44.067c1.736-2.498,5.411-2.498,7.147,0C168.262,11.666,182.412,33.52,182.412,45.941z"/>
<path style="fill:#B2EDFF;" d="M174.235,62.293c-13.547,0-24.529-10.982-24.529-24.529c0-8.826,7.138-22.361,13.716-33.001
	c-0.681-1.008-1.38-2.046-1.966-2.889c-1.736-2.498-5.411-2.498-7.147,0c-6.806,9.793-20.956,31.646-20.956,44.067
	c0,13.547,10.982,24.529,24.529,24.529c7.329,0,13.833-3.279,18.328-8.376C175.547,62.147,174.912,62.293,174.235,62.293z"/>
<path style="fill:#D1F4FF;" d="M337.765,78.646c0,13.547-10.982,24.529-24.529,24.529s-24.529-10.982-24.529-24.529
	c0-12.42,14.15-34.274,20.956-44.067c1.736-2.498,5.411-2.498,7.147,0C323.615,44.373,337.765,66.225,337.765,78.646z"/>
<path style="fill:#B2EDFF;" d="M329.588,94.998c-13.547,0-24.529-10.982-24.529-24.529c0-8.826,7.138-22.361,13.716-33.001
	c-0.681-1.008-1.38-2.046-1.966-2.889c-1.736-2.498-5.411-2.498-7.147,0c-6.806,9.793-20.956,31.646-20.956,44.067
	c0,13.547,10.982,24.529,24.529,24.529c7.329,0,13.833-3.279,18.328-8.376C330.9,94.853,330.265,94.998,329.588,94.998z"/>
<path style="fill:#D1F4FF;" d="M427.706,127.704c0,13.547-10.982,24.529-24.529,24.529s-24.529-10.982-24.529-24.529
	c0-12.42,14.15-34.274,20.956-44.067c1.736-2.498,5.411-2.498,7.147,0C413.556,93.431,427.706,115.285,427.706,127.704z"/>
<path style="fill:#B2EDFF;" d="M419.53,144.057c-13.547,0-24.529-10.982-24.529-24.529c0-8.826,7.138-22.361,13.716-33.001
	c-0.681-1.008-1.38-2.046-1.966-2.889c-1.736-2.498-5.411-2.498-7.147,0c-6.806,9.793-20.956,31.646-20.956,44.067
	c0,13.547,10.982,24.529,24.529,24.529c7.329,0,13.833-3.279,18.328-8.376C420.842,143.912,420.206,144.057,419.53,144.057z"/>
<path style="fill:#D1F4FF;" d="M256,176.764c0,13.547-10.982,24.529-24.529,24.529s-24.529-10.982-24.529-24.529
	c0-12.42,14.15-34.274,20.956-44.067c1.736-2.498,5.411-2.498,7.147,0C241.85,142.49,256,164.343,256,176.764z"/>
<path style="fill:#B2EDFF;" d="M247.824,193.117c-13.547,0-24.529-10.982-24.529-24.529c0-8.826,7.138-22.361,13.716-33.001
	c-0.681-1.008-1.38-2.046-1.966-2.889c-1.736-2.498-5.411-2.498-7.147,0c-6.806,9.793-20.956,31.646-20.956,44.067
	c0,13.547,10.982,24.529,24.529,24.529c7.329,0,13.833-3.279,18.328-8.376C249.136,192.971,248.5,193.117,247.824,193.117z"/>
<g>
</g>
<g>
</g>
<g>
</g>
<g>
</g>
<g>
</g>
<g>
</g>
<g>
</g>
<g>
</g>
<g>
</g>
<g>
</g>
<g>
</g>
<g>
</g>
<g>
</g>
<g>
</g>
<g>
</g>
</svg>
