<?xml version="1.0" encoding="iso-8859-1"?>
<!-- Generator: Adobe Illustrator 19.0.0, SVG Export Plug-In . SVG Version: 6.00 Build 0)  -->
<svg version="1.1" id="Capa_1" xmlns="http://www.w3.org/2000/svg" xmlns:xlink="http://www.w3.org/1999/xlink" x="0px" y="0px"
	 viewBox="0 0 512 512" style="enable-background:new 0 0 512 512;" xml:space="preserve">
<path style="fill:#EBC9A0;" d="M490.646,332.471c-6.22-33.172,12.785-56.841,12.785-92.777c0-37.318-22.297-61.509-57.014-73.081
	c-55.977-18.659-211.987,7.775-261.745-23.324c-4.976-3.11-8.459-9.392-11.345-16.83c-3.514-9.058-5.508-18.636-6.425-28.308
	l-4-42.196L86.93,57.977c-7.802,0.208-15.258,3.257-21.049,8.49c-31.945,28.865-55.095,61.526-63.652,74.364
	c-2.326,3.489-2.852,7.847-1.481,11.81l2.785,8.052c2.727,7.885,10.884,12.366,19.075,10.777
	c31.849-6.182,58.319-1.676,78.64-12.539c21.038,29.736,21.479,131.578,90.854,163.175l15.204,63.579v73.254l-14.87,34.316
	c-1.464,3.378,1.012,7.149,4.693,7.149h28.857c2.706,0,4.943-2.107,5.106-4.808l9.503-157.998
	c34.102,5.288,91.979,5.19,167.318-28.477c11.273,17.473,33.003,43.223,73.75,70l-11.057,79.819l-14.87,34.316
	c-1.464,3.378,1.012,7.149,4.693,7.149h29.257c2.537,0,4.69-1.859,5.06-4.368l17.105-115.931c0.56-3.794-0.466-7.604-2.85-10.608
	C503.509,362.579,493.626,348.367,490.646,332.471z"/>
<path style="fill:#DC8C64;" d="M164.459,13.748C116.284,1.953,86.164,41.812,76.946,56.416c-1.985,3.144-1.264,7.253,1.485,9.757
	c14.84,13.522,31.693,13.843,40.334,12.859c3.188-0.363,6.058-2.342,7.38-5.265c10.097-22.331,33.54-18.255,36.5-0.708
	c3.628,21.51-18.311,23.3-26.174,23.842c-7.515,0.518-5.183,8.207-5.183,8.207s5.701,5.269,17.622,5.529
	C215.327,112.079,221.472,27.707,164.459,13.748z"/>
<path style="fill:#4B3F4E;" d="M71.245,114.041c-4.58,0-8.333-3.713-8.333-8.293s3.673-8.293,8.252-8.293h0.081
	c4.58,0,8.293,3.713,8.293,8.293S75.824,114.041,71.245,114.041z"/>
<g>
	<path style="fill:#6E4848;" d="M197.129,500.402h28.857c2.705,0,4.943-2.107,5.106-4.808l1.178-19.585l-28.279-9.42l-11.555,26.664
		C190.972,496.631,193.447,500.402,197.129,500.402z"/>
	<path style="fill:#6E4848;" d="M455.735,493.253c-1.463,3.378,1.012,7.149,4.694,7.149h29.257c2.536,0,4.69-1.859,5.06-4.369
		l2.828-19.171l-30.222-10.419L455.735,493.253z"/>
</g>
<path style="fill:#FAEBC8;" d="M58.983,144.326c-10.042-16.736-26.654-27.391-31.737-37.012
	c-11.81,14.364-20.497,26.735-25.017,33.517c-2.326,3.489-2.852,7.847-1.481,11.81l2.785,8.052
	c2.727,7.885,10.884,12.366,19.075,10.777c14.421-2.799,27.676-3.417,39.82-4.252C63.82,159.752,63.382,151.657,58.983,144.326z"/>
<g>
	<path style="fill:#E1AF87;" d="M0.7,144.1c-0.893,2.75-0.922,5.739,0.048,8.541l1.473,4.258c0.699-0.114,1.382-0.149,2.094-0.378
		c5.166-1.66,8.465-5.772,7.37-9.184C10.614,144.003,5.739,142.619,0.7,144.1z"/>
	<path style="fill:#E1AF87;" d="M192.102,322.105c-56.322-45.265-54.882-155.691-53.558-168.449
		c1.425-13.735-9.718-17.104-14.858-14.34c-6.71,3.608-9.33,12.785-22.437,19.614C122.286,188.666,122.727,290.508,192.102,322.105z
		"/>
	<path style="fill:#E1AF87;" d="M407.912,309.118c-2.723-4.168-4.756-7.948-6.273-11.262c-3.514-7.674-12.013-11.785-20.046-9.195
		c-41.605,13.415-96.532,14.368-120.316,14.062c-7.538-0.097-14.19,4.733-16.464,11.921c-2.065,6.527-4.07,14.863-4.219,22.952
		C274.696,342.884,332.574,342.786,407.912,309.118z"/>
</g>
<path style="fill:#C8785A;" d="M158.239,39.801c-27.625-5.696-50.447,10.756-61.753,36.949c8.907,2.935,17.085,2.874,22.279,2.282
	c3.187-0.363,6.058-2.341,7.38-5.265c10.097-22.331,33.541-18.255,36.5-0.708c3.628,21.51-18.311,23.299-26.174,23.842
	c-7.515,0.518-5.183,8.206-5.183,8.206C198.667,107.18,191.756,46.711,158.239,39.801z"/>
<g>
</g>
<g>
</g>
<g>
</g>
<g>
</g>
<g>
</g>
<g>
</g>
<g>
</g>
<g>
</g>
<g>
</g>
<g>
</g>
<g>
</g>
<g>
</g>
<g>
</g>
<g>
</g>
<g>
</g>
</svg>
