<?xml version="1.0" encoding="iso-8859-1"?>
<!-- Generator: Adobe Illustrator 19.0.0, SVG Export Plug-In . SVG Version: 6.00 Build 0)  -->
<svg version="1.1" id="Capa_1" xmlns="http://www.w3.org/2000/svg" xmlns:xlink="http://www.w3.org/1999/xlink" x="0px" y="0px"
	 viewBox="0 0 512 512" style="enable-background:new 0 0 512 512;" xml:space="preserve">
<path style="fill:#DBD9DC;" d="M412.703,0H148.198c-10.727,0-20.805,5.226-26.813,14.113
	C99.232,46.88,58.354,133.774,147.228,243.81c52.257,64.698,186.921,130.032,146.286,260.063h49.778
	c0,0,84.446-93.856,38.265-222.138c-57.167-158.797,5.641-241.471,35.806-270.011C421.839,7.488,418.866,0,412.703,0z"/>
<path style="fill:#C9C6CA;" d="M245.22,243.81c-53.537-110.035-28.912-196.93-15.568-229.696C233.272,5.226,239.342,0,245.804,0
	h-97.606c-10.728,0-20.805,5.226-26.813,14.113C99.232,46.88,58.354,133.774,147.228,243.81
	c52.257,64.698,186.921,130.032,146.286,260.063h39.826C357.818,373.841,276.699,308.508,245.22,243.81z"/>
<path style="fill:#EDEBED;" d="M382.911,512H261.006c-4.488,0-8.127-3.635-8.127-8.127s3.639-8.127,8.127-8.127h121.905
	c4.488,0,8.127,3.635,8.127,8.127S387.399,512,382.911,512z"/>
<path style="fill:#C9C6CA;" d="M350.625,410.976c-5.651,3.659-7.258,11.214-3.591,16.857c2.333,3.603,6.246,5.556,10.238,5.556
	c2.274,0,4.575-0.635,6.623-1.968c8.117-5.265,15.532-8.74,22.69-10.931c2.377-8.281,4.389-17.073,5.891-26.335
	C378.922,396.017,365.165,401.539,350.625,410.976z"/>
<path style="fill:#AEA8AF;" d="M313.117,440.19c-4.129,3.388-8.318,6.691-12.341,9.483c0.491,9.102,0.078,18.568-1.372,28.431
	c9.102-3.636,18.161-10.029,29.173-19.057c5.206-4.27,5.964-11.952,1.694-17.159C326.01,436.69,318.324,435.921,313.117,440.19z"/>
<path style="fill:#C9C6CA;" d="M393.139,327.918c-36.173,1.649-59.303,21.649-79.886,39.392
	c-9.801,8.448-19.222,16.397-29.643,22.561c3.84,7.206,7.09,14.699,9.773,22.447c13.425-7.514,24.836-17.099,35.791-26.54
	c20.162-17.382,37.821-32.124,66.048-33.332C394.981,344.485,394.34,336.317,393.139,327.918z"/>
<path style="fill:#AEA8AF;" d="M317.3,363.849c-1.349,1.155-2.723,2.318-4.048,3.461c-9.801,8.448-19.222,16.397-29.643,22.561
	c3.84,7.206,7.09,14.699,9.773,22.447c12.426-6.955,23.103-15.688,33.313-24.435C323.935,379.548,320.775,371.545,317.3,363.849z"/>
<g>
	<path style="fill:#C9C6CA;" d="M381.557,281.735c-2.311-6.419-4.357-12.668-6.286-18.84c-8.553,0.997-16.969,2.839-25.491,5.629
		c-6.397,2.103-9.885,8.992-7.786,15.389c1.683,5.135,6.456,8.389,11.579,8.389c1.262,0,2.54-0.19,3.802-0.603
		c8.638-2.836,17.123-4.442,25.821-5.018C382.641,285.029,382.156,283.398,381.557,281.735z"/>
	<path style="fill:#C9C6CA;" d="M308.328,288.889c-9.595,6.127-18.722,12.746-27.548,19.143
		c-13.652,9.903-26.645,19.152-39.897,25.746c5.889,6.056,11.568,12.303,16.97,18.739c12.899-7.139,25.231-16.036,37.236-24.747
		c8.54-6.19,17.369-12.587,26.357-18.325c5.675-3.627,7.337-11.159,3.714-16.833C321.538,286.929,314.006,285.278,308.328,288.889z"
		/>
</g>
<path style="fill:#AEA8AF;" d="M280.78,308.032c-13.652,9.903-26.645,19.152-39.897,25.746c5.888,6.055,11.566,12.301,16.968,18.736
	l0.002,0.003c12.899-7.139,25.231-16.036,37.236-24.747c0.676-0.49,1.379-0.985,2.059-1.477c-4.327-7.061-8.76-13.893-13.184-20.546
	C282.914,306.508,281.822,307.276,280.78,308.032z"/>
<path style="fill:#C9C6CA;" d="M361.032,200.157c-46.887,6.112-82.657,25.016-114.276,41.922
	c-24.301,13.006-47.282,25.26-72.313,30.153c6.866,6.428,14.137,12.95,21.615,19.624c21.669-6.674,41.498-17.204,62.199-28.276
	c31.419-16.802,63.98-34.026,106.896-39.392C363.448,215.929,362.066,207.907,361.032,200.157z"/>
<path style="fill:#AEA8AF;" d="M245.22,243.81c-0.121-0.249-0.21-0.487-0.33-0.735c-23.611,12.629-46.061,24.391-70.447,29.158
	c6.866,6.428,14.137,12.95,21.615,19.624c21.12-6.505,40.501-16.686,60.635-27.449C252.445,257.486,248.544,250.641,245.22,243.81z"
	/>
<path style="fill:#C9C6CA;" d="M202.518,183.81c-6.222,2.571-9.179,9.698-6.607,15.921c1.944,4.698,6.484,7.532,11.27,7.532
	c1.552,0,3.131-0.294,4.655-0.929c6.345-2.619,12.71-5.341,19.151-8.087c37.447-15.989,76.258-32.354,127.436-37.788
	c0.028-8.592,0.442-16.822,1.234-24.656c-56.791,5.408-100.05,23.719-138.242,40.023
	C215.058,178.532,208.776,181.214,202.518,183.81z"/>
<g>
	<path style="fill:#AEA8AF;" d="M220.731,176.115c-6.122,2.607-12.182,5.193-18.213,7.695c-6.222,2.571-9.179,9.698-6.607,15.921
		c1.944,4.698,6.484,7.532,11.27,7.532c1.552,0,3.131-0.294,4.655-0.929c5.165-2.132,10.367-4.357,15.588-6.583
		C224.788,191.688,222.603,183.827,220.731,176.115z"/>
	<path style="fill:#AEA8AF;" d="M136.168,229.22c10.848-1.628,21.851-4.064,33.334-7.466c6.456-1.921,10.139-8.698,8.222-15.159
		c-1.913-6.452-8.706-10.111-15.151-8.222c-14.398,4.271-27.892,6.909-41.225,8.099C125.689,213.922,130.625,221.508,136.168,229.22
		z"/>
</g>
<path style="fill:#C9C6CA;" d="M219.875,102.532c-40.653,15.894-79.144,30.834-125.297,31.449
	c1.216,7.805,2.993,15.862,5.471,24.176c48.124-1.63,87.39-16.762,128.706-32.919c41.415-16.198,84.349-32.762,141.296-38.053
	c3.113-9.185,6.666-17.603,10.488-25.236c-0.599-0.054-1.197-0.112-1.815-0.076C312.713,66.23,263.391,85.516,219.875,102.532z"/>
<path style="fill:#AEA8AF;" d="M94.579,133.981c1.216,7.805,2.993,15.862,5.471,24.176c42.071-1.426,77.372-13.17,113.19-26.896
	c-0.759-9.008-0.962-17.556-0.888-25.807C174.437,120.203,137.869,133.404,94.579,133.981z"/>
<path style="fill:#C9C6CA;" d="M304.367,4.222c-27.829,7.175-52.794,15.849-76.937,24.238
	c-41.218,14.327-80.429,27.787-127.868,31.632c-2.313,7.656-4.216,15.956-5.466,24.839c53.906-3.199,96.468-17.842,141.338-33.44
	c23.675-8.23,48.159-16.738,75.02-23.667c6.52-1.675,10.44-8.325,8.762-14.849C317.53,6.468,310.875,2.5,304.367,4.222z"/>
<path style="fill:#AEA8AF;" d="M224.072,29.621c-39.994,13.884-78.365,26.732-124.509,30.472
	c-2.313,7.656-4.216,15.956-5.466,24.839c46.468-2.758,84.507-14.031,122.862-27.078C219.023,47.075,221.531,37.591,224.072,29.621z
	"/>
<path style="fill:#C9C6CA;" d="M412.703,0h-72.284c-1.699,2.504-2.495,5.628-1.956,8.849c1,5.96,6.163,10.175,12.008,10.175
	c0.671,0,1.349-0.056,2.032-0.167c20.942-3.507,42.054-5.56,64.011-6.308c0.28-0.269,0.575-0.566,0.85-0.825
	C421.84,7.488,418.866,0,412.703,0z"/>
<g>
</g>
<g>
</g>
<g>
</g>
<g>
</g>
<g>
</g>
<g>
</g>
<g>
</g>
<g>
</g>
<g>
</g>
<g>
</g>
<g>
</g>
<g>
</g>
<g>
</g>
<g>
</g>
<g>
</g>
</svg>
