<?xml version="1.0" encoding="iso-8859-1"?>
<!-- Generator: Adobe Illustrator 19.0.0, SVG Export Plug-In . SVG Version: 6.00 Build 0)  -->
<svg version="1.1" id="Capa_1" xmlns="http://www.w3.org/2000/svg" xmlns:xlink="http://www.w3.org/1999/xlink" x="0px" y="0px"
	 viewBox="0 0 512 512" style="enable-background:new 0 0 512 512;" xml:space="preserve">
<path style="fill:#C0BCC1;" d="M228.793,290.355l14.692,81.922c1.421,7.925,8.316,13.693,16.368,13.693h28.353
	c7.308,0,13.759-4.771,15.9-11.759l28.443-92.864L228.793,290.355z"/>
<path style="fill:#9C969E;" d="M228.793,290.355l14.692,81.922c1.421,7.925,8.316,13.693,16.368,13.693h11.031l3.464-97.693
	L228.793,290.355z"/>
<path style="fill:#C0BCC1;" d="M170.463,150.051c0,0,30.747-25.985,59.889-23.904c21.825,1.559,46.387,18.866,96.654,18.014
	c40.879-0.693,84.69-9.795,113.629,1.386C471.121,157.326,512,189.197,512,236.312c0,33.135-21.128,108.526-29.704,137.762
	c-2.078,7.083-8.561,11.896-15.942,11.896h-38.709c-8.696,0-15.924-6.701-16.581-15.373l-4.032-53.221
	c0,0-139.785,38.454-216.173-45.729S170.463,150.051,170.463,150.051z"/>
<path style="fill:#9C969E;" d="M407.032,317.377l4.032,53.221c0.657,8.672,7.885,15.373,16.581,15.373h13.684l9.354-93.536
	C432.494,308.023,407.032,317.377,407.032,317.377z"/>
<g>
	<path style="fill:#AEA8AF;" d="M263.625,286.862c-20.217-8.306-41.49-20.691-63.551-38.428c4.051-27.054-4.25-59.953-33.881-76.595
		c-1.983-1.114-2.847-3.531-1.752-5.524c3.084-5.619,8.009-17.48,4.542-31.463c-0.734-2.961-4.359-4.154-6.666-2.159
		c-5.654,4.888-15.287,13.469-22.037,20.822c-8.892,9.686-16.183,24.684-17.136,47.73c-0.198,4.793-1.621,9.456-3.81,13.725
		l-38.641,75.385c0,0,1.039,27.801,35.682,28.407c21.573,0.378,58.929-19.564,75.263-46.273
		c23.321,25.307,52.419,39.336,81.615,46.644l0.581-16.379C274.081,295.829,270.033,289.495,263.625,286.862z"/>
	<path style="fill:#AEA8AF;" d="M455.687,273.212l-0.114-0.213c-3.737-6.97-12.679-9.01-19.192-4.524
		c-19.003,13.091-53.529,31.57-98.214,32.735c-7.069,0.184-13.215,4.94-15.286,11.702l-3.938,12.856
		c48.528,2.487,108.744-5.144,131.738-33.335c1.368-1.677,2.725-3.44,4.05-5.238C457.732,283.125,458.076,277.668,455.687,273.212z"
		/>
</g>
<path style="fill:#C9C6CA;" d="M0.185,202.316c7.096,22.996,27.162,65.442,81.734,89.646c3.75,1.663,8.27,0.428,10.714-2.867
	c6.987-9.417,9.894-20.165,11.103-27.478c0.787-4.758-2.584-9.065-7.322-9.968c-42.95-8.192-74.5-36.564-89.719-53.066
	C3.931,195.585-1.017,198.419,0.185,202.316z"/>
<path style="fill:#DBD9DC;" d="M78.298,202.582c6.912,6.271,19.319,14.367,38.74,16.583c4.466,0.51,7.79,4.465,7.593,8.956
	c-0.327,7.463-3.152,17.957-15.369,23.21c-2.803,1.205-6.022,0.942-8.565-0.745c-8.019-5.32-25.867-19.792-28.978-44.821
	C71.277,202.206,75.642,200.172,78.298,202.582z"/>
<circle style="fill:#4B3F4E;" cx="146.17" cy="252.939" r="8.314"/>
<path style="fill:#DBD9DC;" d="M103.736,261.617c0.787-4.758-2.584-9.064-7.321-9.968c-42.95-8.192-74.501-36.564-89.72-53.066
	c-1.716-1.86-4.268-1.47-5.673,0.022c16.189,24.69,46.611,58.556,98.578,77.671C101.75,270.878,103.061,265.702,103.736,261.617z"/>
<path style="fill:#C9C6CA;" d="M74.821,201.773c-1.823,0.378-3.371,1.826-3.102,3.992c3.112,25.029,20.959,39.501,28.978,44.821
	c2.543,1.687,5.762,1.95,8.565,0.744c5.849-2.514,9.503-6.241,11.803-10.251C108.392,236.843,86.588,226.278,74.821,201.773z"/>
<circle style="fill:#867E88;" cx="109.66" cy="305.169" r="5.846"/>
<g>
</g>
<g>
</g>
<g>
</g>
<g>
</g>
<g>
</g>
<g>
</g>
<g>
</g>
<g>
</g>
<g>
</g>
<g>
</g>
<g>
</g>
<g>
</g>
<g>
</g>
<g>
</g>
<g>
</g>
</svg>
