<?xml version="1.0" encoding="iso-8859-1"?>
<!-- Generator: Adobe Illustrator 19.0.0, SVG Export Plug-In . SVG Version: 6.00 Build 0)  -->
<svg version="1.1" id="Capa_1" xmlns="http://www.w3.org/2000/svg" xmlns:xlink="http://www.w3.org/1999/xlink" x="0px" y="0px"
	 viewBox="0 0 512 512" style="enable-background:new 0 0 512 512;" xml:space="preserve">
<path style="fill:#EDEBED;" d="M24.402,453.301l121.774-107.448l-40.605-74.044H0v170.479C0,454.935,14.92,461.668,24.402,453.301z"
	/>
<path style="fill:#D1F4FF;" d="M389.796,308.425c-3.807,0-7.209-2.688-7.962-6.567c-0.857-4.409,2.014-8.668,6.416-9.525
	c35.085-6.828,94.913-24.18,106.103-41.667c1.634-2.554,1.531-4.164,1.253-5.274c-0.88-3.608-2.926-5.686-5.916-6.019
	c-3.521-0.428-8.47,1.832-11.412,7.716c-2.006,4.013-6.884,5.615-10.897,3.632c-4.013-2.006-5.639-6.884-3.632-10.897
	c5.67-11.341,16.551-17.852,27.757-16.591c9.77,1.094,17.384,8.105,19.882,18.296c1.459,5.98,0.301,12.173-3.363,17.891
	c-18.581,29.042-106.69,46.909-116.675,48.852C390.827,308.378,390.311,308.425,389.796,308.425z"/>
<path style="fill:#B2EDFF;" d="M412.739,459.495c-13.918,0-28.09-7.788-33.879-19.216c-4.798-9.493-2.855-19.977,5.202-28.035
	c3.172-3.172,8.311-3.172,11.483,0s3.172,8.311,0,11.483c-4.037,4.037-3.291,7.042-2.189,9.215
	c2.998,5.916,13.157,11.555,22.325,10.096c8.034-1.229,13.022-7.375,14.838-18.264c6.067-36.425-83.239-83.572-140.958-104.739
	c-3.204-1.166-5.329-4.211-5.329-7.621c0-3.402,2.125-6.448,5.321-7.621c57.719-21.183,147.033-68.338,140.966-104.739
	c-1.816-10.889-6.804-17.035-14.838-18.264c-9.231-1.459-19.327,4.171-22.325,10.096c-1.102,2.173-1.848,5.179,2.189,9.215
	c3.172,3.172,3.172,8.311,0,11.483s-8.311,3.172-11.483,0c-8.057-8.057-10-18.542-5.202-28.035
	c6.551-12.911,23.831-21.222,39.272-18.811c15.084,2.3,25.441,13.839,28.407,31.651c8.43,50.589-88.228,96.824-132.02,115.025
	c43.793,18.201,140.451,64.436,132.02,115.025c-2.966,17.812-13.323,29.351-28.407,31.651
	C416.355,459.368,414.547,459.495,412.739,459.495z"/>
<path style="fill:#D1F4FF;" d="M488.753,401.752c-10.199,0-19.803-6.344-25.005-16.749c-2.006-4.013-0.381-8.89,3.632-10.897
	c4.013-1.991,8.89-0.381,10.897,3.632c2.942,5.884,7.899,8.161,11.412,7.716c2.99-0.333,5.036-2.411,5.916-6.011
	c0.278-1.118,0.381-2.728-1.261-5.282c-11.198-17.503-71.018-34.847-106.087-41.667c-4.409-0.857-7.28-5.115-6.424-9.517
	c0.849-4.417,5.107-7.312,9.517-6.424c9.985,1.943,98.093,19.811,116.675,48.852c3.664,5.718,4.822,11.912,3.363,17.899
	c-2.498,10.183-10.111,17.193-19.882,18.288C490.585,401.697,489.665,401.752,488.753,401.752z"/>
<path style="fill:#B2EDFF;" d="M487.255,320.535h-32.484c-4.489,0-8.121-3.632-8.121-8.121s3.632-8.121,8.121-8.121h32.484
	c4.489,0,8.121,3.632,8.121,8.121S491.743,320.535,487.255,320.535z"/>
<g>
	<path style="fill:#D1F4FF;" d="M300.482,288.051c-2.625,0-5.202-1.269-6.765-3.616c-2.49-3.735-1.483-8.771,2.252-11.261
		l24.363-16.242c3.743-2.482,8.779-1.483,11.261,2.252c2.49,3.735,1.483,8.771-2.252,11.261l-24.363,16.242
		C303.59,287.607,302.028,288.051,300.482,288.051z"/>
	<path style="fill:#D1F4FF;" d="M324.828,369.261c-1.546,0-3.109-0.444-4.497-1.364l-24.363-16.242
		c-3.735-2.49-4.742-7.526-2.252-11.261c2.482-3.735,7.51-4.742,11.261-2.252l24.363,16.242c3.735,2.49,4.742,7.526,2.252,11.261
		C330.031,367.992,327.453,369.261,324.828,369.261z"/>
</g>
<path style="fill:#DBD9DC;" d="M99.518,336.12c2.458,3.573,5.336,6.878,8.615,9.826c5.583,5.022,12.282,10.491,19.817,15.989
	l12.518-11.045c-8.613-6.063-15.917-12.022-21.473-17.02c-8.57-7.709-13.423-18.655-13.423-30.182v-10.803
	c0.498-4.643,0.551-9.463,0-14.531c0,0,96.014-131.562,87.3-186.22c-3.73-23.399-32.279-38.723-71.059-39.589
	C89.794,51.829,52.185,60.733,19.482,84.59C7.088,93.63,0,108.286,0,123.627v318.662c0,3.19,0.957,5.997,2.529,8.287
	c11.131-52.031,56.625-81.046,83.428-114.844C89.512,331.249,96.276,331.407,99.518,336.12z"/>
<path style="fill:#EDEBED;" d="M270.645,254.942l-31.435-50.295c-2.421-3.872-3.704-8.346-3.704-12.912v-18.509
	c0-4.566-1.283-9.04-3.704-12.912l-38.312-59.042l0,0c-0.473,52.961-71.668,115.083-71.668,115.083c-2.543-0.9-5.28-1.39-8.131-1.39
	c-13.455,0-24.363,10.908-24.363,24.363v16.242c0,10.58,6.814,19.427,16.242,22.787v25.334c0,11.527,4.854,22.473,13.423,30.182
	c16.451,14.798,47.136,37.895,87.099,47.809c12.241,3.037,24.878-3.672,28.96-15.604c1.957-5.721,4.148-12.706,6.394-20.954
	c1.423-5.219,5.389-9.414,10.521-11.125l3.556-1.185c5.726-1.909,7.443-9.178,3.174-13.447l-6.951-6.95l8.275-8.275
	c3.92-3.919,2.848-10.527-2.111-13.006l-6.164-3.082v-16.933l14.578-4.169C271.312,265.288,273.43,259.399,270.645,254.942z"/>
<path style="fill:#DBD9DC;" d="M157.7,208.357c-3.648,2.601-4.489,7.661-1.887,11.317c1.578,2.221,4.076,3.402,6.614,3.402
	c1.634,0,3.275-0.484,4.703-1.499c0.296-0.207,27.46-19.534,60.869-21.567c4.197-0.255,7.455-3.766,7.504-7.971l0,0
	c0.056-4.763-3.994-8.528-8.748-8.234C188.698,186.156,159.041,207.399,157.7,208.357z"/>
<path style="fill:#C9C6CA;" d="M219.265,223.084h-24.363c-4.489,0-8.121,3.632-8.121,8.121s3.632,8.121,8.121,8.121h8.121
	c0,4.489,3.632,8.121,8.121,8.121s8.121-3.632,8.121-8.121c4.489,0,8.121-3.632,8.121-8.121S223.753,223.084,219.265,223.084z"/>
<g>
	<path style="fill:#EDEBED;" d="M132.147,168.435c-1.824,0-3.664-0.611-5.179-1.872c-3.45-2.863-3.926-7.978-1.063-11.436
		c1.927-2.324,3.934-4.679,6.027-7.082c2.958-3.386,8.089-3.719,11.46-0.785c3.378,2.95,3.735,8.081,0.785,11.46
		c-1.999,2.292-3.926,4.552-5.773,6.781C136.802,167.435,134.487,168.435,132.147,168.435z"/>
	<path style="fill:#EDEBED;" d="M16.25,361.14c-2.308,0-4.6-0.975-6.21-2.879c-2.895-3.426-2.466-8.549,0.96-11.444
		c42.865-36.235,51.287-62.073,61.034-91.995c6.915-21.222,14.751-45.268,35.529-75.539c2.538-3.712,7.597-4.639,11.285-2.102
		c3.704,2.538,4.639,7.59,2.102,11.285c-19.446,28.344-26.575,50.224-33.467,71.383c-10.088,30.937-19.604,60.153-65.998,99.37
		C19.961,360.513,18.098,361.14,16.25,361.14z"/>
</g>
<path style="fill:#DBD9DC;" d="M245.028,273.363c-5.015,1.675-5.503,8.576-0.774,10.941l7.494,3.747v-16.933L245.028,273.363z"/>
<g>
</g>
<g>
</g>
<g>
</g>
<g>
</g>
<g>
</g>
<g>
</g>
<g>
</g>
<g>
</g>
<g>
</g>
<g>
</g>
<g>
</g>
<g>
</g>
<g>
</g>
<g>
</g>
<g>
</g>
</svg>
