<?xml version="1.0" encoding="iso-8859-1"?>
<!-- Generator: Adobe Illustrator 19.0.0, SVG Export Plug-In . SVG Version: 6.00 Build 0)  -->
<svg version="1.1" id="Capa_1" xmlns="http://www.w3.org/2000/svg" xmlns:xlink="http://www.w3.org/1999/xlink" x="0px" y="0px"
	 viewBox="0 0 512 512" style="enable-background:new 0 0 512 512;" xml:space="preserve">
<g>
	<path style="fill:#D1F4FF;" d="M142.859,456.336c-4.422,0-8-3.578-8-8v-71.195H63.664c-4.422,0-8-3.578-8-8s3.578-8,8-8h79.195
		c4.422,0,8,3.578,8,8v79.195C150.859,452.758,147.281,456.336,142.859,456.336z"/>
	<path style="fill:#D1F4FF;" d="M448.336,150.859h-79.195c-4.422,0-8-3.578-8-8V63.664c0-4.422,3.578-8,8-8s8,3.578,8,8v71.195
		h71.195c4.422,0,8,3.578,8,8S452.758,150.859,448.336,150.859z"/>
	<path style="fill:#D1F4FF;" d="M256,104c-2.047,0-4.094-0.781-5.656-2.344l-56-56c-3.125-3.125-3.125-8.188,0-11.313
		s8.188-3.125,11.313,0L256,84.688l50.344-50.344c3.125-3.125,8.188-3.125,11.313,0s3.125,8.188,0,11.313l-56,56
		C260.094,103.219,258.047,104,256,104z"/>
	<path style="fill:#D1F4FF;" d="M312,480c-2.047,0-4.094-0.781-5.656-2.344L256,427.313l-50.344,50.344
		c-3.125,3.125-8.188,3.125-11.313,0s-3.125-8.188,0-11.313l56-56c3.125-3.125,8.188-3.125,11.313,0l56,56
		c3.125,3.125,3.125,8.188,0,11.313C316.094,479.219,314.047,480,312,480z"/>
	<path style="fill:#D1F4FF;" d="M472,320c-2.047,0-4.094-0.781-5.656-2.344l-56-56c-3.125-3.125-3.125-8.188,0-11.313l56-56
		c3.125-3.125,8.188-3.125,11.313,0s3.125,8.188,0,11.313L427.313,256l50.344,50.344c3.125,3.125,3.125,8.188,0,11.313
		C476.094,319.219,474.047,320,472,320z"/>
	<path style="fill:#D1F4FF;" d="M40,320c-2.047,0-4.094-0.781-5.656-2.344c-3.125-3.125-3.125-8.188,0-11.313L84.688,256
		l-50.344-50.344c-3.125-3.125-3.125-8.188,0-11.313s8.188-3.125,11.313,0l56,56c3.125,3.125,3.125,8.188,0,11.313l-56,56
		C44.094,319.219,42.047,320,40,320z"/>
	<path style="fill:#D1F4FF;" d="M369.141,456.336c-4.422,0-8-3.578-8-8v-79.195c0-4.422,3.578-8,8-8h79.195c4.422,0,8,3.578,8,8
		s-3.578,8-8,8h-71.195v71.195C377.141,452.758,373.563,456.336,369.141,456.336z"/>
	<path style="fill:#D1F4FF;" d="M142.859,150.859H63.664c-4.422,0-8-3.578-8-8s3.578-8,8-8h71.195V63.664c0-4.422,3.578-8,8-8
		s8,3.578,8,8v79.195C150.859,147.281,147.281,150.859,142.859,150.859z"/>
</g>
<path style="fill:#6BDCFF;" d="M504,248H275.313L437.016,86.297c3.125-3.125,3.125-8.188,0-11.313s-8.188-3.125-11.313,0
	L264,236.688V8c0-4.422-3.578-8-8-8s-8,3.578-8,8v228.688L86.297,74.984c-3.125-3.125-8.188-3.125-11.313,0s-3.125,8.188,0,11.313
	L236.688,248H8c-4.422,0-8,3.578-8,8s3.578,8,8,8h228.688L74.984,425.703c-3.125,3.125-3.125,8.188,0,11.313
	c1.563,1.563,3.609,2.344,5.656,2.344s4.094-0.781,5.656-2.344L248,275.313V504c0,4.422,3.578,8,8,8s8-3.578,8-8V275.313
	l161.703,161.703c1.563,1.563,3.609,2.344,5.656,2.344s4.094-0.781,5.656-2.344c3.125-3.125,3.125-8.188,0-11.313L275.313,264H504
	c4.422,0,8-3.578,8-8S508.422,248,504,248z"/>
<path style="fill:#00C3FF;" d="M256,376c-1.039,0-2.078-0.203-3.063-0.609l-79.195-32.805c-1.961-0.813-3.516-2.367-4.328-4.328
	l-32.805-79.195c-0.813-1.961-0.813-4.164,0-6.125l32.805-79.195c0.813-1.961,2.367-3.516,4.328-4.328l79.195-32.805
	c1.969-0.813,4.156-0.813,6.125,0l79.195,32.805c1.961,0.813,3.516,2.367,4.328,4.328l32.805,79.195
	c0.813,1.961,0.813,4.164,0,6.125l-32.805,79.195c-0.813,1.961-2.367,3.516-4.328,4.328l-79.195,32.805
	C258.078,375.797,257.039,376,256,376z M182.93,329.07L256,359.344l73.07-30.273L359.344,256l-30.273-73.07L256,152.656
	l-73.07,30.273L152.656,256L182.93,329.07z"/>
<g>
</g>
<g>
</g>
<g>
</g>
<g>
</g>
<g>
</g>
<g>
</g>
<g>
</g>
<g>
</g>
<g>
</g>
<g>
</g>
<g>
</g>
<g>
</g>
<g>
</g>
<g>
</g>
<g>
</g>
</svg>
