<?xml version="1.0" encoding="iso-8859-1"?>
<!-- Generator: Adobe Illustrator 19.0.0, SVG Export Plug-In . SVG Version: 6.00 Build 0)  -->
<svg version="1.1" id="Capa_1" xmlns="http://www.w3.org/2000/svg" xmlns:xlink="http://www.w3.org/1999/xlink" x="0px" y="0px"
	 viewBox="0 0 512 512" style="enable-background:new 0 0 512 512;" xml:space="preserve">
<g>
	<path style="fill:#E6A078;" d="M428.698,223.715l-62.984,16.254c0,0,34.54,75.683,32.508,105.651
		c-2.748,40.542-24.381,89.397-24.381,89.397h-4.538c-6.996,0-13.208,4.477-15.42,11.114l-2.297,6.892
		c-1.046,3.136,1.289,6.375,4.595,6.375h30.686c1.955,0,3.719-1.176,4.471-2.981l39.393-94.543L428.698,223.715z"/>
	<path style="fill:#E6A078;" d="M248.232,446.13l-2.297,6.892c-1.046,3.136,1.289,6.375,4.595,6.375h36.784
		c2.831,0,5.059-2.418,4.827-5.24l-7.697-93.808l-26.413-96l-36.571,4.063c26.921,66.032,46.73,166.603,46.73,166.603h-4.538
		C256.656,435.016,250.445,439.493,248.232,446.13z"/>
</g>
<path style="fill:#FFB47D;" d="M503.873,304.984c-2.079,0-4.159-0.794-5.746-2.381l-0.984-0.984
	c-6.143-6.147-9.524-14.31-9.524-22.988v-37.52c0-8.175-4.056-15.754-10.857-20.286l-34.286-22.857
	c-3.738-2.488-4.746-7.536-2.254-11.27c2.476-3.734,7.524-4.754,11.27-2.254l34.286,22.857c11.333,7.548,18.095,20.187,18.095,33.81
	v37.52c0,4.337,1.69,8.421,4.762,11.496l0.984,0.984c3.175,3.175,3.175,8.317,0,11.492
	C508.032,304.191,505.952,304.984,503.873,304.984z"/>
<path style="fill:#FFC88C;" d="M476.825,321.301c-3.56-5.341-5.46-11.616-5.46-18.035v-87.678c0-46.73-51.81-70.095-77.206-92.444
	c-30.054-26.447-46.73-59.937-80.254-59.937c-25.7,0-29.46,22.349-45.714,36.571c-26.151,22.882-44.058,31.958-68.064,48.762
	c-15.517,10.862-22.87,23.83-26.349,33.944c-3.439,9.994-12.606,16.85-23.176,16.85h-4.316c-17.954,0-32.508-14.554-32.508-32.508
	V53.048H75.115c-6.466,0-12.668,2.569-17.24,7.141l-9.113,9.113l-28.389,4.732C8.616,75.993,0,86.164,0,98.083v3.727
	c0,4.488,3.639,8.127,8.127,8.127h64.339v70.429c0,45.39,45.613,87.712,114.265,87.741c4.559,0.002,8.316,3.549,8.316,8.108v158.801
	h-4.539c-6.996,0-13.207,4.477-15.419,11.113l-1.034,3.102c-1.667,5.001,2.055,10.166,7.327,10.166h30.855
	c4.052,0,7.415-3.131,7.704-7.173l12.131-169.835c42.491-0.505,116.282-9.676,166.51-44.866l4.282,19.262
	c2.315,10.413,6.081,20.448,11.189,29.813l41.059,75.274v73.143h-4.539c-6.996,0-13.207,4.477-15.419,11.113l-1.034,3.102
	c-1.667,5.001,2.055,10.166,7.327,10.166h30.821c4.066,0,7.436-3.152,7.706-7.209l7.289-109.336c0.232-3.476-0.69-6.931-2.622-9.829
	L476.825,321.301z"/>
<path style="fill:#4B3F4E;" d="M74.159,86.318h-3.302c-4.492,0-8.127-3.639-8.127-8.127s3.635-8.127,8.127-8.127h3.302
	c4.492,0,8.127,3.639,8.127,8.127S78.651,86.318,74.159,86.318z"/>
<g>
	<path style="fill:#FFB47D;" d="M96.046,64.554l7.143,11.035c2.119,3.274,6.624,3.959,9.62,1.462l13.907-11.59
		c1.943-1.619,2.081-4.567,0.237-6.298c-4.454-4.18-13.763-9.884-28.068-4.115C95.177,56.544,93.873,61.197,96.046,64.554z"/>
	<path style="fill:#FFB47D;" d="M170.667,239.968L170.667,239.968c-40.396,0-73.143-32.747-73.143-73.143v-32.508
		c0-13.465-10.916-24.381-24.381-24.381h-0.677v70.429c0,45.39,45.613,87.712,114.266,87.742c3.289,0.001,6.109,1.884,7.454,4.625
		c0.553-0.164,0.861-0.256,0.861-0.256v-8.127C195.048,250.884,184.132,239.968,170.667,239.968z"/>
	<path style="fill:#FFB47D;" d="M32.508,93.683v-8.127c0-4.662-1.019-9.072-2.786-13.08l-9.349,1.558
		C8.617,75.993,0,86.164,0,98.083v3.727c0,4.488,3.639,8.127,8.127,8.127h19.872C30.792,105.139,32.508,99.634,32.508,93.683z"/>
	<path style="fill:#FFB47D;" d="M232.071,271.443v10.946c42.491-0.505,116.282-9.676,166.51-44.866l-0.16-1.733
		c-0.767-8.296-9.13-13.478-16.993-10.722c-42.566,14.921-96.543,20.2-126.567,22.049
		C242.024,247.908,232.071,258.582,232.071,271.443z"/>
</g>
<g>
</g>
<g>
</g>
<g>
</g>
<g>
</g>
<g>
</g>
<g>
</g>
<g>
</g>
<g>
</g>
<g>
</g>
<g>
</g>
<g>
</g>
<g>
</g>
<g>
</g>
<g>
</g>
<g>
</g>
</svg>
