<?xml version="1.0" encoding="iso-8859-1"?>
<!-- Generator: Adobe Illustrator 19.0.0, SVG Export Plug-In . SVG Version: 6.00 Build 0)  -->
<svg version="1.1" id="Capa_1" xmlns="http://www.w3.org/2000/svg" xmlns:xlink="http://www.w3.org/1999/xlink" x="0px" y="0px"
	 viewBox="0 0 512 512" style="enable-background:new 0 0 512 512;" xml:space="preserve">
<circle style="fill:#EDEBED;" cx="255.96" cy="371.61" r="140.39"/>
<path style="fill:#DBD9DC;" d="M301.375,466.581c-77.534,0-140.387-62.853-140.387-140.387c0-27.122,7.822-52.359,21.142-73.826
	c-39.901,24.759-66.561,68.834-66.561,119.245c0,77.534,62.853,140.387,140.387,140.387c50.412,0,94.487-26.66,119.245-66.561
	C353.734,458.759,328.497,466.581,301.375,466.581z"/>
<circle style="fill:#EDEBED;" cx="255.96" cy="181.68" r="99.1"/>
<path style="fill:#DBD9DC;" d="M288.016,248.713c-54.73,0-99.097-44.367-99.097-99.097c0-19.145,5.521-36.96,14.923-52.113
	c-28.166,17.477-46.984,48.588-46.984,84.173c0,54.73,44.367,99.097,99.097,99.097c35.585,0,66.697-18.819,84.173-46.984
	C324.976,243.192,307.161,248.713,288.016,248.713z"/>
<g>
	<path style="fill:#8B534F;" d="M154.52,299.702l-47.121-47.02v-29.714c0-4.565-3.694-8.258-8.258-8.258
		c-4.565,0-8.258,3.694-8.258,8.258v13.233L71.851,217.21c-3.226-3.21-8.452-3.226-11.677,0.016
		c-3.218,3.226-3.218,8.452,0.016,11.677l18.879,18.839h-12.96c-4.565,0-8.258,3.694-8.258,8.258c0,4.564,3.694,8.258,8.258,8.258
		H95.62l47.238,47.137c1.613,1.605,3.718,2.411,5.831,2.411s4.234-0.806,5.847-2.427
		C157.754,308.153,157.754,302.927,154.52,299.702z"/>
	<path style="fill:#8B534F;" d="M445.891,247.742h-12.94l18.867-18.847c3.226-3.218,3.226-8.452,0-11.677
		c-3.226-3.226-8.452-3.226-11.677,0l-19.024,19.004v-13.254c0-4.565-3.694-8.258-8.258-8.258c-4.565,0-8.258,3.694-8.258,8.258
		v29.752l-47.04,46.99c-3.226,3.218-3.226,8.452,0,11.677c1.613,1.613,3.726,2.419,5.839,2.419c2.113,0,4.226-0.806,5.839-2.419
		l47.18-47.129h29.473c4.565,0,8.258-3.694,8.258-8.258S450.456,247.742,445.891,247.742z"/>
</g>
<path style="fill:#5D5360;" d="M256.044,247.742c-10.21,0-20.121-3.274-29.468-9.718c-3.75-2.589-4.694-7.734-2.105-11.492
	c2.589-3.758,7.726-4.685,11.492-2.105c13.048,9.008,27.056,9.016,40.169,0c3.75-2.589,8.887-1.645,11.484,2.113
	c2.589,3.75,1.645,8.895-2.113,11.484C276.157,244.476,266.238,247.742,256.044,247.742z"/>
<path style="fill:#AF6E5A;" d="M316.194,30.498C314.87,13.289,300.52,0,283.259,0h-54.435c-17.261,0-31.611,13.289-32.935,30.498
	l-5.912,76.856h132.129L316.194,30.498z"/>
<g>
	<circle style="fill:#8B534F;" cx="255.96" cy="363.36" r="16.516"/>
	<circle style="fill:#8B534F;" cx="255.96" cy="437.68" r="16.516"/>
</g>
<path style="fill:#4B3F4E;" d="M214.665,198.194L214.665,198.194c-9.122,0-16.516-7.395-16.516-16.516v-8.258
	c0-9.122,7.395-16.516,16.516-16.516l0,0c9.122,0,16.516,7.395,16.516,16.516v8.258
	C231.181,190.799,223.787,198.194,214.665,198.194z"/>
<path style="fill:#5D5360;" d="M214.665,156.903v24.774c0,4.56,3.697,8.258,8.258,8.258s8.258-3.698,8.258-8.258v-8.258
	C231.181,164.297,223.787,156.903,214.665,156.903z"/>
<circle style="fill:#FFFFFF;" cx="214.66" cy="173.42" r="8.258"/>
<path style="fill:#4B3F4E;" d="M297.246,198.194L297.246,198.194c-9.122,0-16.516-7.395-16.516-16.516v-8.258
	c0-9.122,7.395-16.516,16.516-16.516l0,0c9.122,0,16.516,7.395,16.516,16.516v8.258
	C313.762,190.799,306.368,198.194,297.246,198.194z"/>
<path style="fill:#5D5360;" d="M297.246,156.903v24.774c0,4.56,3.697,8.258,8.258,8.258s8.258-3.698,8.258-8.258v-8.258
	C313.762,164.297,306.367,156.903,297.246,156.903z"/>
<circle style="fill:#FFFFFF;" cx="297.25" cy="173.42" r="8.258"/>
<path style="fill:#8B534F;" d="M270.028,0h-41.204c-17.261,0-31.611,13.289-32.935,30.498l-5.912,76.856h41.204l5.912-76.856
	C238.417,13.289,252.768,0,270.028,0z"/>
<polygon style="fill:#5D5360;" points="189.977,107.355 322.106,107.355 320.201,82.581 191.883,82.581 "/>
<polygon style="fill:#4B3F4E;" points="191.883,82.581 189.977,107.355 231.181,107.355 233.087,82.581 "/>
<path style="fill:#824646;" d="M256.044,123.871c-36.347,0-71.597-5.887-101.944-17.024c-4.282-1.565-6.476-6.315-4.903-10.597
	c1.573-4.274,6.29-6.476,10.597-4.903c28.54,10.468,61.823,16.008,96.25,16.008c34.419,0,67.702-5.54,96.25-16.008
	c4.306-1.581,9.024,0.629,10.597,4.903c1.573,4.282-0.621,9.032-4.903,10.597C327.633,117.984,292.383,123.871,256.044,123.871z"/>
<g>
</g>
<g>
</g>
<g>
</g>
<g>
</g>
<g>
</g>
<g>
</g>
<g>
</g>
<g>
</g>
<g>
</g>
<g>
</g>
<g>
</g>
<g>
</g>
<g>
</g>
<g>
</g>
<g>
</g>
</svg>
