<?xml version="1.0" encoding="iso-8859-1"?>
<!-- Generator: Adobe Illustrator 19.0.0, SVG Export Plug-In . SVG Version: 6.00 Build 0)  -->
<svg version="1.1" id="Capa_1" xmlns="http://www.w3.org/2000/svg" xmlns:xlink="http://www.w3.org/1999/xlink" x="0px" y="0px"
	 viewBox="0 0 511.999 511.999" style="enable-background:new 0 0 511.999 511.999;" xml:space="preserve">
<path style="fill:#AF6E5A;" d="M503.873,335.207c-2.27,0-4.532-0.948-6.143-2.806c-1.341-1.552-32.746-38.54-15.167-83.96
	c16.619-42.948,3.198-68.067-6.278-79.222c-11.127-13.087-25.968-18.313-34.23-16.552c-4.373,0.913-8.698-1.885-9.627-6.278
	c-0.929-4.393,1.889-8.702,6.278-9.627c15.651-3.31,36.198,5.73,49.96,21.933c11.825,13.905,28.714,44.814,9.056,95.611
	c-14.087,36.405,12.024,67.147,12.294,67.452c2.936,3.389,2.571,8.524-0.817,11.464
	C507.659,334.553,505.762,335.207,503.873,335.207z"/>
<path style="fill:#C0826C;" d="M471.365,198.572c-0.858-16.232-14.222-60.444-51.81-72.635
	c-55.746-18.08-126.307,24.381-249.566-0.678l-40.782-15.338c-21.671-8.151-46.116-2.553-62.08,14.217L4.435,189.993
	c-3.845,4.073-5.322,9.84-3.908,15.26l3.679,14.103c1.897,7.273,8.598,12.303,16.114,12.167c25.274-0.456,44.007-2.846,57.963-6.199
	c35.556,53.028,89.337,84.487,89.337,84.487l1.016,106.667l-23.852,5.963c-5.391,1.348-9.72,5.356-11.477,10.628l-2.333,6.999
	c-1.462,4.387,1.803,8.917,6.427,8.917h30.663c5.435,0,10.51-2.716,13.524-7.238l8.398-12.597c1.996-2.994,3.304-6.392,3.831-9.951
	l16.62-96.813c60.861,25.306,140.913,10.049,198.909-16.479l32.56,61.808v47.068l-19.719,7.251
	c-4.853,1.618-8.662,5.426-10.28,10.28l-2.585,7.754c-1.462,4.387,1.803,8.917,6.427,8.917h28.682
	c6.483,0,12.346-3.852,14.919-9.803l8.677-20.066c2.202-5.092,3.338-10.581,3.338-16.128v-53.161c0-4.135-0.787-8.19-2.312-12.034
	c-4.488-11.307-13.942-38.069-13.942-62.861C455.111,245.811,473.397,237.006,471.365,198.572z"/>
<path style="fill:#F5DCB4;" d="M45.672,66.412c-2.128,20.27,1.124,54.627,43.273,68.337c3.057,0.994,6.443,0.319,8.945-1.7
	c3.839-3.096,9.164-8.593,11.704-16.672c1.641-5.22-1.893-10.585-7.217-11.852c-18.496-4.403-39.699-16.118-49.387-39.112
	C51.443,61.74,46.088,62.448,45.672,66.412z"/>
<path style="fill:#AF6E5A;" d="M103.606,113.308l0.738,12.014c0.567,9.237,8.45,15.392,17.533,13.616
	c10.725-2.097,23.913-6.863,30.736-17.67c1.755-2.779,0.427-6.478-2.619-7.711c-6.394-2.589-18.98-6.37-39.373-7.277
	C106.656,106.104,103.363,109.348,103.606,113.308z"/>
<g>
	<path style="fill:#4B3F4E;" d="M168.635,416.477l-23.852,5.963c-5.391,1.348-9.72,5.356-11.478,10.628l-2.333,7
		c-1.462,4.387,1.803,8.918,6.427,8.918h30.663c5.435,0,10.509-2.716,13.524-7.238l7.951-11.927L168.635,416.477z"/>
	<path style="fill:#4B3F4E;" d="M415.749,448.985h28.682c6.483,0,12.346-3.852,14.919-9.803l4.23-9.781l-21.675-14.618
		l-19.719,7.251c-4.853,1.618-8.662,5.426-10.28,10.28l-2.585,7.753C407.859,444.455,411.125,448.985,415.749,448.985z"/>
	<circle style="fill:#4B3F4E;" cx="73.08" cy="164.699" r="8.127"/>
</g>
<g>
	<path style="fill:#AF6E5A;" d="M157.46,265.112c-8.596-8.596-27.201-31.281-38.931-53.597c-2.743-5.219-9.838-6.429-14.03-2.282
		c-5.622,5.563-14.238,12.116-26.218,16.091c35.556,53.028,89.337,84.487,89.337,84.487
		C167.619,280.35,163.217,270.869,157.46,265.112z"/>
	<path style="fill:#AF6E5A;" d="M409.345,305.907l-6.543-15.532c-3.252-7.72-11.832-11.687-19.814-9.147
		c-57.395,18.266-122.758,13.879-151.448,10.614c-8.43-0.959-16.124,4.742-17.732,13.073l-3.372,17.471
		C271.298,347.692,351.349,332.436,409.345,305.907z"/>
	<path style="fill:#AF6E5A;" d="M49.439,195.017c-8.047-7.737-16.42-19.287-21.533-29.886L4.435,189.993
		c-3.845,4.073-5.322,9.84-3.908,15.26l3.679,14.103c1.897,7.273,8.598,12.303,16.114,12.167c16.058-0.29,29.455-1.365,40.685-2.967
		C64.677,216.35,58.243,203.482,49.439,195.017z"/>
</g>
<path style="fill:#EBC9A0;" d="M104.824,125.017C60.17,114.774,49.227,85.659,47.766,63.384c-1.086,0.511-1.938,1.539-2.095,3.027
	c-2.128,20.27,1.125,54.627,43.273,68.337c3.057,0.995,6.442,0.319,8.944-1.699c2.235-1.803,4.928-4.523,7.328-7.99
	C105.087,125.034,104.954,125.047,104.824,125.017z"/>
<path style="fill:#8B534F;" d="M0.527,205.252l1.427,5.47c6.748-1.944,11.592-7.003,11.592-12.997c0-4.286-2.516-8.07-6.387-10.617
	l-2.723,2.884C0.59,194.066-0.887,199.832,0.527,205.252z"/>
<g>
</g>
<g>
</g>
<g>
</g>
<g>
</g>
<g>
</g>
<g>
</g>
<g>
</g>
<g>
</g>
<g>
</g>
<g>
</g>
<g>
</g>
<g>
</g>
<g>
</g>
<g>
</g>
<g>
</g>
</svg>
