<?xml version="1.0" encoding="iso-8859-1"?>
<!-- Generator: Adobe Illustrator 19.0.0, SVG Export Plug-In . SVG Version: 6.00 Build 0)  -->
<svg version="1.1" id="Capa_1" xmlns="http://www.w3.org/2000/svg" xmlns:xlink="http://www.w3.org/1999/xlink" x="0px" y="0px"
	 viewBox="0 0 512 512" style="enable-background:new 0 0 512 512;" xml:space="preserve">
<path style="fill:#EDEBED;" d="M412.903,128c-0.141,0-0.276,0.021-0.415,0.021C408.23,63.468,354.663,12.387,289.032,12.387
	c-37.692,0-71.387,16.892-94.107,43.452c-6.95-1.413-14.139-2.161-21.506-2.161c-49.339,0-90.797,33.327-103.361,78.667
	C29.502,144.759,0,182.474,0,227.097c0,54.729,44.367,99.097,99.097,99.097h313.806c54.73,0,99.097-44.367,99.097-99.097
	S467.633,128,412.903,128z"/>
<path style="fill:#DBD9DC;" d="M404.645,293.161H201.507c-54.679,0-101.554-42.86-102.398-97.533
	c-0.635-41.122,23.809-76.549,59.01-92.131c7.789-3.448,14.118-9.401,17.563-17.191c4.913-11.11,11.418-21.358,19.208-30.474
	c-6.938-1.408-14.116-2.156-21.471-2.156c-49.339,0-90.797,33.327-103.361,78.667C28.762,144.985-1.074,183.859,0.03,229.548
	c1.311,54.312,47.976,96.646,102.303,96.646h302.312c9.122,0,16.516-7.395,16.516-16.516l0,0
	C421.161,300.556,413.767,293.161,404.645,293.161z"/>
<path style="fill:#D1F4FF;" d="M94.258,474.839l10.677-10.677c3.226-3.226,3.226-8.452,0-11.677s-8.452-3.226-11.677,0
	l-10.677,10.677l-10.677-10.677c-3.226-3.226-8.452-3.226-11.677,0s-3.226,8.452,0,11.677l10.677,10.677l-10.677,10.677
	c-3.226,3.226-3.226,8.452,0,11.677c1.613,1.613,3.726,2.419,5.839,2.419c2.113,0,4.226-0.806,5.839-2.419l10.677-10.677
	l10.677,10.677c1.613,1.613,3.726,2.419,5.839,2.419s4.226-0.806,5.839-2.419c3.226-3.226,3.226-8.452,0-11.677L94.258,474.839z"/>
<path style="fill:#B2EDFF;" d="M132.129,388.129h-12.387v-12.387c0-4.565-3.694-8.258-8.258-8.258s-8.258,3.694-8.258,8.258v12.387
	H90.839c-4.565,0-8.258,3.694-8.258,8.258s3.694,8.258,8.258,8.258h12.387v12.387c0,4.565,3.694,8.258,8.258,8.258
	s8.258-3.694,8.258-8.258v-12.387h12.387c4.565,0,8.258-3.694,8.258-8.258S136.694,388.129,132.129,388.129z"/>
<path style="fill:#D1F4FF;" d="M222.968,388.129h-12.387v-12.387c0-4.565-3.694-8.258-8.258-8.258s-8.258,3.694-8.258,8.258v12.387
	h-12.387c-4.565,0-8.258,3.694-8.258,8.258s3.694,8.258,8.258,8.258h12.387v12.387c0,4.565,3.694,8.258,8.258,8.258
	s8.258-3.694,8.258-8.258v-12.387h12.387c4.565,0,8.258-3.694,8.258-8.258S227.532,388.129,222.968,388.129z"/>
<path style="fill:#B2EDFF;" d="M313.806,388.129h-12.387v-12.387c0-4.565-3.694-8.258-8.258-8.258s-8.258,3.694-8.258,8.258v12.387
	h-12.387c-4.565,0-8.258,3.694-8.258,8.258s3.694,8.258,8.258,8.258h12.387v12.387c0,4.565,3.694,8.258,8.258,8.258
	s8.258-3.694,8.258-8.258v-12.387h12.387c4.565,0,8.258-3.694,8.258-8.258S318.371,388.129,313.806,388.129z"/>
<path style="fill:#D1F4FF;" d="M404.645,388.129h-12.387v-12.387c0-4.565-3.694-8.258-8.258-8.258s-8.258,3.694-8.258,8.258v12.387
	h-12.387c-4.565,0-8.258,3.694-8.258,8.258s3.694,8.258,8.258,8.258h12.387v12.387c0,4.565,3.694,8.258,8.258,8.258
	s8.258-3.694,8.258-8.258v-12.387h12.387c4.565,0,8.258-3.694,8.258-8.258S409.21,388.129,404.645,388.129z"/>
<path style="fill:#B2EDFF;" d="M176.839,474.839l10.677-10.677c3.226-3.226,3.226-8.452,0-11.677s-8.452-3.226-11.677,0
	l-10.677,10.677l-10.677-10.677c-3.226-3.226-8.452-3.226-11.677,0c-3.226,3.226-3.226,8.452,0,11.677l10.677,10.677l-10.677,10.677
	c-3.226,3.226-3.226,8.452,0,11.677c1.613,1.613,3.726,2.419,5.839,2.419s4.226-0.806,5.839-2.419l10.677-10.677l10.677,10.677
	c1.613,1.613,3.726,2.419,5.839,2.419s4.226-0.806,5.839-2.419c3.226-3.226,3.226-8.452,0-11.677L176.839,474.839z"/>
<path style="fill:#D1F4FF;" d="M259.419,474.839l10.677-10.677c3.226-3.226,3.226-8.452,0-11.677s-8.452-3.226-11.677,0
	l-10.677,10.677l-10.677-10.677c-3.226-3.226-8.452-3.226-11.677,0c-3.226,3.226-3.226,8.452,0,11.677l10.677,10.677l-10.677,10.677
	c-3.226,3.226-3.226,8.452,0,11.677c1.613,1.613,3.726,2.419,5.839,2.419s4.226-0.806,5.839-2.419l10.677-10.677l10.677,10.677
	c1.613,1.613,3.726,2.419,5.839,2.419c2.113,0,4.226-0.806,5.839-2.419c3.226-3.226,3.226-8.452,0-11.677L259.419,474.839z"/>
<path style="fill:#B2EDFF;" d="M342,474.839l10.677-10.677c3.226-3.226,3.226-8.452,0-11.677c-3.226-3.226-8.452-3.226-11.677,0
	l-10.677,10.677l-10.677-10.677c-3.226-3.226-8.452-3.226-11.677,0s-3.226,8.452,0,11.677l10.677,10.677l-10.677,10.677
	c-3.226,3.226-3.226,8.452,0,11.677c1.613,1.613,3.726,2.419,5.839,2.419c2.113,0,4.226-0.806,5.839-2.419l10.677-10.677
	L341,497.194c1.613,1.613,3.726,2.419,5.839,2.419c2.113,0,4.226-0.806,5.839-2.419c3.226-3.226,3.226-8.452,0-11.677L342,474.839z"
	/>
<g>
</g>
<g>
</g>
<g>
</g>
<g>
</g>
<g>
</g>
<g>
</g>
<g>
</g>
<g>
</g>
<g>
</g>
<g>
</g>
<g>
</g>
<g>
</g>
<g>
</g>
<g>
</g>
<g>
</g>
</svg>
