<?xml version="1.0" encoding="iso-8859-1"?>
<!-- Generator: Adobe Illustrator 19.0.0, SVG Export Plug-In . SVG Version: 6.00 Build 0)  -->
<svg version="1.1" id="Capa_1" xmlns="http://www.w3.org/2000/svg" xmlns:xlink="http://www.w3.org/1999/xlink" x="0px" y="0px"
	 viewBox="0 0 512 512" style="enable-background:new 0 0 512 512;" xml:space="preserve">
<path style="fill:#5D5360;" d="M503.876,335.542c-2.072,0-4.135-0.79-5.715-2.369c-1.198-1.195-29.058-29.851-12.152-82.399
	c14.009-43.551,3.095-73.358-11.794-86.732c-10.437-9.374-23.684-11.858-35.415-6.643c-4.096,1.849-8.897-0.024-10.731-4.123
	c-1.818-4.103,0.024-8.905,4.127-10.727c17.771-7.897,37.526-4.389,52.885,9.401c18.676,16.779,32.796,52.857,16.406,103.801
	c-13.739,42.689,7.31,65.04,8.207,65.973c3.111,3.203,3.072,8.338-0.103,11.469C508.003,334.76,505.94,335.542,503.876,335.542z"/>
<path style="fill:#6F6571;" d="M473.43,200.941c0-20.488-25.399-62.481-62.988-74.672c-55.75-18.081-152.392,28.954-247.552-3.556
	l-91.435,12.191c0,20.713-51.13,52.214-67.53,62.008c-3.078,1.838-4.547,5.445-3.677,8.923l3.872,15.488
	c0.775,3.101,3.266,5.467,6.414,6.024c11.691,2.069,42.401,6.049,69.117-1.242c35.629,33.173,91.028,59.667,91.028,59.667v133.089
	l-23.853,5.963c-5.392,1.348-9.721,5.357-11.478,10.629l-2.296,6.889c-1.481,4.442,1.825,9.029,6.508,9.029h31.222
	c5.014,0,9.696-2.506,12.477-6.678l8.772-13.159c1.996-2.994,3.304-6.392,3.831-9.951l18.109-122.234
	c49.832,27.4,134.768,26.962,192.996,0.507l37.001,70.238v47.072l-19.72,7.251c-4.853,1.618-8.663,5.426-10.28,10.28l-2.548,7.643
	c-1.481,4.442,1.826,9.029,6.508,9.029h29.395c5.981,0,11.39-3.554,13.764-9.044l9.674-22.37c1.762-4.074,2.671-8.466,2.671-12.905
	v-58.015c0-2.128-0.396-4.188-1.212-6.154c-3.771-9.084-15.043-38.506-15.043-65.578C457.174,248.183,473.43,239.431,473.43,200.941
	z"/>
<path style="fill:#5D5360;" d="M119.723,147.199l-2.079,15.524c-0.804,6.006,3.08,11.701,9.012,12.939
	c9.625,2.008,24.772,2.44,40.08-8.094c2.935-2.02,3.738-5.989,1.688-8.904c-5.081-7.224-16.491-19.651-35.778-21.542
	C126.321,136.502,120.566,140.9,119.723,147.199z"/>
<path style="fill:#AEA8AF;" d="M177.282,85.298c-2.44-12.418-17.049-32.578-47.24-21.419c-2.16,0.799-3.684,3.846-0.003,3.589
	c9.494-0.663,19.42-0.737,22.353,9.528c7.45,26.076-37.59,34.542-57.57,36.235c-13.229,1.121-23.028,9.143-23.367,21.674
	c-0.167,6.187,6.149,13.454,17.947,14.673c17.78,1.836,36.841-3.078,43.236-5.487c0.038-0.014,0.075-0.028,0.113-0.042
	C147.989,138.291,183.378,116.321,177.282,85.298z"/>
<g>
	<path style="fill:#4B3F4E;" d="M139.558,451.371h31.222c5.014,0,9.696-2.506,12.477-6.678l8.772-13.159l-21.352-12.674
		l-23.853,5.963c-5.392,1.348-9.721,5.357-11.478,10.629l-2.296,6.889C131.57,446.784,134.876,451.371,139.558,451.371z"/>
	<path style="fill:#4B3F4E;" d="M443.967,417.168l-19.72,7.251c-4.853,1.618-8.663,5.426-10.28,10.28l-2.548,7.643
		c-1.481,4.442,1.826,9.029,6.508,9.029h29.394c5.981,0,11.39-3.554,13.764-9.044l5.469-12.647L443.967,417.168z"/>
</g>
<g>
	<path style="fill:#5D5360;" d="M79.65,226.105c35.629,33.173,91.028,59.667,91.028,59.667v-18.996
		c0-6.022-3.33-11.551-8.653-14.368l-49.338-26.106c-7.282-3.853-15.716-4.82-23.665-2.652
		C86.427,224.358,83.327,225.175,79.65,226.105z"/>
	<path style="fill:#5D5360;" d="M216.119,286.884l-2.148,12.467c49.832,27.4,134.768,26.962,192.996,0.507l-5.283-14.341
		c-2.748-7.461-10.462-11.88-18.264-10.351c-23.444,4.596-76.516,11.358-148.414-1.491
		C226.14,272.091,217.648,278.009,216.119,286.884z"/>
</g>
<circle style="fill:#4B3F4E;" cx="81.28" cy="175.03" r="8.128"/>
<path style="fill:#C9C6CA;" d="M130.042,63.879c-1.302,0.482-2.351,1.774-2.19,2.673c15.396-4.034,29.595-2.197,34.699,9.258
	c3.81,8.551,4.826,25.06-14.223,37.505c-17.27,11.283-54.099,10.159-58.264,36.3c17.59,1.65,36.258-3.146,42.573-5.526
	c0.038-0.014,0.075-0.028,0.113-0.042c15.239-5.757,50.628-27.727,44.532-58.75C174.842,72.88,160.233,52.72,130.042,63.879z"/>
<path style="fill:#5D5360;" d="M3.925,196.913c-3.078,1.838-4.547,5.445-3.677,8.923l3.872,15.488
	c0.775,3.101,3.266,5.467,6.414,6.024c7.31,1.293,22.056,3.334,38.61,2.9c-4.438-19.004-12.883-33.741-24.752-46.24
	C16.087,189.553,8.587,194.128,3.925,196.913z"/>
<path style="fill:#4B3F4E;" d="M11.175,200.433c0-2.329-1.204-4.431-3.134-6.005c-1.532,0.934-2.922,1.771-4.116,2.485
	c-3.078,1.838-4.547,5.445-3.677,8.923l0.823,3.294C6.757,208.593,11.175,204.927,11.175,200.433z"/>
<g>
</g>
<g>
</g>
<g>
</g>
<g>
</g>
<g>
</g>
<g>
</g>
<g>
</g>
<g>
</g>
<g>
</g>
<g>
</g>
<g>
</g>
<g>
</g>
<g>
</g>
<g>
</g>
<g>
</g>
</svg>
