<?xml version="1.0" encoding="iso-8859-1"?>
<!-- Generator: Adobe Illustrator 19.0.0, SVG Export Plug-In . SVG Version: 6.00 Build 0)  -->
<svg version="1.1" id="Capa_1" xmlns="http://www.w3.org/2000/svg" xmlns:xlink="http://www.w3.org/1999/xlink" x="0px" y="0px"
	 viewBox="0 0 512 512" style="enable-background:new 0 0 512 512;" xml:space="preserve">
<path style="fill:#EDEBED;" d="M412.903,120.649c-0.141,0-0.276,0.021-0.415,0.021C408.23,56.116,354.663,5.036,289.032,5.036
	c-37.692,0-71.387,16.892-94.107,43.452c-6.95-1.413-14.139-2.161-21.506-2.161c-49.339,0-90.797,33.327-103.361,78.667
	C29.502,137.407,0,175.122,0,219.745c0,54.729,44.367,99.097,99.097,99.097h313.806c54.73,0,99.097-44.367,99.097-99.097
	S467.633,120.649,412.903,120.649z"/>
<path style="fill:#DBD9DC;" d="M404.645,285.81H201.507c-54.679,0-101.554-42.86-102.398-97.533
	c-0.635-41.122,23.809-76.549,59.01-92.131c7.789-3.448,14.118-9.401,17.563-17.191c4.913-11.11,11.418-21.358,19.208-30.474
	c-6.938-1.408-14.116-2.156-21.471-2.156c-49.339,0-90.797,33.327-103.361,78.667C28.762,137.634-1.074,176.508,0.03,222.196
	c1.311,54.312,47.976,96.646,102.303,96.646h302.312c9.122,0,16.516-7.395,16.516-16.516l0,0
	C421.161,293.204,413.767,285.81,404.645,285.81z"/>
<path style="fill:#FFDC64;" d="M329.231,351.874h-48.457l16.516-33.032h-82.58l-21.338,56.9c-1.663,4.434,1.615,9.164,6.351,9.164
	h48.019l-44.343,118.249c-1.088,2.902,2.639,5.165,4.712,2.862L335.06,364.962C339.602,359.916,336.02,351.874,329.231,351.874z"/>
<g>
	<path style="fill:#FFC850;" d="M214.71,318.842l-21.338,56.9c-1.663,4.434,1.615,9.164,6.351,9.164h26.548l9.06-22.65
		c2.508-6.271,8.581-10.382,15.335-10.382h30.108l16.516-33.032H214.71z"/>
	<path style="fill:#FFC850;" d="M247.742,384.907l-44.343,118.249c-0.569,1.517,0.194,2.814,1.333,3.42l68.146-109.034
		c3.438-5.5-0.517-12.635-7.003-12.635H247.742z"/>
</g>
<g>
</g>
<g>
</g>
<g>
</g>
<g>
</g>
<g>
</g>
<g>
</g>
<g>
</g>
<g>
</g>
<g>
</g>
<g>
</g>
<g>
</g>
<g>
</g>
<g>
</g>
<g>
</g>
<g>
</g>
</svg>
