<?xml version="1.0" encoding="iso-8859-1"?>
<!-- Generator: Adobe Illustrator 19.0.0, SVG Export Plug-In . SVG Version: 6.00 Build 0)  -->
<svg version="1.1" id="Capa_1" xmlns="http://www.w3.org/2000/svg" xmlns:xlink="http://www.w3.org/1999/xlink" x="0px" y="0px"
	 viewBox="0 0 512 512" style="enable-background:new 0 0 512 512;" xml:space="preserve">
<path style="fill:#D1F4FF;" d="M101.004,512c-1.052,0-2.119-0.206-3.151-0.635c-4.135-1.746-6.075-6.508-4.337-10.643l13.687-32.508
	c1.742-4.143,6.5-6.064,10.647-4.341c4.135,1.746,6.075,6.508,4.337,10.643L108.5,507.024C107.19,510.135,104.175,512,101.004,512z"
	/>
<path style="fill:#B2EDFF;" d="M128.377,446.984c-1.052,0-2.119-0.206-3.151-0.635c-4.135-1.746-6.075-6.508-4.337-10.643
	l13.623-32.357c1.742-4.143,6.5-6.063,10.647-4.341c4.135,1.746,6.075,6.508,4.337,10.643l-13.623,32.357
	C134.564,445.119,131.548,446.984,128.377,446.984z"/>
<path style="fill:#D1F4FF;" d="M155.754,381.96c-1.052,0-2.119-0.206-3.151-0.635c-4.135-1.746-6.075-6.508-4.333-10.643
	l13.171-31.278c1.738-4.143,6.5-6.056,10.643-4.341c4.135,1.746,6.075,6.508,4.333,10.643l-13.171,31.278
	C161.94,380.095,158.925,381.96,155.754,381.96z"/>
<g>
	<path style="fill:#B2EDFF;" d="M157.31,512c-1.052,0-2.119-0.206-3.151-0.635c-4.135-1.746-6.075-6.508-4.337-10.643l13.687-32.508
		c1.742-4.143,6.504-6.064,10.647-4.341c4.135,1.746,6.075,6.508,4.337,10.643l-13.687,32.508
		C163.496,510.135,160.48,512,157.31,512z"/>
	<path style="fill:#B2EDFF;" d="M44.694,512c-1.052,0-2.119-0.206-3.151-0.635c-4.135-1.746-6.075-6.508-4.337-10.643l13.687-32.508
		c1.742-4.143,6.504-6.064,10.647-4.341c4.135,1.746,6.075,6.508,4.337,10.643L52.19,507.024C50.881,510.135,47.865,512,44.694,512z
		"/>
</g>
<path style="fill:#D1F4FF;" d="M72.067,446.984c-1.052,0-2.119-0.206-3.151-0.635c-4.135-1.746-6.075-6.508-4.333-10.643
	l13.627-32.357c1.738-4.143,6.496-6.063,10.643-4.341c4.135,1.746,6.075,6.508,4.333,10.643L79.56,442.008
	C78.254,445.119,75.238,446.984,72.067,446.984z"/>
<path style="fill:#B2EDFF;" d="M99.448,381.96c-1.052,0-2.119-0.206-3.151-0.635c-4.135-1.746-6.075-6.508-4.337-10.643
	l13.167-31.278c1.742-4.143,6.508-6.056,10.647-4.341c4.135,1.746,6.075,6.508,4.337,10.643l-13.167,31.278
	C105.635,380.095,102.619,381.96,99.448,381.96z"/>
<path style="fill:#D1F4FF;" d="M184.683,446.984c-1.052,0-2.119-0.206-3.151-0.635c-4.135-1.746-6.075-6.508-4.333-10.643
	l13.627-32.357c1.742-4.143,6.496-6.063,10.643-4.341c4.135,1.746,6.075,6.508,4.333,10.643l-13.627,32.357
	C190.869,445.119,187.853,446.984,184.683,446.984z"/>
<path style="fill:#B2EDFF;" d="M212.063,381.96c-1.052,0-2.119-0.206-3.151-0.635c-4.135-1.746-6.075-6.508-4.337-10.643
	l13.167-31.278c1.742-4.143,6.504-6.056,10.647-4.341c4.135,1.746,6.075,6.508,4.337,10.643l-13.167,31.278
	C218.25,380.095,215.234,381.96,212.063,381.96z"/>
<path style="fill:#D1F4FF;" d="M213.619,512c-1.052,0-2.119-0.206-3.151-0.635c-4.135-1.746-6.075-6.508-4.337-10.643l13.687-32.508
	c1.742-4.143,6.5-6.064,10.647-4.341c4.135,1.746,6.075,6.508,4.337,10.643l-13.687,32.508C219.806,510.135,216.79,512,213.619,512z
	"/>
<path style="fill:#B2EDFF;" d="M240.992,446.984c-1.052,0-2.119-0.206-3.151-0.635c-4.135-1.746-6.075-6.508-4.337-10.643
	l13.623-32.357c1.742-4.143,6.5-6.063,10.647-4.341c4.135,1.746,6.075,6.508,4.337,10.643l-13.623,32.357
	C247.179,445.119,244.163,446.984,240.992,446.984z"/>
<path style="fill:#D1F4FF;" d="M268.373,381.96c-1.056,0-2.127-0.206-3.151-0.635c-4.139-1.746-6.079-6.508-4.341-10.643
	l13.167-31.278c1.746-4.143,6.556-6.056,10.643-4.341c4.143,1.746,6.079,6.508,4.341,10.643l-13.167,31.278
	C274.556,380.095,271.54,381.96,268.373,381.96z"/>
<path style="fill:#B2EDFF;" d="M269.929,512c-1.056,0-2.127-0.206-3.151-0.635c-4.139-1.746-6.079-6.508-4.337-10.643l13.686-32.508
	c1.746-4.151,6.54-6.056,10.643-4.341c4.143,1.746,6.079,6.508,4.341,10.643l-13.69,32.508C276.111,510.135,273.095,512,269.929,512
	z"/>
<path style="fill:#D1F4FF;" d="M297.302,446.984c-1.056,0-2.127-0.206-3.151-0.635c-4.143-1.746-6.079-6.508-4.341-10.643
	l13.627-32.357c1.746-4.151,6.548-6.048,10.643-4.341c4.143,1.746,6.079,6.508,4.341,10.643l-13.627,32.357
	C303.484,445.119,300.468,446.984,297.302,446.984z"/>
<path style="fill:#B2EDFF;" d="M324.683,381.96c-1.056,0-2.127-0.206-3.151-0.635c-4.143-1.746-6.079-6.508-4.341-10.643
	l13.167-31.278c1.746-4.143,6.548-6.056,10.643-4.341c4.143,1.746,6.079,6.508,4.341,10.643l-13.167,31.278
	C330.865,380.095,327.849,381.96,324.683,381.96z"/>
<path style="fill:#D1F4FF;" d="M326.238,512c-1.056,0-2.127-0.206-3.151-0.635c-4.143-1.746-6.079-6.508-4.341-10.643l13.683-32.508
	c1.746-4.151,6.556-6.056,10.643-4.341c4.143,1.746,6.079,6.508,4.341,10.643l-13.683,32.508
	C332.421,510.135,329.405,512,326.238,512z"/>
<path style="fill:#B2EDFF;" d="M353.611,446.984c-1.056,0-2.127-0.206-3.151-0.635c-4.143-1.746-6.079-6.508-4.341-10.643
	l13.627-32.357c1.746-4.151,6.54-6.048,10.643-4.341c4.143,1.746,6.079,6.508,4.341,10.643l-13.627,32.357
	C359.794,445.119,356.778,446.984,353.611,446.984z"/>
<path style="fill:#D1F4FF;" d="M380.992,381.96c-1.056,0-2.127-0.206-3.151-0.635c-4.143-1.746-6.079-6.508-4.341-10.643
	l13.167-31.278c1.746-4.143,6.54-6.056,10.643-4.341c4.143,1.746,6.079,6.508,4.341,10.643l-13.167,31.278
	C387.175,380.095,384.159,381.96,380.992,381.96z"/>
<path style="fill:#EDEBED;" d="M410.413,113.778c-0.139,0-0.272,0.02-0.409,0.021C405.813,50.27,353.097,0,288.508,0
	c-37.093,0-70.254,16.624-92.613,42.762c-6.839-1.391-13.915-2.127-21.165-2.127c-48.556,0-89.356,32.798-101.72,77.418
	C33.097,130.27,4.064,167.387,4.064,211.302c0,53.861,43.663,97.524,97.524,97.524h308.825c53.861,0,97.524-43.663,97.524-97.524
	C507.936,157.44,464.274,113.778,410.413,113.778z"/>
<path style="fill:#DBD9DC;" d="M402.286,276.317H202.372c-53.811,0-99.942-42.18-100.773-95.984
	c-0.625-40.469,23.431-75.334,58.074-90.668c7.666-3.393,13.894-9.251,17.284-16.918c4.835-10.934,11.236-21.019,18.903-29.99
	c-6.828-1.385-13.892-2.122-21.13-2.122c-48.556,0-89.356,32.798-101.72,77.418c-40.641,12.44-70.003,50.697-68.917,95.66
	c1.291,53.45,47.214,95.112,100.679,95.112h297.514c8.977,0,16.254-7.277,16.254-16.254l0,0
	C418.54,283.595,411.263,276.317,402.286,276.317z"/>
<path style="fill:#FFDC64;" d="M328.069,341.333h-47.688l16.254-32.508h-81.27l-20.999,55.997c-1.636,4.364,1.589,9.019,6.25,9.019
	h47.257l-43.639,116.372c-1.071,2.856,2.597,5.083,4.637,2.816l124.934-138.816C338.275,349.247,334.75,341.333,328.069,341.333z"/>
<g>
	<path style="fill:#FFC850;" d="M215.365,308.825l-20.999,55.997c-1.636,4.364,1.589,9.019,6.25,9.019h26.127l8.916-22.29
		c2.468-6.171,8.445-10.217,15.091-10.217h29.63l16.254-32.508h-81.269V308.825z"/>
	<path style="fill:#FFC850;" d="M247.873,373.841l-43.639,116.372c-0.56,1.493,0.19,2.769,1.312,3.366l67.064-107.303
		c3.383-5.413-0.508-12.434-6.892-12.434h-17.845V373.841z"/>
</g>
<g>
</g>
<g>
</g>
<g>
</g>
<g>
</g>
<g>
</g>
<g>
</g>
<g>
</g>
<g>
</g>
<g>
</g>
<g>
</g>
<g>
</g>
<g>
</g>
<g>
</g>
<g>
</g>
<g>
</g>
</svg>
