<?xml version="1.0" encoding="iso-8859-1"?>
<!-- Generator: Adobe Illustrator 19.0.0, SVG Export Plug-In . SVG Version: 6.00 Build 0)  -->
<svg version="1.1" id="Capa_1" xmlns="http://www.w3.org/2000/svg" xmlns:xlink="http://www.w3.org/1999/xlink" x="0px" y="0px"
	 viewBox="0 0 512 512" style="enable-background:new 0 0 512 512;" xml:space="preserve">
<g>
	<path style="fill:#FFC88C;" d="M491.679,307.01c-3.683,0-7.111-0.496-9.516-1.071c-24.182-5.806-29.214-31.436-32.889-50.15
		l-1.103-5.536c-10.54-50.484-33.071-75.48-75.357-83.583c-4.405-0.841-7.294-5.099-6.452-9.508
		c0.841-4.413,5.103-7.309,9.516-6.452c49.071,9.401,76.277,39.079,88.198,96.225l1.151,5.722
		c3.921,19.972,7.698,34.349,20.73,37.476c3.754,0.897,8.127,0.71,10.079,0.139c1-3.595,4.262-6.182,8.27-5.94
		c4.476,0.238,7.921,4.067,7.682,8.548c-0.222,4.048-2.167,7.647-5.5,10.131C502.417,306.049,496.798,307.01,491.679,307.01z"/>
	<path style="fill:#FFC88C;" d="M321.014,260.963c0.563,23.619,13.206,103.957,13.206,103.957h-7.096
		c-5.685,0-10.957,2.97-13.902,7.833l-5.223,8.625c-2.107,3.478,0.398,7.923,4.464,7.923h21.545c5.235,0,10.15-2.522,13.203-6.775
		l11.202-15.602c1.888-2.63,2.872-5.736,2.989-8.972c0.917-25.323,8.484-54.1,12.437-66.174l-32.508-40.635L321.014,260.963z"/>
	<path style="fill:#FFC88C;" d="M203.173,275.524h-48.762l34.19,89.396c-6.033,0-11.569,3.341-14.38,8.678l-4.519,8.577
		c-1.705,3.236,0.642,7.125,4.3,7.125h18.399c6.529,0,12.425-3.907,14.969-9.921l7.708-18.218c1.207-2.853,1.574-5.991,1.057-9.045
		L203.173,275.524z"/>
</g>
<path style="fill:#FAEBC8;" d="M145.703,226.762v62.496c98.79-0.955,159.595-17.96,187.501-28.246v-34.25H145.703z"/>
<path style="fill:#FFDC9B;" d="M415.997,218.446V195.76c0-20.411-13.651-38.386-33.375-43.634c-0.159-0.042-8.275-1.743-8.275-1.743
	c-52.924-10.142-150.911,9.069-176.398,9.651c-33.527,0.765-62.534-18.606-90.114-27.003c-12.239-3.726-25.28-3.934-37.826-1.428
	l-16.026,3.202c-20.991,3.98-28.247,8.805-35.987,21.601C10.405,168.953,0,201.394,0,201.394s24.381,32.798,32.508,24.671
	c9.492-9.492,18.963-15.238,30.476-15.674c7.184-0.272,15.896,2.927,23.626-0.936c39.543,58.07-5.34,154.767-5.34,154.767h-2.328
	c-6.212,0-11.881,3.541-14.606,9.124l-4.178,8.559c-1.509,3.093,0.742,6.697,4.184,6.697h20.172c3.543,0,7.052-1.05,9.819-3.263
	c38.322-30.637,69.259-106.356,78.744-131.427c1.976-5.223,6.457-9.106,11.933-10.2c1-0.2,2.076-0.408,3.223-0.622l33.56-4.247
	c26.939-1.841,61.552-0.375,91.743,12.994c5.352,2.37,10.053,6.089,13.413,10.882c15.573,22.217,39.083,30.025,66.192,51.217
	c24.042,18.794,24.921,50.285,24.921,50.285c-6.996,0-13.207,4.477-15.42,11.114l-2.38,7.139c-1.005,3.014,1.239,6.127,4.416,6.127
	h26.781c4.192,0,7.696-3.188,8.091-7.362l6.956-73.55c0.192-2.031-0.364-4.019-1.596-5.645
	C438.194,293.184,415.997,260.694,415.997,218.446z"/>
<g>
	<path style="fill:#FFC88C;" d="M67.145,123.628c-4.119,2.612-10.03,7.514-14.295,15.866c-1.834,3.591,0.661,7.884,4.687,8.092
		l18.213,0.939c3.651,0.188,6.502-3.127,5.745-6.703c-1.012-4.784-2.852-11.15-6.076-16.314
		C73.664,122.698,69.943,121.854,67.145,123.628z"/>
	<path style="fill:#FFC88C;" d="M100.69,351.592c32.028-61.24,18.72-118.542,9.844-143.796c-2.12-6.033-9.607-8.32-14.621-4.351
		c-2.764,2.188-5.911,4.276-9.303,6.011c39.543,58.07-5.34,154.767-5.34,154.767l0,0C89.485,363.688,96.875,358.888,100.69,351.592z
		"/>
</g>
<path style="fill:#FAEBC8;" d="M32.508,226.065c9.492-9.492,18.963-15.238,30.476-15.673c7.184-0.272,15.896,2.927,23.626-0.936
	c-1.341,0.544-2.828,0.249-4.464-0.582c-6.121-3.111-14.328-13.738-24.749-16.142C44.19,189.683,22.349,219.369,0,201.394
	C0,201.394,24.381,234.192,32.508,226.065z"/>
<g>
	<circle style="fill:#B98264;" cx="199.11" cy="214.57" r="12.19"/>
	<circle style="fill:#B98264;" cx="345.39" cy="178" r="16.254"/>
	<circle style="fill:#B98264;" cx="288.51" cy="198.32" r="12.19"/>
	<circle style="fill:#B98264;" cx="142.22" cy="173.94" r="12.19"/>
	<circle style="fill:#B98264;" cx="239.74" cy="182.06" r="12.19"/>
	<circle style="fill:#B98264;" cx="150.35" cy="247.08" r="12.19"/>
</g>
<g>
	<circle style="fill:#CB9972;" cx="154.41" cy="210.51" r="8.127"/>
	<circle style="fill:#CB9972;" cx="186.92" cy="243.02" r="8.127"/>
	<circle style="fill:#CB9972;" cx="105.65" cy="178" r="8.127"/>
	<circle style="fill:#CB9972;" cx="195.05" cy="178" r="8.127"/>
</g>
<g>
	<circle style="fill:#D5A67A;" cx="231.62" cy="222.7" r="4.063"/>
	<circle style="fill:#D5A67A;" cx="264.12" cy="165.81" r="4.063"/>
	<circle style="fill:#D5A67A;" cx="394.16" cy="214.57" r="4.063"/>
	<circle style="fill:#D5A67A;" cx="418.54" cy="295.84" r="4.063"/>
	<circle style="fill:#D5A67A;" cx="345.39" cy="255.21" r="4.063"/>
	<circle style="fill:#D5A67A;" cx="394.16" cy="279.59" r="4.063"/>
	<circle style="fill:#D5A67A;" cx="377.9" cy="198.32" r="4.063"/>
	<circle style="fill:#D5A67A;" cx="372.81" cy="166.67" r="4.063"/>
	<circle style="fill:#D5A67A;" cx="215.36" cy="190.19" r="4.063"/>
	<circle style="fill:#D5A67A;" cx="304.76" cy="222.7" r="4.063"/>
	<circle style="fill:#D5A67A;" cx="174.73" cy="182.06" r="4.063"/>
	<circle style="fill:#D5A67A;" cx="321.01" cy="198.32" r="4.063"/>
	<circle style="fill:#D5A67A;" cx="174.73" cy="206.44" r="4.063"/>
	<circle style="fill:#D5A67A;" cx="182.86" cy="263.33" r="4.063"/>
	<circle style="fill:#D5A67A;" cx="134.09" cy="312.1" r="4.063"/>
	<circle style="fill:#D5A67A;" cx="85.33" cy="173.94" r="4.063"/>
</g>
<circle style="fill:#4B3F4E;" cx="36.571" cy="165.81" r="4.063"/>
<g>
	<circle style="fill:#D5A67A;" cx="93.46" cy="157.68" r="4.063"/>
	<circle style="fill:#D5A67A;" cx="125.97" cy="222.7" r="4.063"/>
	<circle style="fill:#D5A67A;" cx="125.97" cy="198.32" r="4.063"/>
	<circle style="fill:#D5A67A;" cx="256" cy="247.08" r="4.063"/>
	<circle style="fill:#D5A67A;" cx="239.74" cy="263.33" r="4.063"/>
	<circle style="fill:#D5A67A;" cx="215.36" cy="247.08" r="4.063"/>
	<circle style="fill:#D5A67A;" cx="312.89" cy="173.94" r="4.063"/>
	<circle style="fill:#D5A67A;" cx="321.01" cy="157.68" r="4.063"/>
	<circle style="fill:#D5A67A;" cx="377.9" cy="287.71" r="4.063"/>
</g>
<g>
	<circle style="fill:#CB9972;" cx="284.44" cy="243.02" r="8.127"/>
	<circle style="fill:#CB9972;" cx="333.2" cy="226.76" r="8.127"/>
	<circle style="fill:#CB9972;" cx="398.22" cy="251.14" r="8.127"/>
	<circle style="fill:#CB9972;" cx="292.57" cy="169.87" r="8.127"/>
	<circle style="fill:#CB9972;" cx="365.71" cy="267.4" r="8.127"/>
	<circle style="fill:#CB9972;" cx="390.09" cy="186.13" r="8.127"/>
	<circle style="fill:#CB9972;" cx="113.78" cy="153.62" r="8.127"/>
	<circle style="fill:#CB9972;" cx="138.16" cy="283.65" r="8.127"/>
	<circle style="fill:#CB9972;" cx="251.94" cy="210.51" r="8.127"/>
</g>
<circle style="fill:#B98264;" cx="365.71" cy="226.76" r="16.254"/>
<path style="fill:#5D5360;" d="M14.391,207.461c0-6.733-5.458-12.19-12.19-12.19c-0.058,0-0.112,0.016-0.17,0.017
	C0.775,198.985,0,201.394,0,201.394s5.217,6.993,11.616,13.723C13.325,213.019,14.391,210.377,14.391,207.461z"/>
<g>
</g>
<g>
</g>
<g>
</g>
<g>
</g>
<g>
</g>
<g>
</g>
<g>
</g>
<g>
</g>
<g>
</g>
<g>
</g>
<g>
</g>
<g>
</g>
<g>
</g>
<g>
</g>
<g>
</g>
</svg>
