<?xml version="1.0" encoding="iso-8859-1"?>
<!-- Generator: Adobe Illustrator 19.0.0, SVG Export Plug-In . SVG Version: 6.00 Build 0)  -->
<svg version="1.1" id="Capa_1" xmlns="http://www.w3.org/2000/svg" xmlns:xlink="http://www.w3.org/1999/xlink" x="0px" y="0px"
	 viewBox="0 0 512 512" style="enable-background:new 0 0 512 512;" xml:space="preserve">
<rect x="230.88" y="428.27" style="fill:#965A50;" width="50.23" height="75.35"/>
<path style="fill:#AF6E5A;" d="M281.118,503.627v-50.235h-16.745c-4.624,0-8.373,3.748-8.373,8.373v41.863h25.118V503.627z"/>
<path style="fill:#96BE4B;" d="M297.863,512h-83.726c-4.624,0-8.373-3.745-8.373-8.373s3.749-8.373,8.373-8.373h83.726
	c4.624,0,8.373,3.745,8.373,8.373S302.487,512,297.863,512z"/>
<g>
	<path style="fill:#AFD755;" d="M306.236,218.96H205.765l-61.748,138.933c-2.461,5.537,1.592,11.773,7.651,11.773h208.665
		c6.059,0,10.112-6.236,7.651-11.773L306.236,218.96z"/>
	<path style="fill:#AFD755;" d="M341.003,369.666H170.997l-32.884,54.269c-3.381,5.58,0.636,12.711,7.161,12.711h221.452
		c6.524,0,10.542-7.132,7.161-12.711L341.003,369.666z"/>
</g>
<g>
	<path style="fill:#96BE4B;" d="M222.854,423.935l5.206-30.557c0.685-4.023,4.172-6.966,8.254-6.966h114.835l-10.146-16.745H170.997
		l-32.884,54.269c-3.381,5.58,0.636,12.712,7.161,12.712h79.593C223.033,436.647,221.904,429.515,222.854,423.935z"/>
	<path style="fill:#96BE4B;" d="M224.514,357.893l10.168-81.364c0.524-4.19,4.085-7.334,8.308-7.334h85.573l-22.327-50.235H205.765
		l-61.748,138.934c-2.461,5.537,1.592,11.773,7.651,11.773h74.998C224.962,369.666,223.822,363.43,224.514,357.893z"/>
</g>
<path style="fill:#AFD755;" d="M248.161,5.433l-88.389,235.705c-2.053,5.474,1.994,11.312,7.839,11.312H344.39
	c5.846,0,9.892-5.839,7.84-11.312L263.84,5.433C261.123-1.811,250.877-1.811,248.161,5.433z"/>
<path style="fill:#96BE4B;" d="M248.16,5.433l-88.389,235.705c-2.052,5.474,1.994,11.313,7.84,11.313h63.537
	c-1.644,0-2.781-5.839-2.205-11.313L253.796,5.433C254.178,1.811,255.089,0,256,0C252.759,0,249.519,1.811,248.16,5.433z"/>
<g>
</g>
<g>
</g>
<g>
</g>
<g>
</g>
<g>
</g>
<g>
</g>
<g>
</g>
<g>
</g>
<g>
</g>
<g>
</g>
<g>
</g>
<g>
</g>
<g>
</g>
<g>
</g>
<g>
</g>
</svg>
