<?xml version="1.0" encoding="iso-8859-1"?>
<!-- Generator: Adobe Illustrator 19.0.0, SVG Export Plug-In . SVG Version: 6.00 Build 0)  -->
<svg version="1.1" id="Capa_1" xmlns="http://www.w3.org/2000/svg" xmlns:xlink="http://www.w3.org/1999/xlink" x="0px" y="0px"
	 viewBox="0 0 512 512" style="enable-background:new 0 0 512 512;" xml:space="preserve">
<path style="fill:#96BE4B;" d="M409.617,156.78H379.2c-26.36,0-54.336-5.768-86.919-31.768c-3.946-3.149-9.255,1.639-6.361,5.776
	c17.074,24.408,51.655,59.024,110.467,59.024h22.999c21.565,0,40.824,15.766,42.871,37.234
	c2.349,24.627-16.954,45.347-41.096,45.347H237.369c-3.962,0-7.792-1.424-10.792-4.012l-2.868-2.474
	c-7.5-6.47-17.075-10.03-26.979-10.03h-50.918c-8.761,0-17.163,3.48-23.357,9.675l-18.52,18.52
	c-3.097,3.097-7.298,4.837-11.679,4.837H17.4c-8.227,0-15.853,5.622-17.174,13.742c-1.683,10.347,6.259,19.29,16.29,19.29
	l9.669,19.338c4.197,8.393,12.775,13.695,22.159,13.695h182.882h41.287h140.39c55.347,0,100.096-45.373,99.08-100.953
	C510.985,199.467,464.18,156.78,409.617,156.78z"/>
<path style="fill:#89AA4F;" d="M145.811,255.877c-8.761,0-17.163,3.48-23.357,9.675l-18.52,18.52
	c-3.098,3.098-7.299,4.838-11.679,4.838H17.4c-8.227,0-15.853,5.622-17.174,13.742c-1.683,10.348,6.259,19.29,16.29,19.29
	l9.669,19.337c4.197,8.393,12.775,13.695,22.159,13.695h290.237l0,0c0-9.122-7.395-16.516-16.516-16.516H177.048
	c-21.864,0-40.374-17.028-41.174-38.877c-0.428-11.684,2.755-26.175,12.771-43.704L145.811,255.877L145.811,255.877z"/>
<g>
	<path style="fill:#7E9A52;" d="M214.71,338.457v16.516h-33.032c-14.533,0-26.873,9.384-31.292,22.424
		c-1.771,5.225,2.428,10.608,7.945,10.608h89.412c13.682,0,24.774-11.092,24.774-24.774v-24.774c0-9.122-7.395-16.516-16.516-16.516
		h-24.774C222.104,321.941,214.71,329.336,214.71,338.457z"/>
	<path style="fill:#7E9A52;" d="M404.645,346.716v8.258h-33.032c-14.533,0-26.873,9.384-31.292,22.424
		c-1.771,5.225,2.428,10.608,7.945,10.608h89.412c13.682,0,24.774-11.092,24.774-24.774v-16.516c0-9.122-7.395-16.516-16.516-16.516
		h-24.774C412.04,330.199,404.645,337.594,404.645,346.716z"/>
	<path style="fill:#7E9A52;" d="M152.798,333.228l7.798-3.899c4.081-2.04,5.734-7,3.694-11.081
		c-2.04-4.077-6.996-5.734-11.081-3.694l-7.798,3.899c-4.56,2.282-9.669,3.488-14.77,3.488H16.516l8.258,16.516h105.867
		C138.294,338.457,145.956,336.647,152.798,333.228z"/>
</g>
<g>
	<path style="fill:#FFFFFF;" d="M41.29,305.425L41.29,305.425c-4.561,0-8.258,3.697-8.258,8.258v24.774h16.516v-24.774
		C49.548,309.122,45.851,305.425,41.29,305.425z"/>
	<path style="fill:#FFFFFF;" d="M74.323,313.683L74.323,313.683c-4.561,0-8.258,3.697-8.258,8.258v16.516h16.516v-16.516
		C82.581,317.381,78.883,313.683,74.323,313.683z"/>
</g>
<circle style="fill:#4B3F4E;" cx="148.65" cy="280.65" r="16.516"/>
<circle style="fill:#FFFFFF;" cx="152.66" cy="277.04" r="8.258"/>
<path style="fill:#89AA4F;" d="M429.419,173.296h-41.29c-57.806,0-87.12-32.422-100.711-48.702
	c-2.035,1.133-3.204,3.756-1.499,6.194c17.074,24.409,51.655,59.024,110.467,59.024h22.999c21.566,0,40.824,15.766,42.871,37.234
	c2.349,24.627-16.954,45.347-41.096,45.347h8.258c27.365,0,49.548-22.183,49.548-49.548S456.784,173.296,429.419,173.296z"/>
<g>
</g>
<g>
</g>
<g>
</g>
<g>
</g>
<g>
</g>
<g>
</g>
<g>
</g>
<g>
</g>
<g>
</g>
<g>
</g>
<g>
</g>
<g>
</g>
<g>
</g>
<g>
</g>
<g>
</g>
</svg>
