<?xml version="1.0" encoding="iso-8859-1"?>
<!-- Generator: Adobe Illustrator 19.0.0, SVG Export Plug-In . SVG Version: 6.00 Build 0)  -->
<svg version="1.1" id="Capa_1" xmlns="http://www.w3.org/2000/svg" xmlns:xlink="http://www.w3.org/1999/xlink" x="0px" y="0px"
	 viewBox="0 0 512 512" style="enable-background:new 0 0 512 512;" xml:space="preserve">
<path style="fill:#E6646E;" d="M0,512h247.742c0-145.946,118.313-264.258,264.258-264.258V0C229.23,0,0,229.23,0,512z"/>
<path style="fill:#FFDC64;" d="M512,247.742V41.29C252.034,41.29,41.29,252.034,41.29,512h206.452
	C247.742,366.054,366.054,247.742,512,247.742z"/>
<path style="fill:#BEE86E;" d="M512,247.742V82.581C274.838,82.581,82.581,274.838,82.581,512h165.161
	C247.742,366.054,366.054,247.742,512,247.742z"/>
<path style="fill:#00CDFF;" d="M512,247.742V123.871c-214.358,0-388.129,173.771-388.129,388.129h123.871
	C247.742,366.054,366.054,247.742,512,247.742z"/>
<path style="fill:#00AAF0;" d="M512,247.742v-82.581c-191.554,0-346.839,155.285-346.839,346.839h82.581
	C247.742,366.054,366.054,247.742,512,247.742z"/>
<path style="fill:#965AF0;" d="M512,247.742v-41.29c-168.749,0-305.548,136.798-305.548,305.548h41.29
	C247.742,366.054,366.054,247.742,512,247.742z"/>
<g>
</g>
<g>
</g>
<g>
</g>
<g>
</g>
<g>
</g>
<g>
</g>
<g>
</g>
<g>
</g>
<g>
</g>
<g>
</g>
<g>
</g>
<g>
</g>
<g>
</g>
<g>
</g>
<g>
</g>
</svg>
