<?xml version="1.0" encoding="iso-8859-1"?>
<!-- Generator: Adobe Illustrator 19.0.0, SVG Export Plug-In . SVG Version: 6.00 Build 0)  -->
<svg version="1.1" id="Capa_1" xmlns="http://www.w3.org/2000/svg" xmlns:xlink="http://www.w3.org/1999/xlink" x="0px" y="0px"
	 viewBox="0 0 511.999 511.999" style="enable-background:new 0 0 511.999 511.999;" xml:space="preserve">
<path style="fill:#FFDC64;" d="M219.686,221.216l65.786-27.478c3.43-1.433,3.43-6.293,0-7.725l-65.786-27.479l27.087-65.948
	c1.412-3.439-2.024-6.875-5.463-5.463l-65.948,27.088l-27.478-65.786c-1.433-3.43-6.292-3.43-7.725,0l-27.479,65.786L46.734,87.123
	c-3.439-1.412-6.875,2.024-5.463,5.463l27.087,65.948L2.572,186.013c-3.43,1.433-3.43,6.293,0,7.725l65.786,27.478l-27.088,65.948
	c-1.412,3.439,2.024,6.875,5.463,5.463l65.948-27.087l27.479,65.786c1.433,3.43,6.293,3.43,7.725,0l27.478-65.786l65.948,27.088
	c3.439,1.412,6.875-2.024,5.463-5.463L219.686,221.216z"/>
<circle style="fill:#FFC850;" cx="144.02" cy="189.879" r="83.72"/>
<path style="fill:#EBAF4B;" d="M177.51,240.108c-46.238,0-83.721-37.483-83.721-83.721c0-14.508,3.697-28.149,10.189-40.045
	c-26.021,14.201-43.678,41.802-43.678,73.533c0,46.238,37.483,83.721,83.721,83.721c31.731,0,59.332-17.657,73.532-43.677
	C205.658,236.411,192.018,240.108,177.51,240.108z"/>
<path style="fill:#EDEBED;" d="M440.702,155.838c-0.102,0-0.199,0.015-0.299,0.015c-3.064-46.445-41.604-83.196-88.824-83.196
	c-27.118,0-51.361,12.153-67.708,31.262c-5-1.017-10.173-1.555-15.473-1.555c-35.498,0-65.327,23.978-74.366,56.599
	c-29.179,8.932-50.406,36.067-50.406,68.172c0,39.377,31.921,71.298,71.298,71.298h225.777c39.377,0,71.298-31.921,71.298-71.298
	C512,187.759,480.079,155.838,440.702,155.838z"/>
<path style="fill:#DBD9DC;" d="M434.76,274.667H288.607c-39.34,0-73.066-30.837-73.673-70.173
	c-0.457-29.587,17.13-55.075,42.457-66.286c5.604-2.481,10.158-6.764,12.636-12.369c3.535-7.994,8.215-15.367,13.82-21.925
	c-4.992-1.013-10.156-1.551-15.448-1.551c-35.498,0-65.327,23.978-74.366,56.599c-29.712,9.095-51.178,37.064-50.384,69.936
	c0.944,39.076,34.517,69.535,73.605,69.535H434.76c6.563,0,11.883-5.32,11.883-11.883l0,0
	C446.644,279.988,441.323,274.667,434.76,274.667z"/>
<path style="fill:#B2EDFF;" d="M166.878,466.146c-1.136,0-2.293-0.229-3.397-0.719c-4.227-1.88-6.128-6.827-4.247-11.054
	l7.444-16.744c1.88-4.227,6.835-6.124,11.05-4.251c4.227,1.88,6.128,6.827,4.247,11.054l-7.444,16.744
	C173.145,464.298,170.083,466.146,166.878,466.146z"/>
<path style="fill:#D1F4FF;" d="M189.203,415.921c-1.136,0-2.289-0.229-3.397-0.719c-4.223-1.88-6.128-6.827-4.251-11.054
	l7.44-16.744c1.88-4.219,6.827-6.116,11.054-4.251c4.223,1.88,6.128,6.827,4.251,11.054l-7.44,16.744
	C195.47,414.065,192.412,415.921,189.203,415.921z"/>
<path style="fill:#B2EDFF;" d="M211.527,365.689c-1.136,0-2.289-0.229-3.397-0.719c-4.223-1.88-6.128-6.827-4.251-11.054
	l7.444-16.752c1.885-4.219,6.819-6.124,11.054-4.251c4.223,1.88,6.128,6.827,4.251,11.054l-7.444,16.752
	C217.794,363.833,214.736,365.689,211.527,365.689z"/>
<path style="fill:#D1F4FF;" d="M208.74,466.146c-1.136,0-2.293-0.229-3.397-0.719c-4.227-1.88-6.128-6.827-4.247-11.054
	l7.444-16.744c1.876-4.227,6.827-6.124,11.05-4.251c4.227,1.88,6.128,6.827,4.247,11.054l-7.444,16.744
	C215.007,464.298,211.945,466.146,208.74,466.146z"/>
<path style="fill:#B2EDFF;" d="M231.063,415.921c-1.136,0-2.289-0.229-3.397-0.719c-4.223-1.88-6.128-6.827-4.251-11.054
	l7.44-16.744c1.88-4.219,6.827-6.116,11.054-4.251c4.223,1.88,6.128,6.827,4.251,11.054l-7.44,16.744
	C237.33,414.065,234.272,415.921,231.063,415.921z"/>
<path style="fill:#D1F4FF;" d="M253.387,365.689c-1.136,0-2.289-0.229-3.397-0.719c-4.223-1.88-6.128-6.827-4.251-11.054
	l7.444-16.752c1.885-4.219,6.819-6.124,11.054-4.251c4.223,1.88,6.128,6.827,4.251,11.054l-7.444,16.752
	C259.655,363.833,256.598,365.689,253.387,365.689z"/>
<path style="fill:#B2EDFF;" d="M250.6,466.146c-1.136,0-2.293-0.229-3.397-0.719c-4.227-1.88-6.128-6.827-4.247-11.054l7.444-16.744
	c1.872-4.227,6.835-6.124,11.05-4.251c4.227,1.88,6.128,6.827,4.247,11.054l-7.444,16.744
	C256.867,464.298,253.804,466.146,250.6,466.146z"/>
<path style="fill:#D1F4FF;" d="M272.924,415.921c-1.136,0-2.289-0.229-3.397-0.719c-4.223-1.88-6.128-6.827-4.251-11.054
	l7.44-16.744c1.88-4.219,6.827-6.116,11.054-4.251c4.223,1.88,6.128,6.827,4.251,11.054l-7.44,16.744
	C279.191,414.065,276.134,415.921,272.924,415.921z"/>
<path style="fill:#B2EDFF;" d="M295.249,365.689c-1.136,0-2.289-0.229-3.397-0.719c-4.223-1.88-6.128-6.827-4.251-11.054
	l7.444-16.752c1.885-4.219,6.819-6.124,11.054-4.251c4.223,1.88,6.128,6.827,4.251,11.054l-7.444,16.752
	C301.516,363.833,298.458,365.689,295.249,365.689z"/>
<path style="fill:#D1F4FF;" d="M292.461,466.146c-1.136,0-2.293-0.229-3.397-0.719c-4.227-1.88-6.128-6.827-4.247-11.054
	l7.444-16.744c1.876-4.227,6.827-6.124,11.05-4.251c4.227,1.88,6.128,6.827,4.247,11.054l-7.444,16.744
	C298.728,464.298,295.665,466.146,292.461,466.146z"/>
<path style="fill:#B2EDFF;" d="M314.785,415.921c-1.136,0-2.289-0.229-3.397-0.719c-4.223-1.88-6.128-6.827-4.251-11.054
	l7.44-16.744c1.88-4.219,6.827-6.116,11.054-4.251c4.223,1.88,6.128,6.827,4.251,11.054l-7.44,16.744
	C321.052,414.065,317.993,415.921,314.785,415.921z"/>
<path style="fill:#D1F4FF;" d="M337.109,365.689c-1.136,0-2.289-0.229-3.397-0.719c-4.223-1.88-6.128-6.827-4.251-11.054
	l7.444-16.752c1.885-4.219,6.819-6.124,11.054-4.251c4.223,1.88,6.128,6.827,4.251,11.054l-7.444,16.752
	C343.376,363.833,340.319,365.689,337.109,365.689z"/>
<path style="fill:#B2EDFF;" d="M334.322,466.146c-1.136,0-2.293-0.229-3.397-0.719c-4.227-1.88-6.128-6.827-4.247-11.054
	l7.444-16.744c1.88-4.227,6.835-6.124,11.05-4.251c4.227,1.88,6.128,6.827,4.247,11.054l-7.444,16.744
	C340.588,464.298,337.527,466.146,334.322,466.146z"/>
<path style="fill:#D1F4FF;" d="M356.646,415.921c-1.136,0-2.289-0.229-3.397-0.719c-4.223-1.88-6.128-6.827-4.251-11.054
	l7.44-16.744c1.88-4.219,6.827-6.116,11.054-4.251c4.223,1.88,6.128,6.827,4.251,11.054l-7.44,16.744
	C362.913,414.065,359.855,415.921,356.646,415.921z"/>
<path style="fill:#B2EDFF;" d="M378.97,365.689c-1.136,0-2.289-0.229-3.397-0.719c-4.223-1.88-6.128-6.827-4.251-11.054
	l7.444-16.752c1.885-4.219,6.819-6.124,11.054-4.251c4.223,1.88,6.128,6.827,4.251,11.054l-7.444,16.752
	C385.237,363.833,382.178,365.689,378.97,365.689z"/>
<path style="fill:#D1F4FF;" d="M376.182,466.146c-1.136,0-2.293-0.229-3.397-0.719c-4.227-1.88-6.128-6.827-4.247-11.054
	l7.444-16.744c1.876-4.227,6.827-6.124,11.05-4.251c4.227,1.88,6.128,6.827,4.247,11.054l-7.444,16.744
	C382.449,464.298,379.387,466.146,376.182,466.146z"/>
<path style="fill:#B2EDFF;" d="M398.506,415.921c-1.136,0-2.289-0.229-3.397-0.719c-4.223-1.88-6.128-6.827-4.251-11.054
	l7.44-16.744c1.88-4.219,6.827-6.116,11.054-4.251c4.223,1.88,6.128,6.827,4.251,11.054l-7.44,16.744
	C404.773,414.065,401.715,415.921,398.506,415.921z"/>
<path style="fill:#D1F4FF;" d="M420.831,365.689c-1.136,0-2.289-0.229-3.397-0.719c-4.223-1.88-6.128-6.827-4.251-11.054
	l7.444-16.752c1.885-4.219,6.819-6.124,11.054-4.251c4.223,1.88,6.128,6.827,4.251,11.054l-7.444,16.752
	C427.098,363.833,424.04,365.689,420.831,365.689z"/>
<g>
</g>
<g>
</g>
<g>
</g>
<g>
</g>
<g>
</g>
<g>
</g>
<g>
</g>
<g>
</g>
<g>
</g>
<g>
</g>
<g>
</g>
<g>
</g>
<g>
</g>
<g>
</g>
<g>
</g>
</svg>
