<?xml version="1.0" encoding="iso-8859-1"?>
<!-- Generator: Adobe Illustrator 19.0.0, SVG Export Plug-In . SVG Version: 6.00 Build 0)  -->
<svg version="1.1" id="Capa_1" xmlns="http://www.w3.org/2000/svg" xmlns:xlink="http://www.w3.org/1999/xlink" x="0px" y="0px"
	 viewBox="0 0 512 512" style="enable-background:new 0 0 512 512;" xml:space="preserve">
<path style="fill:#EDEBED;" d="M476.875,216.133l-29.586,100.92L46.247,381.938c-0.69,37.964,67.24,66.635,149.005,72.757
	c31.367,2.348,62.905,0.778,94.084-3.374l10.816-1.44c18.209-2.425,36.301-5.924,53.834-11.407
	C446.736,409.467,515.147,341.814,476.875,216.133z"/>
<path style="fill:#00C3FF;" d="M507.615,153.66c-34.695,2.347-52.042,24.65-52.042,24.65s-17.345-22.302-52.037-24.65
	c-2.939-0.199-5.116,2.729-4.166,5.518c4.16,12.215,16.045,41.386,40.081,61.579c9.823,29.649,6.005,73.883-33.576,81.8
	c-67.888,13.577-146.905-56.306-237.049-81.963c-17.042-4.851-34.684-7.286-52.37-8.335c-15.638-0.928-31.434,0.416-46.433,4.935
	C36.683,227.239,0,252.736,0,310.841c0,87.276,118.823,95.824,183.78,93.975l31.253-1.821c6.353-0.572,9.992-1.04,9.992-1.04
	s21.385,61.712,87.151,80.51c5.94,1.698,11.591-3.621,10.362-9.675l-16.062-79.118c0,0,223.888-17.748,170.399-177.539
	c20.59-19.797,31.052-45.638,34.901-56.95C512.722,156.403,510.545,153.462,507.615,153.66z"/>
<path style="fill:#00AAF0;" d="M55.393,310.841c-10.874-50.51,16.588-88.669,71.979-97.705c-3.635-0.343-7.275-0.66-10.919-0.876
	c-15.639-0.928-31.434,0.416-46.433,4.935C36.683,227.239,0,252.736,0,310.841c0,87.276,118.823,95.824,183.78,93.975l31.253-1.821
	c6.353-0.572,9.992-1.04,9.992-1.04C181.194,404.544,71.442,385.389,55.393,310.841z"/>
<path style="fill:#4B3F4E;" d="M182.229,377.106L182.229,377.106c-9.149,0-16.566-7.417-16.566-16.566v-8.283
	c0-9.149,7.417-16.566,16.566-16.566l0,0c9.149,0,16.566,7.417,16.566,16.566v8.283
	C198.795,369.689,191.378,377.106,182.229,377.106z"/>
<circle style="fill:#FFFFFF;" cx="182.23" cy="352.26" r="8.283"/>
<path style="fill:#EAFDFF;" d="M19.672,90.82c0,0,50.734-32.615,86.973,9.319c0,0,38.31-36.756,82.831-4.142
	c0,0-53.323,27.438-56.947,137.707H107.68C107.681,233.704,106.128,88.749,19.672,90.82z"/>
<g>
	<path style="fill:#D2F5FF;" d="M107.681,244.576c-4.57,0-8.279-3.709-8.283-8.279c0-1.181-0.837-118.415-64.065-138.083
		c-13.666-4.263-20.206,2.087-20.91,2.823c-3.102,3.268-8.311,3.523-11.64,0.502c-3.333-3.025-3.705-8.089-0.756-11.486
		c0.542-0.635,13.63-15.304,38.225-7.66c74.852,23.288,75.713,148.579,75.713,153.901c0,4.574-3.705,8.279-8.279,8.283h-0.005
		V244.576z"/>
	<path style="fill:#D2F5FF;" d="M231.932,103.762c-2.317,0-4.623-0.967-6.261-2.855l0,0c-0.008,0-2.188-2.233-6.463-3.422
		c-4.409-1.221-6.989-5.788-5.763-10.196c1.221-4.404,5.771-6.981,10.196-5.763c9.149,2.54,14.018,7.919,14.544,8.526
		c2.997,3.454,2.625,8.688-0.829,11.685C235.786,103.095,233.857,103.762,231.932,103.762z"/>
	<path style="fill:#D2F5FF;" d="M132.53,244.576c-4.574,0-8.283-3.709-8.283-8.283c0-4.679,0.708-115.026,62.334-148.271
		c4.024-2.176,9.048-0.667,11.219,3.357c2.172,4.024,0.671,9.048-3.357,11.219c-53.015,28.607-53.63,132.647-53.63,133.695
		C140.813,240.867,137.104,244.576,132.53,244.576z"/>
	<path style="fill:#D2F5FF;" d="M120.793,149.324c-3.62,0-6.94-2.39-7.972-6.047c-12.582-44.752-29.209-61.869-40.938-68.348
		c-11.054-6.115-19.357-3.765-19.697-3.66c-4.328,1.302-8.963-1.124-10.318-5.44c-1.355-4.311,0.926-8.89,5.213-10.318
		c1.476-0.493,14.961-4.558,31.976,4.465c21.484,11.389,38.208,37.909,49.715,78.819c1.238,4.4-1.331,8.975-5.735,10.216
		C122.289,149.223,121.533,149.324,120.793,149.324z"/>
	<path style="fill:#D2F5FF;" d="M136.146,103.762c-1.302,0-2.629-0.307-3.862-0.959c-4.044-2.14-5.59-7.151-3.454-11.195
		c21.662-40.979,53.315-36.635,54.657-36.425c4.522,0.692,7.624,4.922,6.928,9.444c-0.688,4.485-4.914,7.592-9.343,6.944
		c-1.1-0.138-21.767-2.164-37.594,27.778C141.99,102.161,139.119,103.762,136.146,103.762z"/>
	<path style="fill:#D2F5FF;" d="M115.964,70.63c-4.574,0-8.283-3.709-8.283-8.283v-24.85c0-4.574,3.709-8.283,8.283-8.283
		s8.283,3.709,8.283,8.283v24.849C124.247,66.921,120.538,70.63,115.964,70.63z"/>
</g>
<path style="fill:#0096DC;" d="M140.813,244.576H99.398c-4.574,0-8.283-3.709-8.283-8.283s3.709-8.283,8.283-8.283h41.416
	c4.574,0,8.283,3.709,8.283,8.283C149.096,240.867,145.388,244.576,140.813,244.576z"/>
<g>
</g>
<g>
</g>
<g>
</g>
<g>
</g>
<g>
</g>
<g>
</g>
<g>
</g>
<g>
</g>
<g>
</g>
<g>
</g>
<g>
</g>
<g>
</g>
<g>
</g>
<g>
</g>
<g>
</g>
</svg>
