<?xml version="1.0" encoding="iso-8859-1"?>
<!-- Generator: Adobe Illustrator 19.0.0, SVG Export Plug-In . SVG Version: 6.00 Build 0)  -->
<svg version="1.1" id="Capa_1" xmlns="http://www.w3.org/2000/svg" xmlns:xlink="http://www.w3.org/1999/xlink" x="0px" y="0px"
	 viewBox="0 0 512 512" style="enable-background:new 0 0 512 512;" xml:space="preserve">
<path style="fill:#FFDC64;" d="M223.279,201.041l64.89-27.104c3.383-1.413,3.384-6.207,0-7.62l-64.89-27.104l26.719-65.05
	c1.393-3.392-1.996-6.781-5.388-5.388l-65.05,26.719l-27.104-64.89c-1.413-3.383-6.207-3.384-7.62,0l-27.104,64.89l-65.05-26.719
	c-3.392-1.393-6.781,1.996-5.388,5.388l26.718,65.05l-64.89,27.104c-3.383,1.413-3.383,6.207,0,7.62l64.89,27.104l-26.719,65.05
	c-1.393,3.392,1.996,6.781,5.388,5.388l65.05-26.718l27.104,64.89c1.413,3.383,6.207,3.383,7.62,0l27.104-64.89l65.05,26.719
	c3.392,1.393,6.781-1.996,5.388-5.388L223.279,201.041z"/>
<circle style="fill:#FFC850;" cx="148.65" cy="170.13" r="82.58"/>
<path style="fill:#EBAF4B;" d="M181.677,219.676c-45.608,0-82.581-36.973-82.581-82.581c0-14.31,3.647-27.765,10.05-39.499
	c-25.666,14.007-43.083,41.233-43.083,72.532c0,45.608,36.973,82.581,82.581,82.581c31.298,0,58.524-17.416,72.531-43.082
	C209.442,216.03,195.987,219.676,181.677,219.676z"/>
<path style="fill:#EDEBED;" d="M412.903,285.74c-0.141,0-0.276,0.021-0.415,0.021c-4.258-64.553-57.825-115.634-123.456-115.634
	c-37.692,0-71.387,16.892-94.107,43.452c-6.95-1.413-14.139-2.161-21.506-2.161c-49.339,0-90.797,33.327-103.361,78.667
	C29.502,302.499,0,340.214,0,384.837c0,54.729,44.367,99.097,99.097,99.097h313.806c54.73,0,99.097-44.367,99.097-99.097
	C512,330.107,467.633,285.74,412.903,285.74z"/>
<path style="fill:#DBD9DC;" d="M404.645,450.902H201.507c-54.679,0-101.554-42.86-102.398-97.533
	c-0.635-41.122,23.809-76.549,59.01-92.131c7.789-3.448,14.118-9.401,17.563-17.191c4.913-11.11,11.418-21.358,19.208-30.474
	c-6.938-1.408-14.116-2.156-21.471-2.156c-49.339,0-90.797,33.327-103.361,78.667C28.762,302.725-1.074,341.6,0.03,387.288
	c1.311,54.312,47.976,96.646,102.303,96.646h302.312c9.122,0,16.516-7.395,16.516-16.516l0,0
	C421.161,458.296,413.767,450.902,404.645,450.902z"/>
<g>
</g>
<g>
</g>
<g>
</g>
<g>
</g>
<g>
</g>
<g>
</g>
<g>
</g>
<g>
</g>
<g>
</g>
<g>
</g>
<g>
</g>
<g>
</g>
<g>
</g>
<g>
</g>
<g>
</g>
</svg>
