<?xml version="1.0" encoding="iso-8859-1"?>
<!-- Generator: Adobe Illustrator 19.0.0, SVG Export Plug-In . SVG Version: 6.00 Build 0)  -->
<svg version="1.1" id="Capa_1" xmlns="http://www.w3.org/2000/svg" xmlns:xlink="http://www.w3.org/1999/xlink" x="0px" y="0px"
	 viewBox="0 0 511.999 511.999" style="enable-background:new 0 0 511.999 511.999;" xml:space="preserve">
<path style="fill:#FFDC64;" d="M282.461,88.303l-26.98-78.201c-1.835-5.318-9.355-5.318-11.19,0l-26.98,78.201l-1.504,0.299
	l-54.853-61.923c-3.73-4.211-10.678-1.333-10.338,4.282l5,82.573l-0.102,1.423L79.967,78.168c-5.058-2.463-10.376,2.855-7.913,7.913
	l36.789,75.547l-0.121,0.181l-83.875-5.078c-5.615-0.34-8.493,6.608-4.282,10.338l62.899,55.717l-0.042,0.213L3.988,250.405
	c-5.318,1.835-5.318,9.355,0,11.19l79.434,27.406l0.042,0.213l-62.899,55.717c-4.211,3.73-1.333,10.678,4.282,10.338l83.875-5.078
	l0.121,0.181l-36.789,75.547c-2.463,5.058,2.855,10.376,7.913,7.913l75.547-36.789l0.181,0.121l-5.078,83.875
	c-0.34,5.615,6.608,8.493,10.338,4.282l55.717-62.899l0.213,0.042l27.406,79.434c1.835,5.318,9.355,5.318,11.19,0l27.406-79.434
	l0.213-0.042l55.717,62.899c3.73,4.211,10.678,1.333,10.338-4.282l-5.078-83.875l1.354,0.45l74.374,36.218
	c5.058,2.463,10.376-2.855,7.913-7.913l-36.218-74.374l0.852-1.275l82.573,5c5.615,0.34,8.493-6.608,4.282-10.338l-61.923-54.853
	l0.299-1.504l78.201-26.98c5.318-1.835,5.318-9.355,0-11.19l-78.201-26.98l-0.299-1.504l61.923-54.853
	c4.211-3.73,1.333-10.678-4.282-10.338l-82.573,5l-0.852-1.275l36.218-74.374c2.463-5.058-2.855-10.376-7.913-7.913l-74.374,36.218
	l-1.275-0.852l5-82.573c0.34-5.615-6.608-8.493-10.338-4.282l-54.853,61.923"/>
<circle style="fill:#FFC850;" cx="250.721" cy="254.74" r="168.27"/>
<path style="fill:#EBAF4B;" d="M305.909,367.82c-92.931,0-168.267-75.335-168.267-168.267c0-32.326,9.134-62.51,24.935-88.148
	c-48.066,29.624-80.119,82.727-80.119,143.332c0,92.931,75.335,168.267,168.267,168.267c60.605,0,113.709-32.053,143.332-80.119
	C368.419,358.686,338.235,367.82,305.909,367.82z"/>
<path style="fill:#EDEBED;" d="M439.994,230.361c-0.103,0-0.201,0.015-0.302,0.015c-3.094-46.906-42.017-84.023-89.706-84.023
	c-27.388,0-51.872,12.274-68.381,31.573c-5.05-1.027-10.274-1.57-15.627-1.57c-35.851,0-65.976,24.216-75.105,57.161
	c-29.469,9.021-50.906,36.426-50.906,68.85c0,39.768,32.238,72.006,72.006,72.006h228.02c39.768,0,72.006-32.239,72.006-72.006
	C512,262.6,479.762,230.361,439.994,230.361z"/>
<path style="fill:#DBD9DC;" d="M433.993,350.372H286.387c-39.731,0-73.792-31.143-74.405-70.87
	c-0.461-29.881,17.3-55.623,42.879-66.945c5.66-2.505,10.259-6.831,12.762-12.492c3.57-8.073,8.296-15.519,13.957-22.143
	c-5.041-1.023-10.257-1.566-15.602-1.566c-35.851,0-65.976,24.216-75.105,57.161c-30.007,9.185-51.686,37.432-50.885,70.631
	c0.953,39.464,34.86,70.226,74.336,70.226h219.668c6.628,0,12.001-5.373,12.001-12.001l0,0
	C445.994,355.745,440.621,350.372,433.993,350.372z"/>
<g>
</g>
<g>
</g>
<g>
</g>
<g>
</g>
<g>
</g>
<g>
</g>
<g>
</g>
<g>
</g>
<g>
</g>
<g>
</g>
<g>
</g>
<g>
</g>
<g>
</g>
<g>
</g>
<g>
</g>
</svg>
