<?xml version="1.0" encoding="iso-8859-1"?>
<!-- Generator: Adobe Illustrator 19.0.0, SVG Export Plug-In . SVG Version: 6.00 Build 0)  -->
<svg version="1.1" id="Capa_1" xmlns="http://www.w3.org/2000/svg" xmlns:xlink="http://www.w3.org/1999/xlink" x="0px" y="0px"
	 viewBox="0 0 511.999 511.999" style="enable-background:new 0 0 511.999 511.999;" xml:space="preserve">
<path style="fill:#FFDC64;" d="M110.049,159.424l-84.593-5.122c-5.752-0.348-8.701,6.77-4.387,10.591l63.438,56.195l-0.306,1.541
	l-80.114,27.64c-5.448,1.88-5.448,9.584,0,11.464l80.114,27.64l1.307,0.655L21.07,347.109c-4.314,3.821-1.365,10.94,4.387,10.591
	l85.927-5.203l0.124,0.185l-37.689,77.395c-2.523,5.181,2.925,10.629,8.106,8.106l77.395-37.69l0.185,0.124l-5.203,85.927
	c-0.348,5.753,6.77,8.701,10.591,4.387l57.081-64.438l0.219,0.043l28.076,81.377c1.88,5.448,9.584,5.448,11.464,0l28.076-81.377
	l0.219-0.043l57.081,64.438c3.821,4.314,10.94,1.365,10.591-4.387l-5.203-85.927l0.185-0.124l77.395,37.689
	c5.181,2.523,10.629-2.925,8.106-8.106l-37.69-77.395l0.124-0.185l85.927,5.203c5.753,0.348,8.701-6.77,4.387-10.591l-64.438-57.081
	l0.043-0.219l81.377-28.076c5.448-1.88,5.448-9.584,0-11.464l-81.377-28.076l0.957-1.105l63.438-56.195
	c4.314-3.821,1.365-10.94-4.387-10.591l-84.593,5.122l-0.873-1.306l37.104-76.194c2.523-5.181-2.925-10.629-8.106-8.106
	l-76.194,37.104l-1.306-0.873l5.122-84.593c0.348-5.752-6.77-8.701-10.591-4.387l-56.195,63.438L289.37,84.2L261.73,4.086
	c-1.88-5.448-9.584-5.448-11.464,0l-27.638,80.115l-1.541,0.306l-56.195-63.438c-3.821-4.314-10.94-1.365-10.591,4.387l5.122,84.593
	l-1.306,0.873L81.924,73.818c-5.181-2.523-10.629,2.925-8.106,8.106l37.104,76.194"/>
<circle style="fill:#FFC850;" cx="255.131" cy="254.711" r="172.38"/>
<path style="fill:#EBAF4B;" d="M383.801,246.814c-36.433,87.958-137.272,129.727-225.23,93.294
	c-30.596-12.673-55.584-33.152-73.655-58.158c9.194,57.107,46.889,108.264,104.251,132.024
	c87.958,36.433,188.797-5.335,225.23-93.294c23.76-57.362,14.241-120.19-19.639-167.072
	C399.663,184.069,396.474,216.218,383.801,246.814z"/>
<g>
</g>
<g>
</g>
<g>
</g>
<g>
</g>
<g>
</g>
<g>
</g>
<g>
</g>
<g>
</g>
<g>
</g>
<g>
</g>
<g>
</g>
<g>
</g>
<g>
</g>
<g>
</g>
<g>
</g>
</svg>
