<?xml version="1.0" encoding="iso-8859-1"?>
<!-- Generator: Adobe Illustrator 19.0.0, SVG Export Plug-In . SVG Version: 6.00 Build 0)  -->
<svg version="1.1" id="Capa_1" xmlns="http://www.w3.org/2000/svg" xmlns:xlink="http://www.w3.org/1999/xlink" x="0px" y="0px"
	 viewBox="0 0 512.005 512.005" style="enable-background:new 0 0 512.005 512.005;" xml:space="preserve">
<path style="fill:#E8FAFF;" d="M8.002,440.005l208.911-306.884c42.101-61.845,130.079-70.126,182.981-17.224l0,0
	c52.973,52.973,44.587,141.091-17.428,183.12L80.002,504.005L8.002,440.005z"/>
<g>
	<path style="fill:#00C3FF;" d="M238.736,32.005c-1.359,0-2.738-0.344-4-1.078c-3.824-2.211-5.129-7.102-2.918-10.93l9.258-16
		c2.211-3.82,7.109-5.141,10.934-2.914c3.824,2.211,5.129,7.102,2.918,10.93l-9.258,16
		C244.186,30.575,241.498,32.005,238.736,32.005z"/>
	<path style="fill:#00C3FF;" d="M16.869,415.505c-1.359,0-2.738-0.344-4-1.078c-3.824-2.211-5.129-7.102-2.918-10.93L217.076,45.481
		c2.215-3.828,7.105-5.148,10.934-2.914c3.824,2.211,5.129,7.102,2.918,10.93L23.803,411.512
		C22.318,414.075,19.631,415.505,16.869,415.505z"/>
	<path style="fill:#00C3FF;" d="M488.01,281.262c-2.762,0-5.449-1.43-6.934-3.992c-2.211-3.828-0.906-8.719,2.918-10.93l16-9.258
		c3.832-2.227,8.719-0.906,10.934,2.914c2.211,3.828,0.906,8.719-2.918,10.93l-16,9.258
		C490.748,280.919,489.369,281.262,488.01,281.262z"/>
	<path style="fill:#00C3FF;" d="M104.51,503.13c-2.762,0-5.449-1.43-6.934-3.992c-2.211-3.828-0.906-8.719,2.918-10.93
		L458.51,281.083c3.82-2.219,8.719-0.906,10.934,2.914c2.211,3.828,0.906,8.719-2.918,10.93L108.51,502.051
		C107.248,502.786,105.869,503.13,104.51,503.13z"/>
	<path style="fill:#00C3FF;" d="M488.002,32.005c-2.047,0-4.094-0.781-5.656-2.344c-3.125-3.125-3.125-8.188,0-11.313l16-16
		c3.125-3.125,8.188-3.125,11.313,0c3.125,3.125,3.125,8.188,0,11.313l-16,16C492.096,31.223,490.049,32.005,488.002,32.005z"/>
</g>
<g>
	<path style="fill:#D1F4FF;" d="M248.002,272.005c-2.047,0-4.094-0.781-5.656-2.344c-3.125-3.125-3.125-8.188,0-11.313l216-216
		c3.125-3.125,8.188-3.125,11.313,0s3.125,8.188,0,11.313l-216,216C252.096,271.223,250.049,272.005,248.002,272.005z"/>
	<path style="fill:#D1F4FF;" d="M184.002,336.005c-2.047,0-4.094-0.781-5.656-2.344c-3.125-3.125-3.125-8.188,0-11.313l40-40
		c3.125-3.125,8.188-3.125,11.313,0s3.125,8.188,0,11.313l-40,40C188.096,335.223,186.049,336.005,184.002,336.005z"/>
</g>
<g>
	<path style="fill:#B2EDFF;" d="M111.053,352.005c-1.691,0-3.402-0.539-4.852-1.648c-3.512-2.68-4.18-7.703-1.496-11.211
		l256.941-336c2.684-3.508,7.715-4.172,11.215-1.492c3.512,2.68,4.18,7.703,1.496,11.211l-256.941,336
		C115.842,350.926,113.463,352.005,111.053,352.005z"/>
	<path style="fill:#B2EDFF;" d="M168.006,408.95c-2.406,0-4.785-1.078-6.359-3.141c-2.684-3.508-2.016-8.531,1.496-11.211
		l336-256.945c3.516-2.695,8.531-2.023,11.215,1.492c2.684,3.508,2.016,8.531-1.496,11.211l-336,256.945
		C171.412,408.411,169.701,408.95,168.006,408.95z"/>
</g>
<circle style="fill:#D1F4FF;" cx="72.002" cy="440.002" r="72"/>
<path style="fill:#B2EDFF;" d="M100.002,484.005c-39.764,0-72-32.236-72-72c0-12.604,3.257-24.438,8.947-34.742
	c-22.007,12.312-36.947,35.731-36.947,62.742c0,39.764,32.236,72,72,72c27.011,0,50.431-14.939,62.742-36.947
	C124.44,480.748,112.606,484.005,100.002,484.005z"/>
<g>
</g>
<g>
</g>
<g>
</g>
<g>
</g>
<g>
</g>
<g>
</g>
<g>
</g>
<g>
</g>
<g>
</g>
<g>
</g>
<g>
</g>
<g>
</g>
<g>
</g>
<g>
</g>
<g>
</g>
</svg>
