<?xml version="1.0" encoding="iso-8859-1"?>
<!-- Generator: Adobe Illustrator 19.0.0, SVG Export Plug-In . SVG Version: 6.00 Build 0)  -->
<svg version="1.1" id="Capa_1" xmlns="http://www.w3.org/2000/svg" xmlns:xlink="http://www.w3.org/1999/xlink" x="0px" y="0px"
	 viewBox="0 0 512 512" style="enable-background:new 0 0 512 512;" xml:space="preserve">
<g>
	<path style="fill:#B9374B;" d="M213.731,405.045c-0.859,0-1.733-0.139-2.592-0.429c-4.262-1.431-6.56-6.047-5.129-10.309
		l25.54-76.007c2.179-6.46,6.989-11.752,13.207-14.527l121.918-53.759c4.119-1.797,8.929,0.056,10.734,4.166
		c1.813,4.115-0.048,8.921-4.167,10.734l-121.886,53.743c-2.036,0.91-3.642,2.68-4.373,4.834l-25.532,75.999
		C220.307,402.894,217.135,405.045,213.731,405.045z"/>
	<path style="fill:#B9374B;" d="M158.255,383.668c-1.391,0-2.807-0.358-4.103-1.113c-3.88-2.27-5.184-7.256-2.918-11.136
		l41.776-71.482c2.743-4.691,7.037-8.377,12.086-10.384l100.29-39.657c4.174-1.658,8.905,0.386,10.567,4.576
		c1.654,4.182-0.398,8.913-4.572,10.563l-100.282,39.657c-1.686,0.668-3.117,1.9-4.031,3.463l-41.776,71.478
		C163.781,382.224,161.054,383.668,158.255,383.668z"/>
	<path style="fill:#B9374B;" d="M111.955,339.395c-2.195,0-4.389-0.887-5.995-2.632c-3.045-3.308-2.823-8.46,0.485-11.502
		l54.18-49.831c2.775-2.544,6.13-4.437,9.717-5.478l72.071-21.806c4.326-1.308,8.85,1.133,10.154,5.435
		c1.304,4.302-1.129,8.85-5.431,10.15l-72.158,21.834c-1.288,0.374-2.409,1.01-3.34,1.861l-54.172,49.819
		C115.898,338.683,113.926,339.395,111.955,339.395z"/>
</g>
<path style="fill:#FF8087;" d="M504.304,355.679l-28.497,6.107c-9.203,21.132-23.427,33.817-31.818,39.891
	c-2.211,1.6-1.328,5.073,1.379,5.412l12.119,1.515l-20.229,28.693c-1.499,2.127,0.228,5.029,2.811,4.708
	c11.25-1.398,34.621-6.52,49.987-25.259l4.89,21.442c0.624,2.735,4.319,3.199,5.596,0.701c3.764-7.365,9.16-19.963,10.887-34.356
	C514.482,379.088,504.304,355.679,504.304,355.679z"/>
<circle style="fill:#E6646E;" cx="486.49" cy="346.01" r="24.426"/>
<path style="fill:#FF8087;" d="M473.89,279.483c-1.947-1.124-8.037-3.92-10.043-4.717l-38.675,30.279
	c2.882,8.248,10.667,19.339,19.763,24.59c17.336,10.009,37.87,6.896,45.866-6.953C498.798,308.833,491.226,289.492,473.89,279.483z"
	/>
<path style="fill:#E6646E;" d="M426.106,239.144l-45.8,37.997c4.852,12.179,19.224,25.071,35.858,28.629
	c23.718,5.073,46.112-5.622,50.019-23.888C470.09,263.616,451.211,243.555,426.106,239.144z"/>
<path style="fill:#FF8087;" d="M383.83,205.636c-5.318-0.716-10.524-0.79-15.478-0.298l-24.251,60.649
	c7.816,6.161,18.212,10.617,29.97,12.199c27.338,3.677,51.684-9.583,54.378-29.618C431.144,228.534,411.166,209.312,383.83,205.636z
	"/>
<g>
	<path style="fill:#E6646E;" d="M382.681,225.913c-14.758-64.628-167.932-41.729-167.932-41.729l-2.036,72.262
		C326.195,287.488,390.65,260.811,382.681,225.913z"/>
	<path style="fill:#E6646E;" d="M44.185,203.304c-10.392,0-20.506-3.666-28.561-10.496C5.693,184.384,0,172.079,0,159.051
		c0-17.433,10.281-33.292,26.2-40.405c60.43-27.003,269.2-105.26,418.748,21.675c3.427,2.91,3.848,8.047,0.938,11.474
		s-8.039,3.852-11.482,0.938C292.115,31.957,91.066,107.483,32.847,133.515c-10.058,4.496-16.563,14.519-16.563,25.536
		c0,8.238,3.602,16.014,9.876,21.337c6.258,5.319,14.519,7.609,22.598,6.254c23.679-3.9,59.412-9.895,95.185-16.292
		c4.421-0.795,8.651,2.155,9.446,6.584c0.795,4.425-2.155,8.655-6.584,9.446c-35.86,6.413-71.665,12.42-95.392,16.332
		C49.004,203.109,46.587,203.304,44.185,203.304z"/>
</g>
<path style="fill:#FF8087;" d="M231.604,205.162l-1.202-4.103c-4.68-15.977-24.135-41.979-49.579-37.23L56.826,185.275
	c-8.364,1.446-9.613,12.939-1.755,16.149l25.957,10.603c4.11,1.596,4.811,7.115,1.228,9.686l-8.886,6.379
	c-3.765,2.703-2.77,8.556,1.683,9.84c24.642,7.112,84.393,23.789,110.423,26.06c1.602,0.14,3.192,0.197,4.765,0.176
	C219.812,263.773,239.919,233.543,231.604,205.162z"/>
<circle style="fill:#4B3F4E;" cx="170.99" cy="177.06" r="24.426"/>
<circle style="fill:#FFFFFF;" cx="175.62" cy="172.42" r="9.391"/>
<path style="fill:#E6646E;" d="M166.606,228.975l-85.578-16.949c4.11,1.596,4.811,7.115,1.228,9.686l-8.886,6.379
	c-3.767,2.704-2.79,8.549,1.665,9.835c22.446,6.478,73.995,20.873,102.682,25.102l0,0
	C188.585,251.234,182.339,232.091,166.606,228.975z"/>
<g>
</g>
<g>
</g>
<g>
</g>
<g>
</g>
<g>
</g>
<g>
</g>
<g>
</g>
<g>
</g>
<g>
</g>
<g>
</g>
<g>
</g>
<g>
</g>
<g>
</g>
<g>
</g>
<g>
</g>
</svg>
