<?xml version="1.0" encoding="iso-8859-1"?>
<!-- Generator: Adobe Illustrator 19.0.0, SVG Export Plug-In . SVG Version: 6.00 Build 0)  -->
<svg version="1.1" id="Capa_1" xmlns="http://www.w3.org/2000/svg" xmlns:xlink="http://www.w3.org/1999/xlink" x="0px" y="0px"
	 viewBox="0 0 512 512" style="enable-background:new 0 0 512 512;" xml:space="preserve">
<path style="fill:#E6646E;" d="M491.654,245.999c-1.001-33.36-30.105-59.078-63.479-59.078h-5.572
	c24.296,0,44.064,19.383,44.683,43.53c0.644,25.109-21.606,44.884-46.697,43.744l-84.058-3.821
	c-8.681-0.395-15.516-7.547-15.516-16.237v-18.453H190.984v18.453c0,8.69-6.835,15.843-15.516,16.237l-84.058,3.821
	c-25.091,1.141-47.341-18.635-46.697-43.744c0.62-24.146,20.388-43.53,44.683-43.53h-5.572c-33.375,0-62.479,25.718-63.479,59.078
	c-1.036,34.519,26.639,62.827,60.924,62.827h109.603c-14.974,19.898-38.8,32.756-65.681,32.504
	c-31.282-0.293-56.113,26.599-56.113,57.883v15.264c0-22.442,18.192-40.635,40.635-40.635h32.508
	c10.657,0,42.213-7.066,65.016-25.62V445.4c0,17.173-11.247,32.972-27.961,36.915c-23.497,5.544-45.182-12.236-45.182-35.555v2.074
	c0,28.925,22.289,54.148,51.2,55.016c29.916,0.898,54.45-23.086,54.45-52.801V350.331c0-8.096,5.532-15.601,13.523-16.902
	c10.183-1.657,18.985,6.159,18.985,16.031v99.372c0,28.925,22.289,54.148,51.2,55.016c29.916,0.898,54.45-23.086,54.45-52.801
	v-4.289c0,23.319-21.684,41.099-45.182,35.555c-16.714-3.943-27.961-19.742-27.961-36.915V348.22
	c22.803,18.554,54.359,25.62,65.016,25.62h32.508c22.442,0,40.635,18.193,40.635,40.635v-15.264
	c0-31.283-24.831-58.176-56.113-57.883c-26.88,0.252-50.707-12.606-65.681-32.504H430.73
	C465.016,308.825,492.69,280.517,491.654,245.999z"/>
<g>
	<path style="fill:#DC4655;" d="M312.889,316.952H430.73c38.087,0,69.079-30.988,69.079-69.079s-30.992-69.079-69.079-69.079h-12.19
		c-8.96,0-16.254-7.29-16.254-16.254c0-4.488-3.635-8.127-8.127-8.127s-8.127,3.639-8.127,8.127
		c0,17.925,14.579,32.508,32.508,32.508h12.19c29.127,0,52.825,23.698,52.825,52.825s-23.698,52.825-52.825,52.825H312.889
		c-4.492,0-8.127,3.639-8.127,8.127S308.397,316.952,312.889,316.952z"/>
	<path style="fill:#DC4655;" d="M325.079,512c-33.611,0-60.952-27.341-60.952-60.952V349.46c0-4.48-3.643-8.127-8.127-8.127
		s-8.127,3.647-8.127,8.127v101.587c0,33.611-27.341,60.952-60.952,60.952s-60.952-27.341-60.952-60.952v-12.19
		c0-13.444-10.937-24.381-24.381-24.381c-4.492,0-8.127-3.639-8.127-8.127s3.635-8.127,8.127-8.127
		c22.405,0,40.635,18.23,40.635,40.635v12.19c0,24.647,20.056,44.698,44.698,44.698s44.698-20.052,44.698-44.698V349.46
		c0-13.444,10.937-24.381,24.381-24.381s24.381,10.936,24.381,24.381v101.587c0,24.647,20.056,44.698,44.698,44.698
		c24.643,0,44.698-20.052,44.698-44.698v-12.19c0-22.405,18.23-40.635,40.635-40.635c4.492,0,8.127,3.639,8.127,8.127
		s-3.635,8.127-8.127,8.127c-13.444,0-24.381,10.936-24.381,24.381v12.19C386.032,484.659,358.69,512,325.079,512z"/>
</g>
<path style="fill:#FF8087;" d="M256,0c-52.215,0-93.016,45.083-87.819,97.04l14.677,146.77h40.635v16.254
	c0,17.953,14.554,32.508,32.508,32.508s32.508-14.555,32.508-32.508V243.81h40.635l14.677-146.77C349.016,45.083,308.215,0,256,0z"
	/>
<path style="fill:#E6646E;" d="M207.685,91.568c-3.371-37.463,12.69-71.611,38.608-91.04C198.835,5.7,163.312,48.351,168.181,97.04
	l14.677,146.77h38.53L207.685,91.568z"/>
<path style="fill:#DC4655;" d="M222.968,324.818c-3.592-1.796-8-0.727-10.228,2.613c-17.401,26.076-56.113,38.283-78.645,38.283
	h-24.381c-26.889,0-48.762,21.873-48.762,48.762c0,8.964-7.294,16.254-16.254,16.254c-4.492,0-8.127,3.639-8.127,8.127
	s3.635,8.127,8.127,8.127c17.734,0,32.19-14.268,32.503-31.924c0.32-18.088,13.824-33.091,31.915-33.091h24.979
	c26.895,0,71.022-14.135,92.028-45.319C228.86,332.588,227.349,327.008,222.968,324.818L222.968,324.818z"/>
<g>
	<path style="fill:#4B3F4E;" d="M207.238,260.064h-8.127c-8.977,0-16.254-7.277-16.254-16.254l0,0
		c0-8.977,7.277-16.254,16.254-16.254h8.127c8.977,0,16.254,7.277,16.254,16.254l0,0
		C223.492,252.786,216.215,260.064,207.238,260.064z"/>
	<path style="fill:#4B3F4E;" d="M312.889,260.064h-8.127c-8.977,0-16.254-7.277-16.254-16.254l0,0
		c0-8.977,7.277-16.254,16.254-16.254h8.127c8.977,0,16.254,7.277,16.254,16.254l0,0
		C329.143,252.786,321.866,260.064,312.889,260.064z"/>
</g>
<g>
	<path style="fill:#DC4655;" d="M199.111,316.952H81.27c-38.087,0-69.079-30.988-69.079-69.079s30.992-69.079,69.079-69.079h12.19
		c8.96,0,16.254-7.29,16.254-16.254c0-4.488,3.635-8.127,8.127-8.127s8.127,3.639,8.127,8.127c0,17.925-14.579,32.508-32.508,32.508
		H81.27c-29.127,0-52.825,23.698-52.825,52.825s23.698,52.825,52.825,52.825h117.841c4.492,0,8.127,3.639,8.127,8.127
		S203.603,316.952,199.111,316.952z"/>
	<path style="fill:#DC4655;" d="M467.302,430.73c-8.96,0-16.254-7.29-16.254-16.254c0-26.889-21.873-48.762-48.762-48.762h-24.381
		c-22.531,0-61.243-12.208-78.645-38.283c-2.229-3.34-6.637-4.409-10.228-2.613l0,0c-4.381,2.19-5.891,7.77-3.155,11.832
		c21.007,31.184,65.133,45.319,92.028,45.319h24.979c18.091,0,31.595,15.003,31.915,33.091
		c0.312,17.657,14.769,31.924,32.503,31.924c4.492,0,8.127-3.639,8.127-8.127S471.794,430.73,467.302,430.73z"/>
</g>
<g>
</g>
<g>
</g>
<g>
</g>
<g>
</g>
<g>
</g>
<g>
</g>
<g>
</g>
<g>
</g>
<g>
</g>
<g>
</g>
<g>
</g>
<g>
</g>
<g>
</g>
<g>
</g>
<g>
</g>
</svg>
