<?xml version="1.0" encoding="iso-8859-1"?>
<!-- Generator: Adobe Illustrator 19.0.0, SVG Export Plug-In . SVG Version: 6.00 Build 0)  -->
<svg version="1.1" id="Capa_1" xmlns="http://www.w3.org/2000/svg" xmlns:xlink="http://www.w3.org/1999/xlink" x="0px" y="0px"
	 viewBox="0 0 512 512" style="enable-background:new 0 0 512 512;" xml:space="preserve">
<rect x="231.409" y="430.04" style="fill:#965A50;" width="49.18" height="73.77"/>
<path style="fill:#AF6E5A;" d="M280.587,503.804v-49.177h-16.392c-4.527,0-8.196,3.669-8.196,8.196v40.98L280.587,503.804
	L280.587,503.804z"/>
<path style="fill:#96BE4B;" d="M296.979,512h-81.96c-4.526,0-8.196-3.666-8.196-8.196c0-4.53,3.67-8.196,8.196-8.196h81.961
	c4.526,0,8.196,3.666,8.196,8.196C305.176,508.334,301.506,512,296.979,512z"/>
<path style="fill:#AFD755;" d="M319.226,249.725H192.772l-54.818,127.909c-2.318,5.408,1.649,11.425,7.533,11.425H366.51
	c5.884,0,9.851-6.017,7.533-11.425L319.226,249.725z"/>
<path style="fill:#96BE4B;" d="M217.322,377.634l11.216-79.872c0.568-4.047,4.03-7.056,8.116-7.056h100.135l-17.563-40.98H192.772
	l-54.818,127.909c-2.318,5.408,1.649,11.425,7.533,11.425h74.303C217.862,389.059,216.563,383.042,217.322,377.634z"/>
<path style="fill:#AFD755;" d="M358.45,389.059H153.548l-21.496,36.851c-3.187,5.464,0.754,12.326,7.08,12.326h116.867h116.868
	c6.326,0,10.267-6.862,7.08-12.326L358.45,389.059z"/>
<path style="fill:#96BE4B;" d="M215.388,425.909l2.638-13.801c0.738-3.863,4.117-6.657,8.05-6.657h141.936l-9.562-16.392H153.548
	l-21.496,36.85c-3.187,5.464,0.754,12.326,7.08,12.326h78.576C215.635,438.235,214.344,431.373,215.388,425.909z"/>
<path style="fill:#AFD755;" d="M248.614,68.356l-93.506,194.205c-2.62,5.442,1.345,11.752,7.385,11.752h187.013
	c6.039,0,10.005-6.31,7.385-11.752L263.384,68.356C260.405,62.169,251.593,62.169,248.614,68.356z"/>
<path style="fill:#96BE4B;" d="M248.614,68.356l-93.506,194.205c-2.62,5.442,1.345,11.752,7.385,11.752h62.869
	c-1.979,0-3.278-6.31-2.42-11.752l30.637-194.205c0.488-3.094,1.454-4.64,2.42-4.64C253.051,63.716,250.104,65.263,248.614,68.356z"
	/>
<g>
	<circle style="fill:#FFDC64;" cx="231.409" cy="216.94" r="16.392"/>
	<circle style="fill:#FFDC64;" cx="305.179" cy="331.69" r="16.392"/>
</g>
<g>
	<circle style="fill:#E6646E;" cx="313.369" cy="184.16" r="16.392"/>
	<circle style="fill:#E6646E;" cx="206.819" cy="143.18" r="16.392"/>
</g>
<circle style="fill:#FFDC64;" cx="198.629" cy="389.06" r="16.392"/>
<circle style="fill:#E6646E;" cx="174.039" cy="315.29" r="16.392"/>
<path style="fill:#FFDC64;" d="M232.3,53.184L227.889,78.9c-0.484,2.824,2.479,4.977,5.015,3.644l23.095-12.142l23.095,12.142
	c2.536,1.333,5.499-0.82,5.015-3.644l-4.41-25.716l18.684-18.212c2.051-2,0.919-5.484-1.916-5.896l-25.821-3.752L259.099,1.927
	c-1.268-2.569-4.931-2.569-6.199,0l-11.547,23.397l-25.821,3.752c-2.835,0.412-3.967,3.896-1.916,5.896L232.3,53.184z"/>
<path style="fill:#FFC850;" d="M213.616,34.972L232.3,53.184L227.889,78.9c-0.484,2.823,2.48,4.977,5.016,3.644L256,70.402
	l23.095,12.142c1.074,0.565,2.182,0.409,3.115-0.063l-40.856-57.157l-25.821,3.752C212.697,29.488,211.565,32.972,213.616,34.972z"
	/>
<g>
</g>
<g>
</g>
<g>
</g>
<g>
</g>
<g>
</g>
<g>
</g>
<g>
</g>
<g>
</g>
<g>
</g>
<g>
</g>
<g>
</g>
<g>
</g>
<g>
</g>
<g>
</g>
<g>
</g>
</svg>
