<?xml version="1.0" encoding="iso-8859-1"?>
<!-- Generator: Adobe Illustrator 19.0.0, SVG Export Plug-In . SVG Version: 6.00 Build 0)  -->
<svg version="1.1" id="Capa_1" xmlns="http://www.w3.org/2000/svg" xmlns:xlink="http://www.w3.org/1999/xlink" x="0px" y="0px"
	 viewBox="0 0 511.999 511.999" style="enable-background:new 0 0 511.999 511.999;" xml:space="preserve">
<path style="fill:#DC4655;" d="M378.251,91.751l26.75,64.75l-2.667,27.5c0,0-79-36-86.333-100.667L378.251,91.751z"/>
<path style="fill:#B9374B;" d="M284.837,61.001c2.594-3.59,7.586-4.41,11.172-1.828c40.063,28.793,52.969,25.797,55.938,24.199
	c2.783-1.491,3.287-5.236,3.375-6.854c-14.663-14.933-31.21-26.379-46.571-33.208c-4.039-1.793-5.852-6.52-4.063-10.559
	c1.797-4.031,6.516-5.859,10.563-4.059c40.094,17.816,87.656,63.984,97.328,123.238c5.102,31.238,1.063,77.754-47.172,121.969
	c-1.539,1.406-3.477,2.102-5.406,2.102c-2.164,0-4.32-0.875-5.898-2.594c-2.984-3.258-2.766-8.316,0.492-11.305
	c34.008-31.172,48.602-68.379,42.195-107.594c-3.332-20.405-11.703-39.068-22.776-55.269c-2.883-4.219-8.671-5.583-12.933-2.765
	c-3.167,2.094-7.616,3.816-13.721,3.816c-14.477,0-34.508-9.309-60.695-28.125C283.079,69.587,282.259,64.587,284.837,61.001z"/>
<path style="fill:#DC4655;" d="M133.75,91.751L107,156.501l2.667,27.5c0,0,79-36,86.334-100.667L133.75,91.751z"/>
<polygon style="fill:#B9374B;" points="310.558,220.001 294.243,220.001 302.243,180.001 318.558,180.001 "/>
<circle style="fill:#4B3F4E;" cx="312" cy="172" r="16"/>
<g>
	<polygon style="fill:#B9374B;" points="201.443,220.001 217.758,220.001 209.758,180.001 193.443,180.001 	"/>
	<path style="fill:#B9374B;" d="M504,348.001c2.227,0,4.438-0.926,6.023-2.73c2.906-3.328,2.57-8.379-0.758-11.289l-59.477-52.043
		c-4.367-3.828-9.984-5.938-15.805-5.938H352c-4.422,0-8,3.582-8,8s3.578,8,8,8h81.984c1.945,0,3.813,0.703,5.273,1.977
		l59.477,52.043C500.25,347.349,502.125,348.001,504,348.001z"/>
	<path style="fill:#B9374B;" d="M477.344,401.333c1.688,0,3.391-0.531,4.836-1.633c3.516-2.672,4.195-7.691,1.523-11.211l-45.625-60
		c-3-3.934-7.063-6.805-11.742-8.313l-87.922-27.805c-4.234-1.324-8.711,1.008-10.039,5.219c-1.336,4.211,1,8.707,5.211,10.039
		l87.883,27.789c1.523,0.488,2.875,1.449,3.883,2.766l45.617,59.992C472.539,400.244,474.93,401.333,477.344,401.333z"/>
	<path style="fill:#B9374B;" d="M443.344,443.333c1.234,0,2.484-0.285,3.664-0.891c3.922-2.027,5.461-6.852,3.438-10.777
		l-30.242-58.586c-1.727-3.348-4.258-6.277-7.313-8.477l-88.234-63.109c-3.602-2.57-8.586-1.742-11.164,1.855
		c-2.57,3.594-1.742,8.59,1.852,11.16l88.219,63.094c1,0.719,1.844,1.695,2.422,2.813l30.242,58.586
		C437.648,441.755,440.445,443.333,443.344,443.333z"/>
	<path style="fill:#B9374B;" d="M398.656,484.001c0.586,0,1.172-0.063,1.766-0.195c4.305-0.969,7.016-5.25,6.047-9.559
		l-16.891-75.082c-1.086-4.828-3.594-9.141-7.258-12.477l-80.82-76.496c-3.211-3.031-8.266-2.898-11.313,0.309
		c-3.031,3.211-2.898,8.273,0.313,11.309l80.938,76.605c1.336,1.219,2.172,2.652,2.531,4.258l16.891,75.082
		C391.695,481.478,395,484.001,398.656,484.001z"/>
	<path style="fill:#B9374B;" d="M8,348.001c-2.227,0-4.438-0.926-6.023-2.73c-2.906-3.328-2.57-8.379,0.758-11.289l59.477-52.043
		c4.367-3.828,9.984-5.938,15.805-5.938H160c4.422,0,8,3.582,8,8s-3.578,8-8,8H78.016c-1.945,0-3.813,0.703-5.273,1.977
		l-59.477,52.043C11.75,347.349,9.875,348.001,8,348.001z"/>
	<path style="fill:#B9374B;" d="M34.657,401.333c-1.688,0-3.391-0.531-4.836-1.633c-3.516-2.672-4.195-7.691-1.523-11.211l45.625-60
		c3-3.934,7.063-6.805,11.742-8.313l87.922-27.805c4.234-1.324,8.711,1.008,10.039,5.219c1.336,4.211-1,8.707-5.211,10.039
		l-87.883,27.789c-1.523,0.488-2.875,1.449-3.883,2.766l-45.617,59.992C39.461,400.244,37.071,401.333,34.657,401.333z"/>
	<path style="fill:#B9374B;" d="M68.657,443.333c-1.234,0-2.484-0.285-3.664-0.891c-3.922-2.027-5.461-6.852-3.438-10.777
		l30.242-58.586c1.727-3.348,4.258-6.277,7.313-8.477l88.234-63.109c3.602-2.57,8.586-1.742,11.164,1.855
		c2.57,3.594,1.742,8.59-1.852,11.16l-88.219,63.094c-1,0.719-1.844,1.695-2.422,2.813l-30.242,58.586
		C74.352,441.755,71.555,443.333,68.657,443.333z"/>
	<path style="fill:#B9374B;" d="M113.344,484.001c-0.586,0-1.172-0.063-1.766-0.195c-4.305-0.969-7.016-5.25-6.047-9.559
		l16.891-75.082c1.086-4.828,3.594-9.141,7.258-12.477l80.82-76.496c3.211-3.031,8.266-2.898,11.313,0.309
		c3.031,3.211,2.898,8.273-0.313,11.309l-80.937,76.605c-1.336,1.219-2.172,2.652-2.531,4.258l-16.891,75.082
		C120.305,481.478,117,484.001,113.344,484.001z"/>
</g>
<path style="fill:#E6646E;" d="M256,204.001c-61.856,0-112,37.608-112,84s80,84,112,84s112-37.608,112-84
	S317.856,204.001,256,204.001z"/>
<path style="fill:#B9374B;" d="M227.164,61.001c-2.594-3.59-7.586-4.41-11.172-1.828c-40.063,28.793-52.969,25.797-55.938,24.199
	c-2.783-1.491-3.287-5.236-3.375-6.854c14.663-14.933,31.21-26.379,46.571-33.208c4.039-1.793,5.852-6.52,4.063-10.559
	c-1.797-4.031-6.516-5.859-10.563-4.059c-40.094,17.816-87.656,63.984-97.328,123.238c-5.102,31.238-1.063,77.754,47.172,121.969
	c1.539,1.406,3.477,2.102,5.406,2.102c2.164,0,4.32-0.875,5.898-2.594c2.984-3.258,2.766-8.316-0.492-11.305
	c-34.008-31.172-48.602-68.379-42.195-107.594c3.332-20.405,11.703-39.068,22.776-55.269c2.883-4.219,8.671-5.583,12.933-2.765
	c3.167,2.094,7.616,3.816,13.721,3.816c14.477,0,34.508-9.309,60.695-28.125C228.922,69.587,229.743,64.587,227.164,61.001z"/>
<circle style="fill:#4B3F4E;" cx="200" cy="172" r="16"/>
<path style="fill:#DC4655;" d="M192,288.001c0-36.977,20.913-68.771,51.006-83.39c-55.724,4.838-99.006,40.3-99.006,83.39
	c0,45.508,76.951,82.539,110.089,83.934C226.076,357.562,192,325.423,192,288.001z"/>
<g>
</g>
<g>
</g>
<g>
</g>
<g>
</g>
<g>
</g>
<g>
</g>
<g>
</g>
<g>
</g>
<g>
</g>
<g>
</g>
<g>
</g>
<g>
</g>
<g>
</g>
<g>
</g>
<g>
</g>
</svg>
