<?xml version="1.0" encoding="iso-8859-1"?>
<!-- Generator: Adobe Illustrator 19.0.0, SVG Export Plug-In . SVG Version: 6.00 Build 0)  -->
<svg version="1.1" id="Capa_1" xmlns="http://www.w3.org/2000/svg" xmlns:xlink="http://www.w3.org/1999/xlink" x="0px" y="0px"
	 viewBox="0 0 512 512" style="enable-background:new 0 0 512 512;" xml:space="preserve">
<path style="fill:#EBAF4B;" d="M373.166,55.686l11.843,49.134l-32.252,8.063l-9.071-54.677
	C356.284,82.395,376.19,73.324,373.166,55.686z"/>
<path style="fill:#FFC850;" d="M253.182,145.643l81.423-30.385c5.755-2.148,8.958-8.239,7.522-14.211
	c-4.3-17.884-14.522-50.289-35.386-71.156c-3.15-3.15-3.15-8.252,0-11.402s8.252-3.15,11.402,0
	c22.258,22.258,34.704,54.148,40.377,74.127c2.075,7.306,11.886,8.291,15.544,1.635c2.321-4.224,3.409-9.151,2.906-14.199
	c-1.843-18.437-8.528-44.898-29.913-66.287c-3.15-3.15-3.15-8.252,0-11.402s8.252-3.15,11.402,0
	c24.756,24.752,32.457,55.035,34.559,76.087c1.803,18.106-8.74,35.291-25.724,41.823l-108.472,40.48
	c-0.929,0.346-1.882,0.512-2.819,0.512c-3.268,0-6.346-2.004-7.551-5.248C246.89,151.844,249.008,147.202,253.182,145.643z"/>
<path style="fill:#EBAF4B;" d="M138.835,55.686l-11.843,49.134l32.252,8.063l9.071-54.677
	C155.716,82.395,135.811,73.324,138.835,55.686z"/>
<path style="fill:#FFC850;" d="M258.819,145.643l-81.423-30.385c-5.755-2.148-8.958-8.239-7.522-14.211
	c4.3-17.884,14.522-50.289,35.386-71.156c3.15-3.15,3.15-8.252,0-11.402s-8.252-3.15-11.402,0
	c-22.258,22.258-34.704,54.148-40.377,74.127c-2.075,7.306-11.886,8.291-15.544,1.635c-2.321-4.224-3.409-9.151-2.906-14.199
	c1.843-18.437,8.528-44.898,29.913-66.287c3.15-3.15,3.15-8.252,0-11.402s-8.252-3.15-11.402,0
	c-24.756,24.752-32.457,55.035-34.559,76.087c-1.803,18.106,8.74,35.291,25.724,41.823l108.472,40.48
	c0.929,0.346,1.882,0.512,2.819,0.512c3.268,0,6.346-2.004,7.551-5.248C265.11,151.844,262.992,147.202,258.819,145.643z"/>
<g>
	<path style="fill:#EBAF4B;" d="M264.071,209.639c-2.961,0-5.803-1.63-7.22-4.457c-1.992-3.984-0.378-8.827,3.606-10.819
		l59.236-29.618c5.095-2.539,10.969-3.209,16.496-1.878l52.724,12.728c4.331,1.047,6.992,5.402,5.945,9.732
		c-1.039,4.335-5.441,6.984-9.724,5.945l-52.732-12.728c-1.866-0.445-3.803-0.228-5.496,0.626l-59.236,29.618
		C266.512,209.367,265.283,209.639,264.071,209.639z"/>
	<path style="fill:#EBAF4B;" d="M401.126,258.016c-1.354,0-2.732-0.343-3.992-1.063l-51.197-29.256
		c-1.693-0.965-3.677-1.276-5.583-0.906l-74.709,14.941c-4.425,0.882-8.622-1.965-9.488-6.323c-0.874-4.366,1.961-8.614,6.323-9.488
		l74.709-14.941c5.732-1.15,11.661-0.181,16.748,2.713l51.197,29.26c3.866,2.209,5.213,7.134,3,11
		C406.646,256.559,403.929,258.016,401.126,258.016z"/>
	<path style="fill:#EBAF4B;" d="M370.898,310.425c-2.142,0-4.276-0.846-5.858-2.528l-27.787-29.421
		c-2-2.118-4.984-3.008-7.827-2.287l-55.346,13.839c-4.315,1.091-8.693-1.551-9.772-5.866c-1.087-4.323,1.543-8.697,5.866-9.78
		l55.346-13.839c8.504-2.118,17.472,0.516,23.457,6.866l27.78,29.417c3.063,3.236,2.913,8.339-0.323,11.398
		C374.874,309.697,372.882,310.425,370.898,310.425z"/>
</g>
<path style="fill:#FFC850;" d="M347.055,495.862c-5.157,0-10.323-1.965-14.252-5.894l0,0l0,0l0,0
	c-3.811-3.807-5.906-8.866-5.906-14.252c0-5.386,2.094-10.449,5.906-14.252l5.701-5.701c7.858-7.858,20.646-7.858,28.504,0
	c3.811,3.803,5.906,8.866,5.906,14.252s-2.094,10.449-5.906,14.252l-5.701,5.701C357.378,493.898,352.22,495.862,347.055,495.862z"
	/>
<path style="fill:#EBAF4B;" d="M312.441,512h-8.063c-11.118,0-20.158-9.043-20.158-20.157s9.039-20.158,20.158-20.158h8.063
	c11.118,0,20.157,9.043,20.157,20.158C332.598,502.957,323.559,512,312.441,512z"/>
<path style="fill:#FFC850;" d="M272.126,493.5c-5.165,0-10.323-1.965-14.252-5.894l-5.701-5.701
	c-3.811-3.803-5.906-8.866-5.906-14.252c0-5.386,2.094-10.449,5.906-14.252c7.858-7.866,20.646-7.858,28.504,0l5.701,5.701
	c3.811,3.803,5.906,8.866,5.906,14.252c0,5.386-2.095,10.445-5.906,14.252l0,0l0,0C282.449,491.535,277.283,493.5,272.126,493.5z"/>
<path style="fill:#EBAF4B;" d="M256,455.559c-11.118,0-20.157-9.043-20.157-20.157v-16.126c0-11.114,9.039-20.158,20.157-20.158
	c11.118,0,20.157,9.043,20.157,20.158v16.126C276.157,446.516,267.118,455.559,256,455.559z"/>
<path style="fill:#FFC850;" d="M256,407.181c-13.339,0-24.189-10.85-24.189-24.189v-8.063c0-13.339,10.85-24.189,24.189-24.189
	s24.189,10.85,24.189,24.189v8.063C280.189,396.331,269.339,407.181,256,407.181z"/>
<path style="fill:#C87C40;" d="M360.819,429.354c-5.567,0-10.079-4.512-10.079-10.079v-48.378c0-5.567,4.512-10.079,10.079-10.079
	s10.079,4.512,10.079,10.079v48.378C370.898,424.843,366.386,429.354,360.819,429.354z"/>
<g>
	<path style="fill:#EBAF4B;" d="M247.929,209.639c-1.213,0-2.441-0.272-3.598-0.85l-59.236-29.618
		c-1.701-0.854-3.646-1.083-5.488-0.626l-52.74,12.728c-4.26,1.035-8.677-1.61-9.724-5.945c-1.047-4.331,1.614-8.685,5.945-9.732
		l52.732-12.728c5.543-1.331,11.394-0.661,16.488,1.878l59.236,29.618c3.984,1.992,5.598,6.835,3.606,10.819
		C253.732,208.008,250.89,209.639,247.929,209.639z"/>
	<path style="fill:#EBAF4B;" d="M110.874,258.016c-2.803,0-5.52-1.457-7.008-4.063c-2.213-3.866-0.866-8.791,3-11l51.197-29.256
		c5.079-2.898,11.024-3.85,16.748-2.717l74.709,14.941c4.362,0.874,7.197,5.122,6.323,9.488c-0.874,4.366-5.134,7.169-9.488,6.323
		l-74.709-14.941c-1.898-0.386-3.89-0.063-5.583,0.909l-51.197,29.252C113.606,257.673,112.228,258.016,110.874,258.016z"/>
	<path style="fill:#EBAF4B;" d="M141.102,310.425c-1.984,0-3.976-0.728-5.535-2.201c-3.236-3.059-3.386-8.161-0.323-11.398
		l27.787-29.421c5.984-6.346,14.969-8.984,23.449-6.862l55.346,13.839c4.323,1.083,6.953,5.457,5.866,9.78
		c-1.079,4.311-5.472,6.953-9.772,5.866l-55.346-13.839c-2.882-0.717-5.835,0.173-7.819,2.283l-27.795,29.425
		C145.378,309.579,143.244,310.425,141.102,310.425z"/>
</g>
<ellipse style="fill:#DC9646;" cx="256" cy="245.921" rx="48.38" ry="124.98"/>
<path style="fill:#C87C40;" d="M256,193.512c16.182,0,31.594,4.205,45.701,11.701c-6.542-49.007-24.507-84.268-45.701-84.268
	c-21.194,0-39.158,35.26-45.701,84.268C224.406,197.717,239.818,193.512,256,193.512z"/>
<g>
	<circle style="fill:#4B3F4E;" cx="227.78" cy="149.161" r="12.09"/>
	<circle style="fill:#4B3F4E;" cx="284.22" cy="149.161" r="12.09"/>
</g>
<g>
	<path style="fill:#B46432;" d="M256,249.954c-17.075,0-33.311,3.6-48.053,10.012c0.256,5.905,0.705,11.644,1.268,17.271
		c14.104-7.075,29.961-11.156,46.785-11.156s32.681,4.081,46.785,11.156c0.563-5.626,1.012-11.367,1.268-17.271
		C289.311,253.553,273.075,249.954,256,249.954z"/>
	<path style="fill:#B46432;" d="M212.965,302.832c1.172,5.902,2.526,11.5,4.032,16.81c10.846-8.274,24.339-13.249,39.002-13.249
		s28.156,4.974,39.002,13.249c1.506-5.311,2.861-10.908,4.032-16.81c-12.47-7.913-27.205-12.564-43.035-12.564
		S225.436,294.919,212.965,302.832z"/>
	<path style="fill:#B46432;" d="M208.33,225.395c-0.364,5.683-0.59,11.479-0.646,17.393c15.052-5.697,31.292-8.96,48.316-8.96
		s33.264,3.262,48.316,8.96c-0.057-5.914-0.282-11.71-0.646-17.393c-15.022-4.935-31.019-7.693-47.67-7.693
		S223.351,220.46,208.33,225.395z"/>
</g>
<path style="fill:#EBAF4B;" d="M360.819,455.559c-11.118,0-20.158-9.043-20.158-20.157v-8.063c0-11.114,9.039-20.158,20.158-20.158
	c11.118,0,20.157,9.043,20.157,20.158v8.063C380.976,446.516,371.937,455.559,360.819,455.559z"/>
<g>
</g>
<g>
</g>
<g>
</g>
<g>
</g>
<g>
</g>
<g>
</g>
<g>
</g>
<g>
</g>
<g>
</g>
<g>
</g>
<g>
</g>
<g>
</g>
<g>
</g>
<g>
</g>
<g>
</g>
</svg>
