<?xml version="1.0" encoding="iso-8859-1"?>
<!-- Generator: Adobe Illustrator 19.0.0, SVG Export Plug-In . SVG Version: 6.00 Build 0)  -->
<svg version="1.1" id="Capa_1" xmlns="http://www.w3.org/2000/svg" xmlns:xlink="http://www.w3.org/1999/xlink" x="0px" y="0px"
	 viewBox="0 0 512 512" style="enable-background:new 0 0 512 512;" xml:space="preserve">
<g>
	<path style="fill:#78AA55;" d="M298.767,347.226l-51.9,24.393v-53.961l40.694-7.044c9.178-1.512,18.323,1.794,24.396,8.891
		c6.065,7.101,7.919,16.625,4.96,25.48l-12.508,37.545c-0.855,2.573-0.395,5.407,1.226,7.573l0.984,1.311l21.057-4.633
		c4.444-0.988,8.863,1.835,9.839,6.29c0.984,4.456-1.839,8.859-6.29,9.839l-13.5,2.972l7.573,10.44
		c2.661,3.669,1.863,8.803-1.782,11.492c-1.476,1.089-3.194,1.613-4.895,1.613c-2.516,0-4.992-1.141-6.613-3.302l-19.581-26.109
		c-4.879-6.5-6.258-14.984-3.686-22.702L298.767,347.226z"/>
	<path style="fill:#78AA55;" d="M359.226,137.115c-1.806-4.186-6.669-6.121-10.855-4.307l-16.271,7.026l2.868-14.341
		c0.895-4.476-2.008-8.823-6.476-9.718c-4.516-0.919-8.823,2.012-9.718,6.476l-14.428,72.138c-0.637,3.177-3.081,5.698-5.944,6.367
		l-70.631,13.8l-70.347-13.74c-3.145-0.73-5.589-3.25-6.226-6.423l-14.428-72.142c-0.887-4.464-5.194-7.387-9.718-6.476
		c-4.468,0.895-7.371,5.242-6.476,9.718l2.868,14.341l-16.271-7.026c-4.202-1.806-9.049,0.121-10.855,4.307
		s0.121,9.049,4.307,10.855l26.757,11.555l7.622,38.116c1.911,9.512,9.242,17.077,18.976,19.327l72.211,14.109
		c0.52,0.102,1.04,0.148,1.553,0.15c0,0,0.013,0.004,0.02,0.004l0.008-0.001l0.008,0.001c0.007,0,0.013-0.004,0.013-0.004
		c0.52-0.002,1.04-0.047,1.56-0.15l72.493-14.17c9.452-2.19,16.783-9.754,18.694-19.27l7.622-38.111l26.758-11.555
		C359.105,146.164,361.033,141.301,359.226,137.115z"/>
</g>
<path style="fill:#96BE4B;" d="M416.319,184.553L416.319,184.553c-0.343-3.343-2.856-6.046-6.163-6.646
	c-18.033-3.269-41.684,1.572-55.414,25.451c-22.529,39.181,2.345,97.26,4.946,186.587c0.44,15.121-2.479,30.333-9.715,43.617
	c-7.868,14.445-21.541,28.886-44.76,28.875c-0.137,0-0.274,0.015-0.411,0.022l0,0c-24.687,0-45.495-19.311-46.348-43.983
	c-2-57.833,18.869-118.411,18.869-178.988c0-12.831-4.89-24.503-12.898-33.29c-8.146-8.938-11.876-21.061-11.876-33.154v-4.625
	c0-13.792,6.42-26.427,16.406-35.94c9.788-9.324,16.627-22.964,16.627-41.639c0-10.95-1.63-21.839-4.835-32.309l-2.018-6.59
	C268.976,23.736,249.815,0,227.772,0c-22.204,0-41.485,24.085-51.168,52.563l-1.835,6.015c-3.185,10.439-4.804,21.293-4.804,32.208
	v0.054c0,18.675,6.839,32.315,16.627,41.639c9.986,9.513,16.406,22.148,16.406,35.94v4.625c0,12.093-3.73,24.216-11.876,33.154
	c-8.009,8.787-12.898,20.459-12.898,33.29v161.854c0,52.713,36.65,99.813,88.553,109.015
	c67.769,12.014,125.12-43.744,122.719-105.705c-3.441-88.776-27.206-146.428-22.71-180.648
	c3.365-25.611,24.131-33.244,41.491-31.261C412.926,193.273,416.797,189.209,416.319,184.553z"/>
<path id="SVGCleanerId_0" style="fill:#4B3F4E;" d="M186.481,90.84L186.481,90.84c-9.122,0-16.516-7.395-16.516-16.516v-8.258
	c0-9.122,7.395-16.516,16.516-16.516l0,0c9.122,0,16.516,7.395,16.516,16.516v8.258C202.998,83.446,195.603,90.84,186.481,90.84z"/>
<path id="SVGCleanerId_1" style="fill:#4B3F4E;" d="M269.063,90.84L269.063,90.84c-9.122,0-16.516-7.395-16.516-16.516v-8.258
	c0-9.122,7.395-16.516,16.516-16.516l0,0c9.122,0,16.516,7.395,16.516,16.516v8.258C285.58,83.446,278.185,90.84,269.063,90.84z"/>
<path style="fill:#78AA55;" d="M202.998,168.419v4.626c0,12.093-3.73,24.216-11.876,33.153
	c-8.009,8.787-12.898,20.459-12.898,33.289v161.854c0,52.713,36.65,99.814,88.553,109.015c5.136,0.91,10.183,1.309,15.177,1.468
	c-34.79-1.894-62.44-30.62-62.44-65.883V231.23c0-34.654,2.272-57.947,4.433-72.263c1.715-11.36,1.017-23.014-3.047-33.76
	c-20.838-55.092,4.619-103.173,20.59-122.061C237.089,1.15,232.503,0,227.772,0c-22.204,0-41.485,24.085-51.168,52.563l-1.835,6.015
	c-3.185,10.439-4.804,21.293-4.804,32.208v0.054c0,18.675,6.839,32.315,16.627,41.639
	C196.577,141.992,202.998,154.627,202.998,168.419z"/>
<g>
	<path id="SVGCleanerId_0_1_" style="fill:#4B3F4E;" d="M186.481,90.84L186.481,90.84c-9.122,0-16.516-7.395-16.516-16.516v-8.258
		c0-9.122,7.395-16.516,16.516-16.516l0,0c9.122,0,16.516,7.395,16.516,16.516v8.258C202.998,83.446,195.603,90.84,186.481,90.84z"
		/>
</g>
<g>
	<path id="SVGCleanerId_1_1_" style="fill:#4B3F4E;" d="M269.063,90.84L269.063,90.84c-9.122,0-16.516-7.395-16.516-16.516v-8.258
		c0-9.122,7.395-16.516,16.516-16.516l0,0c9.122,0,16.516,7.395,16.516,16.516v8.258C285.58,83.446,278.185,90.84,269.063,90.84z"/>
</g>
<path style="fill:#78AA55;" d="M142.84,347.226l51.9,24.393v-53.961l-40.694-7.044c-9.178-1.512-18.323,1.794-24.396,8.891
	c-6.065,7.101-7.919,16.625-4.96,25.48l12.508,37.545c0.855,2.573,0.395,5.407-1.226,7.573l-0.984,1.311l-21.057-4.633
	c-4.444-0.988-8.863,1.835-9.839,6.29c-0.984,4.456,1.839,8.859,6.29,9.839l13.5,2.972l-7.573,10.44
	c-2.661,3.669-1.863,8.803,1.782,11.492c1.476,1.089,3.194,1.613,4.895,1.613c2.516,0,4.992-1.141,6.613-3.302l19.581-26.109
	c4.879-6.5,6.258-14.984,3.686-22.702L142.84,347.226z"/>
<g>
</g>
<g>
</g>
<g>
</g>
<g>
</g>
<g>
</g>
<g>
</g>
<g>
</g>
<g>
</g>
<g>
</g>
<g>
</g>
<g>
</g>
<g>
</g>
<g>
</g>
<g>
</g>
<g>
</g>
</svg>
