<?xml version="1.0" encoding="iso-8859-1"?>
<!-- Generator: Adobe Illustrator 19.0.0, SVG Export Plug-In . SVG Version: 6.00 Build 0)  -->
<svg version="1.1" id="Capa_1" xmlns="http://www.w3.org/2000/svg" xmlns:xlink="http://www.w3.org/1999/xlink" x="0px" y="0px"
	 viewBox="0 0 512 512" style="enable-background:new 0 0 512 512;" xml:space="preserve">
<path style="fill:#FFF082;" d="M320.758,283.188c0,0-229.219,71.207-263.127-2.035c0,0-6.103-19.667,13.563-42.046
	c23.76-27.037-32.552-9.494-51.54,20.345c-11.571,18.183-26.448,62.391,44.081,90.195c63.065,24.862,203.449,26.449,312.633-29.839
	L320.758,283.188z"/>
<g>
	<path style="fill:#FFDC64;" d="M510.904,337.99l-44.407-66.198l36.867-70.676c2.581-4.949-2.009-10.585-7.377-9.06l-76.681,21.778
		l-55.825-56.902c-3.908-3.985-10.687-1.361-10.896,4.216l-2.984,79.657l-71.367,35.508c-4.997,2.486-4.596,9.744,0.643,11.666
		l74.836,27.454l11.717,78.847c0.821,5.521,7.846,7.383,11.293,2.994l49.235-62.69l78.61,13.222
		C510.071,348.731,514.013,342.625,510.904,337.99z"/>
	<path style="fill:#FFDC64;" d="M172.058,374.763c-27.029,0.008-52.499-2.464-75.379-7.423
		c-54.415-11.802-88.27-36.51-95.335-69.586c-8.035-37.527,20.234-79.576,77.549-115.362c3.807-2.368,8.821-1.208,11.214,2.599
		c2.376,3.807,1.216,8.829-2.599,11.214c-50.401,31.471-76.667,68.155-70.253,98.148c5.571,26.067,35.778,46.865,82.874,57.077
		c49.988,10.856,113.216,9.179,177.994-4.673c14.082-3.012,28.078-6.572,41.588-10.594c4.315-1.287,8.837,1.176,10.117,5.476
		c1.287,4.307-1.168,8.837-5.476,10.117c-13.916,4.148-28.324,7.82-42.828,10.912C243.893,370.718,206.692,374.763,172.058,374.763z
		"/>
</g>
<g>
	<path style="fill:#FFF082;" d="M113.249,180.692c-2.988,0-5.865-1.653-7.288-4.506c-2.011-4.021-0.374-8.909,3.648-10.912
		c4.172-2.082,8.432-4.117,12.787-6.111c4.093-1.876,8.917-0.064,10.784,4.013c1.876,4.085,0.079,8.909-4.013,10.784
		c-4.18,1.915-8.281,3.87-12.294,5.873C115.704,180.422,114.464,180.692,113.249,180.692z"/>
	<path style="fill:#FFF082;" d="M349.225,129.6c-4.037,0-7.542-2.996-8.066-7.105c-0.572-4.458,2.583-8.535,7.041-9.108
		c2.964-0.374,5.889-0.731,8.79-1.057c4.435-0.445,8.488,2.726,8.988,7.192c0.493,4.466-2.726,8.488-7.192,8.988
		c-2.805,0.31-5.65,0.652-8.519,1.025C349.917,129.576,349.567,129.6,349.225,129.6z"/>
</g>
<path style="fill:#FFDC64;" d="M146.285,323.464c-49.956,0-89.39-11.174-97.775-39.164c-7.009-23.381,11.221-51.967,51.323-80.489
	c37.741-26.846,91.091-51.379,150.218-69.101c21.839-6.533,43.749-11.921,65.12-16.006c4.411-0.819,8.67,2.05,9.521,6.469
	c0.842,4.411-2.05,8.678-6.469,9.521c-20.83,3.982-42.192,9.227-63.498,15.608c-57.474,17.222-109.131,40.936-145.458,66.773
	c-32.989,23.46-49.869,46.849-45.164,62.553c7.542,25.193,73.885,39.251,181.928,15.728c4.435-0.97,8.726,1.836,9.688,6.223
	c0.954,4.395-1.836,8.726-6.223,9.688C214.369,318.91,178.177,323.464,146.285,323.464z"/>
<path style="fill:#FFC850;" d="M391.857,185.855l-28.376-28.923c-3.908-3.985-10.687-1.361-10.896,4.216l-2.984,79.657
	l-71.367,35.508c-4.997,2.486-4.596,9.744,0.643,11.666l74.836,27.454l11.717,78.847c0.821,5.521,7.846,7.383,11.293,2.994
	l18.231-23.213C361.342,289.803,375.402,224.403,391.857,185.855z"/>
<g>
</g>
<g>
</g>
<g>
</g>
<g>
</g>
<g>
</g>
<g>
</g>
<g>
</g>
<g>
</g>
<g>
</g>
<g>
</g>
<g>
</g>
<g>
</g>
<g>
</g>
<g>
</g>
<g>
</g>
</svg>
