<?xml version="1.0" encoding="iso-8859-1"?>
<!-- Generator: Adobe Illustrator 19.0.0, SVG Export Plug-In . SVG Version: 6.00 Build 0)  -->
<svg version="1.1" id="Capa_1" xmlns="http://www.w3.org/2000/svg" xmlns:xlink="http://www.w3.org/1999/xlink" x="0px" y="0px"
	 viewBox="0 0 512 512" style="enable-background:new 0 0 512 512;" xml:space="preserve">
<path style="fill:#AFD755;" d="M115.607,219.184v-74.996c0-30.151-26.705-53.312-56.553-49.048l-30.695,4.385
	C12.087,101.85,0,115.786,0,132.224v29.152c0,4.675,3.841,8.428,8.513,8.256l-0.121,11.747c-0.079,7.641,5.096,14.339,12.509,16.192
	l14.976,3.635c3.469,0.842,6.028,3.804,6.282,7.365c2.285,32.083,24.412,184.022,238.602,184.022
	c181.668,0,181.668-57.803,181.668-57.803v-16.515L115.607,219.184z"/>
<g>
	<path style="fill:#96BE4B;" d="M216.591,332.038l-67.781-49.546l-17.983,5.937c-9.253,3.055-15.84,11.271-16.809,20.966
		l-6.669,66.684h-8.257c-10.13,0-19.239,6.167-23.001,15.572l-5.757,14.391c-2.17,5.424,1.825,11.325,7.667,11.325h42.07
		c11.809,0,21.976-8.335,24.291-19.914l8.767-43.835C164.336,353.608,200.83,350.051,216.591,332.038z"/>
	<path style="fill:#96BE4B;" d="M371.594,334.791v41.288h-6.691c-9.748,0-18.591,5.717-22.591,14.607l-6.766,15.035
		c-2.459,5.464,1.538,11.646,7.53,11.646h53.29c9.121,0,16.515-7.394,16.515-16.515v-66.061H371.594z"/>
</g>
<path style="fill:#4B3F4E;" d="M49.546,146.929c-5.701,0-10.322-4.621-10.322-10.322v-8.258c0-5.701,4.621-10.322,10.322-10.322
	s10.322,4.621,10.322,10.322v8.258C59.868,142.309,55.247,146.929,49.546,146.929z"/>
<path style="fill:#7E9A52;" d="M9.087,186.137c14.375-0.544,33.602-2.301,44.152-7.568c4.08-2.036,5.734-6.996,3.693-11.076
	c-2.032-4.084-7.008-5.738-11.08-3.697c-5.999,2.995-19.957,5.174-37.361,5.833c0.008-0.001,0.014,0.004,0.022,0.004L8.392,181.38
	C8.375,183.027,8.646,184.616,9.087,186.137z"/>
<path style="fill:#BEE86E;" d="M59.054,95.14l-15.492,2.213c19.274,6.624,33.508,24.841,33.508,46.835v36.46
	c0,21.283,17.253,38.536,38.536,38.536l0,0v-74.996C115.607,114.037,88.902,90.876,59.054,95.14z"/>
<path style="fill:#AF6E5A;" d="M115.607,219.184c0,0,8.258,198.183,377.015,108.679c17.211-4.178,24.74-23.907,15.203-38.405
	C461.179,218.544,321.545,53.019,115.607,219.184z"/>
<path style="fill:#965A50;" d="M410.442,322.145L395.857,261.2c-1.552-6.486,0.949-13.268,6.339-17.194l41.59-30.288
	c-4.131-3.759-8.413-7.463-12.841-11.086l-37.937,27.628c-5.57,4.057-13.073,4.228-18.824,0.431l-26.554-17.536
	c-5.574-3.681-8.381-10.356-7.114-16.914l7.645-39.574c-5.226-1.628-10.546-3.084-15.982-4.304l-8.31,43.02
	c-1.115,5.77-5.211,10.512-10.757,12.455l-39.789,13.934c-8.087,2.832-16.997-0.991-20.516-8.803l-25.251-56.048
	c-5.184,1.553-10.428,3.319-15.732,5.3l30.258,67.16c2.1,4.661,1.923,10.033-0.48,14.545l-23.651,44.422
	c-4.32,8.115-14.547,11.277-22.545,6.744c-46.972-26.621-63.194-63.7-68.704-84.564c-3.679,2.789-7.373,5.653-11.096,8.656
	c0,0,8.258,198.183,377.015,108.678c11.666-2.832,18.715-12.823,19.185-23.473C474.519,312.915,440.91,318.635,410.442,322.145z
	 M235.027,291.421l22.323-41.925c1.949-3.661,5.204-6.454,9.118-7.825l53.94-18.894c4.869-1.706,10.255-1.038,14.561,1.805
	l36.295,23.968c3.497,2.309,5.985,5.862,6.961,9.938l15.636,65.335c-63.033,5.765-111.394,1.398-148.444-8.634
	C235.108,312.399,230.008,300.848,235.027,291.421z"/>
<g>
</g>
<g>
</g>
<g>
</g>
<g>
</g>
<g>
</g>
<g>
</g>
<g>
</g>
<g>
</g>
<g>
</g>
<g>
</g>
<g>
</g>
<g>
</g>
<g>
</g>
<g>
</g>
<g>
</g>
</svg>
