<?xml version="1.0" encoding="iso-8859-1"?>
<!-- Generator: Adobe Illustrator 19.0.0, SVG Export Plug-In . SVG Version: 6.00 Build 0)  -->
<svg version="1.1" id="Capa_1" xmlns="http://www.w3.org/2000/svg" xmlns:xlink="http://www.w3.org/1999/xlink" x="0px" y="0px"
	 viewBox="0 0 512 512" style="enable-background:new 0 0 512 512;" xml:space="preserve">
<path style="fill:#FFDC64;" d="M341.727,8.717c23.085,40.177,36.483,86.627,37.003,136.165
	c1.609,153.21-123.728,281.214-276.939,282.73c-25.526,0.253-50.248-2.966-73.774-9.146c-5.609-1.473-9.741,5.274-5.731,9.463
	c48.354,50.509,115.899,82.479,190.976,84.014c149.114,3.048,274.794-117.253,277.987-266.364
	c2.261-105.622-55.713-197.742-141.851-244.85C344.303-2.056,338.835,3.683,341.727,8.717z"/>
<path style="fill:#FFC850;" d="M412.282,186.355c1.527-71.333-24.491-136.443-68.032-185.753c-2.754,1.352-4.391,4.863-2.523,8.115
	c23.085,40.177,36.483,86.627,37.003,136.165c1.609,153.21-123.728,281.214-276.94,282.73c-25.526,0.253-50.248-2.966-73.774-9.146
	c-4.534-1.191-8.023,2.985-7.105,6.844c34.369,16.771,72.756,26.579,113.384,27.409C283.409,455.767,409.09,335.466,412.282,186.355
	z"/>
<g>
</g>
<g>
</g>
<g>
</g>
<g>
</g>
<g>
</g>
<g>
</g>
<g>
</g>
<g>
</g>
<g>
</g>
<g>
</g>
<g>
</g>
<g>
</g>
<g>
</g>
<g>
</g>
<g>
</g>
</svg>
