<?xml version="1.0" encoding="iso-8859-1"?>
<!-- Generator: Adobe Illustrator 19.0.0, SVG Export Plug-In . SVG Version: 6.00 Build 0)  -->
<svg version="1.1" id="Capa_1" xmlns="http://www.w3.org/2000/svg" xmlns:xlink="http://www.w3.org/1999/xlink" x="0px" y="0px"
	 viewBox="0 0 512 512" style="enable-background:new 0 0 512 512;" xml:space="preserve">
<path style="fill:#9C969E;" d="M256,472c-2.996,0-5.738-1.672-7.113-4.336c-25.879-50.234-83.73-74.195-137.527-56.965
	c-2.859,0.898-5.98,0.152-8.094-1.965c-2.117-2.117-2.875-5.242-1.965-8.094c17.223-53.813-6.738-111.648-56.965-137.527
	C41.672,261.738,40,258.996,40,256s1.672-5.738,4.336-7.113c50.227-25.879,74.188-83.715,56.965-137.527
	c-0.91-2.852-0.152-5.977,1.965-8.094c2.113-2.117,5.234-2.875,8.094-1.965c53.828,17.211,111.652-6.738,137.527-56.965
	C250.262,41.672,253.004,40,256,40l0,0c2.996,0,5.738,1.672,7.113,4.336c25.871,50.223,83.707,74.195,137.527,56.965
	c2.844-0.902,5.977-0.152,8.094,1.965s2.875,5.242,1.961,8.094c-17.219,53.813,6.742,111.652,56.969,137.527
	c2.664,1.375,4.336,4.117,4.336,7.113s-1.672,5.738-4.336,7.113c-50.227,25.875-74.188,83.715-56.969,137.527
	c0.914,2.852,0.156,5.977-1.961,8.094s-5.25,2.871-8.094,1.965c-53.797-17.219-111.656,6.734-137.527,56.965
	C261.738,470.328,258.996,472,256,472z M146.73,389.145c43.461,0,84.738,21.676,109.27,59.008
	c29.516-44.895,83.242-67.164,135.875-56.281C380.992,339.258,403.25,285.508,448.156,256
	c-44.914-29.508-67.172-83.254-56.281-135.875C339.227,131.016,285.5,108.738,256,63.848
	c-29.504,44.895-83.27,67.156-135.871,56.277C131.012,172.742,108.75,226.492,63.844,256
	c44.906,29.508,67.168,83.258,56.285,135.871C129,390.039,137.914,389.145,146.73,389.145z"/>
<path style="fill:#867E88;" d="M256,384L256,384c-2.996,0-5.738-1.672-7.113-4.336c-14.172-27.508-45.859-40.625-75.301-31.191
	c-2.855,0.898-5.977,0.152-8.094-1.965s-2.875-5.242-1.965-8.094c9.43-29.465-3.688-61.133-31.191-75.301
	C129.672,261.738,128,258.996,128,256s1.672-5.738,4.336-7.113c27.504-14.168,40.621-45.836,31.191-75.301
	c-0.91-2.852-0.152-5.977,1.965-8.094c2.117-2.125,5.238-2.871,8.094-1.965c29.457,9.441,61.137-3.688,75.301-31.191
	c2.75-5.328,11.477-5.328,14.227,0c14.16,27.496,45.801,40.629,75.301,31.191c2.844-0.91,5.977-0.152,8.094,1.965
	s2.875,5.242,1.961,8.094c-9.422,29.465,3.695,61.137,31.195,75.301c2.664,1.375,4.336,4.117,4.336,7.113s-1.672,5.738-4.336,7.113
	c-27.5,14.164-40.617,45.836-31.195,75.301c0.914,2.852,0.156,5.977-1.961,8.094c-2.117,2.113-5.25,2.863-8.094,1.965
	c-29.492-9.438-61.133,3.695-75.301,31.191C261.738,382.328,258.996,384,256,384z M192.969,329.426
	c24.586,0,48.023,11.52,63.031,31.547c17.281-23.047,45.68-34.84,74.227-30.75c-4.078-28.512,7.695-56.949,30.742-74.223
	c-23.047-17.273-34.82-45.711-30.742-74.227c-28.555,4.109-56.945-7.699-74.227-30.746c-17.277,23.047-45.723,34.828-74.223,30.75
	c4.082,28.512-7.699,56.945-30.746,74.223c23.047,17.277,34.828,45.711,30.746,74.223
	C185.516,329.688,189.254,329.426,192.969,329.426z"/>
<path style="fill:#5D5360;" d="M504,248H275.311L437.016,86.293c3.125-3.125,3.125-8.188,0-11.313s-8.188-3.125-11.313,0
	L264,236.686V8c0-4.418-3.582-8-8-8s-8,3.582-8,8v228.689L86.293,74.98c-3.125-3.125-8.188-3.125-11.313,0s-3.125,8.188,0,11.313
	L236.686,248H8c-4.418,0-8,3.582-8,8s3.582,8,8,8h228.686L74.98,425.707c-3.125,3.125-3.125,8.188,0,11.313
	c1.563,1.563,3.609,2.344,5.656,2.344s4.094-0.781,5.656-2.344L248,275.311V504c0,4.418,3.582,8,8,8s8-3.582,8-8V275.314
	L425.703,437.02c1.563,1.563,3.609,2.344,5.656,2.344s4.094-0.781,5.656-2.344c3.125-3.125,3.125-8.188,0-11.313L275.311,264H504
	c4.422,0,8-3.582,8-8S508.422,248,504,248z"/>
<g>
</g>
<g>
</g>
<g>
</g>
<g>
</g>
<g>
</g>
<g>
</g>
<g>
</g>
<g>
</g>
<g>
</g>
<g>
</g>
<g>
</g>
<g>
</g>
<g>
</g>
<g>
</g>
<g>
</g>
</svg>
