<?xml version="1.0" encoding="iso-8859-1"?>
<!-- Generator: Adobe Illustrator 19.0.0, SVG Export Plug-In . SVG Version: 6.00 Build 0)  -->
<svg version="1.1" id="Capa_1" xmlns="http://www.w3.org/2000/svg" xmlns:xlink="http://www.w3.org/1999/xlink" x="0px" y="0px"
	 viewBox="0 0 512.001 512.001" style="enable-background:new 0 0 512.001 512.001;" xml:space="preserve">
<path style="fill:#FFDC64;" d="M167.68,0.641c5.155-2.619,10.383,3.317,7.297,8.207c-28.918,45.816-44.574,100.824-41.386,159.715
	c0.526,9.724,1.639,19.308,3.187,28.76c9.416,32.544,52.933,53.982,54.972,58.06c5.793,11.586-2.615,26.851-22.322,33.2
	c2.871,4.974,5.96,9.802,9.175,14.542c2.22,3.273,0.894,7.707-2.74,9.266c-30.235,12.971-58.165,12.815-58.513,12.788
	c-4.846-0.033-8.442,3.649-8.507,8.274c-0.066,4.633,3.624,8.446,8.257,8.519c0.094,0,0.291,0,0.586,0
	c5.33,0,42.717-0.822,79.371-21.364c4.096-2.295,9.338-1.737,12.463,1.767c8.616,9.665,4.264,23.752,4.264,23.752
	c42.145,41.949,97.845,70.363,159.967,77.355c39.008,4.391,76.519,0.38,111.114-10.295c5.516-1.702,9.909,4.859,6.05,9.151
	c-50.04,55.651-122.801,90.451-203.719,89.649C145.403,510.581,27.063,397.194,19.971,255.571
	C14.407,144.47,76.001,47.222,167.68,0.641z"/>
<path style="fill:#DC9B41;" d="M117.687,341.971c-0.295,0-0.492,0-0.586,0c-4.633-0.074-8.323-3.887-8.257-8.519
	c0.066-4.625,3.661-8.306,8.507-8.274c0.347,0.027,28.277,0.183,58.513-12.788c3.635-1.559,4.96-5.994,2.74-9.266l12.619,20.561
	C156.526,341.204,122.733,341.971,117.687,341.971z"/>
<path style="fill:#4B3F4E;" d="M90.593,260.105L90.593,260.105c11.593,0,20.991-9.398,20.991-20.991v-8.397
	c0-11.593-9.398-20.991-20.991-20.991l0,0c-11.593,0-20.991,9.398-20.991,20.991v8.397C69.602,250.707,79,260.105,90.593,260.105z"
	/>
<path style="fill:#5D5360;" d="M90.593,209.726c1.438,0,2.841,0.148,4.198,0.423v20.568c0,6.956-5.639,12.595-12.595,12.595
	s-12.595-5.639-12.595-12.595C69.602,219.124,79,209.726,90.593,209.726z"/>
<circle style="fill:#FFFFFF;" cx="86.39" cy="226.52" r="8.396"/>
<path style="fill:#FFC850;" d="M319.674,478.401C182.918,477.045,68.781,367.686,61.941,231.094
	C57.196,136.337,103.149,52.097,174.979,2.789c-1.425-2.307-4.347-3.647-7.298-2.148C76.001,47.222,14.407,144.47,19.971,255.571
	c7.092,141.623,125.432,255.009,267.225,256.415c80.918,0.802,153.679-33.998,203.719-89.649c1.836-2.041,1.767-4.579,0.636-6.513
	C445.391,455.324,385.346,479.052,319.674,478.401z"/>
<g>
</g>
<g>
</g>
<g>
</g>
<g>
</g>
<g>
</g>
<g>
</g>
<g>
</g>
<g>
</g>
<g>
</g>
<g>
</g>
<g>
</g>
<g>
</g>
<g>
</g>
<g>
</g>
<g>
</g>
</svg>
