<?xml version="1.0" encoding="iso-8859-1"?>
<!-- Generator: Adobe Illustrator 19.0.0, SVG Export Plug-In . SVG Version: 6.00 Build 0)  -->
<svg version="1.1" id="Capa_1" xmlns="http://www.w3.org/2000/svg" xmlns:xlink="http://www.w3.org/1999/xlink" x="0px" y="0px"
	 viewBox="0 0 512.001 512.001" style="enable-background:new 0 0 512.001 512.001;" xml:space="preserve">
<path style="fill:#FFDC64;" d="M344.32,0.641c-5.155-2.619-10.384,3.317-7.297,8.207c28.918,45.816,44.574,100.824,41.386,159.715
	c-0.526,9.724-1.639,19.308-3.187,28.76c-9.416,32.544-52.933,53.982-54.972,58.06c-5.793,11.586,2.615,26.851,22.322,33.2
	c-2.871,4.974-5.96,9.802-9.175,14.542c-2.22,3.273-0.894,7.707,2.74,9.266c30.235,12.971,58.165,12.815,58.513,12.788
	c4.846-0.033,8.442,3.649,8.507,8.274c0.066,4.633-3.624,8.446-8.257,8.519c-0.094,0-0.291,0-0.586,0
	c-5.33,0-42.717-0.822-79.371-21.364c-4.096-2.295-9.339-1.737-12.463,1.767c-8.616,9.665-4.264,23.752-4.264,23.752
	c-42.145,41.949-97.845,70.363-159.967,77.355c-39.008,4.391-76.519,0.38-111.114-10.295c-5.516-1.702-9.909,4.859-6.05,9.151
	c50.04,55.651,122.801,90.451,203.719,89.649c141.793-1.406,260.134-114.792,267.226-256.415
	C497.593,144.47,435.999,47.222,344.32,0.641z"/>
<g>
	<path style="fill:#FFC850;" d="M337.022,8.848c28.918,45.816,44.575,100.825,41.386,159.715c-0.526,9.724-1.639,19.308-3.187,28.76
		c-9.416,32.544-52.933,53.982-54.972,58.06c-5.793,11.586,2.615,26.851,22.322,33.2c-2.871,4.974-5.96,9.802-9.175,14.542
		c-2.221,3.272-0.895,7.707,2.74,9.266c10.523,4.514,20.735,7.414,29.634,9.307c24.623-38.298,39.885-83.111,42.294-131.199
		c3.653-72.961-21.781-139.836-65.553-190.422C338.05-0.575,334.299,4.534,337.022,8.848z"/>
	<path style="fill:#FFC850;" d="M355.467,336.564c-12.398-3.145-26.507-8.101-40.524-15.957c-4.096-2.295-9.338-1.737-12.463,1.767
		c-8.616,9.664-4.264,23.752-4.264,23.752c-42.145,41.949-97.845,70.363-159.967,77.355c-39.008,4.39-76.519,0.38-111.114-10.295
		c-4.418-1.363-8.037,2.573-7.351,6.4c36.507,17.835,77.581,27.759,121.055,27.328C228.101,446.048,306.434,402.733,355.467,336.564
		z"/>
</g>
<path style="fill:#DC9B41;" d="M394.313,341.971c0.295,0,0.492,0,0.586,0c4.633-0.074,8.323-3.887,8.257-8.519
	c-0.066-4.625-3.661-8.306-8.507-8.274c-0.347,0.027-28.277,0.183-58.513-12.788c-3.635-1.559-4.96-5.994-2.74-9.266l-12.619,20.561
	C355.474,341.204,389.267,341.971,394.313,341.971z"/>
<path style="fill:#4B3F4E;" d="M421.407,260.105L421.407,260.105c-11.593,0-20.991-9.398-20.991-20.991v-8.397
	c0-11.593,9.398-20.991,20.991-20.991l0,0c11.593,0,20.991,9.398,20.991,20.991v8.397C442.398,250.707,433,260.105,421.407,260.105z
	"/>
<path style="fill:#5D5360;" d="M421.407,209.726c-1.438,0-2.841,0.148-4.198,0.423v20.568c0,6.956,5.639,12.595,12.595,12.595
	s12.595-5.639,12.595-12.595C442.398,219.124,433,209.726,421.407,209.726z"/>
<circle style="fill:#FFFFFF;" cx="425.61" cy="226.52" r="8.396"/>
<g>
</g>
<g>
</g>
<g>
</g>
<g>
</g>
<g>
</g>
<g>
</g>
<g>
</g>
<g>
</g>
<g>
</g>
<g>
</g>
<g>
</g>
<g>
</g>
<g>
</g>
<g>
</g>
<g>
</g>
</svg>
