<?xml version="1.0" encoding="iso-8859-1"?>
<!-- Generator: Adobe Illustrator 19.0.0, SVG Export Plug-In . SVG Version: 6.00 Build 0)  -->
<svg version="1.1" id="Capa_1" xmlns="http://www.w3.org/2000/svg" xmlns:xlink="http://www.w3.org/1999/xlink" x="0px" y="0px"
	 viewBox="0 0 512.001 512.001" style="enable-background:new 0 0 512.001 512.001;" xml:space="preserve">
<g>
	<path style="fill:#7E9A52;" d="M60.953,398.222l-28.476-3.559c-2.303-0.288-4.032-2.246-4.032-4.568l0,0
		c0-2.321,1.729-4.28,4.032-4.568l28.476-3.559C60.952,381.968,60.952,398.222,60.953,398.222z"/>
	<path style="fill:#7E9A52;" d="M60.953,341.333l-28.476-3.559c-2.303-0.288-4.032-2.246-4.032-4.568l0,0
		c0-2.321,1.729-4.28,4.032-4.568l28.476-3.559C60.952,325.079,60.952,341.333,60.953,341.333z"/>
	<path style="fill:#7E9A52;" d="M109.715,325.079l28.476,3.559c2.303,0.288,4.032,2.246,4.032,4.568l0,0
		c0,2.321-1.729,4.28-4.032,4.568l-28.476,3.559C109.715,341.333,109.715,325.079,109.715,325.079z"/>
	<path style="fill:#7E9A52;" d="M60.953,284.444l-28.476-3.559c-2.303-0.288-4.032-2.246-4.032-4.568l0,0
		c0-2.321,1.729-4.28,4.032-4.567l28.476-3.559C60.952,268.191,60.952,284.444,60.953,284.444z"/>
	<path style="fill:#7E9A52;" d="M109.715,268.19l28.476,3.559c2.303,0.288,4.032,2.246,4.032,4.567l0,0
		c0,2.321-1.729,4.28-4.032,4.568l-28.476,3.559C109.715,284.443,109.715,268.19,109.715,268.19z"/>
	<path style="fill:#7E9A52;" d="M60.953,227.556l-28.476-3.559c-2.303-0.288-4.032-2.246-4.032-4.568l0,0
		c0-2.321,1.729-4.28,4.032-4.568l28.476-3.559C60.952,211.302,60.952,227.556,60.953,227.556z"/>
	<path style="fill:#7E9A52;" d="M109.715,211.302l28.476,3.559c2.303,0.288,4.032,2.246,4.032,4.568l0,0
		c0,2.321-1.729,4.28-4.032,4.568l-28.476,3.559C109.715,227.556,109.715,211.302,109.715,211.302z"/>
	<path style="fill:#7E9A52;" d="M77.207,186.921l3.559-28.476c0.288-2.303,2.246-4.032,4.567-4.032l0,0
		c2.321,0,4.28,1.729,4.568,4.032l3.559,28.476H77.207z"/>
	<path style="fill:#7E9A52;" d="M402.287,219.429l-28.476-3.559c-2.303-0.288-4.032-2.246-4.032-4.568l0,0
		c0-2.321,1.729-4.28,4.032-4.568l28.476-3.559V219.429z"/>
	<path style="fill:#7E9A52;" d="M451.049,203.175l28.476,3.559c2.303,0.288,4.032,2.246,4.032,4.568l0,0
		c0,2.321-1.729,4.28-4.032,4.568l-28.476,3.559V203.175z"/>
	<path style="fill:#7E9A52;" d="M451.049,260.064l28.476,3.559c2.303,0.288,4.032,2.246,4.032,4.568l0,0
		c0,2.321-1.729,4.28-4.032,4.568l-28.476,3.559V260.064z"/>
	<path style="fill:#7E9A52;" d="M402.287,162.54l-28.476-3.559c-2.303-0.288-4.032-2.246-4.032-4.568l0,0
		c0-2.321,1.729-4.28,4.032-4.567l28.476-3.559V162.54z"/>
	<path style="fill:#7E9A52;" d="M451.049,146.286l28.476,3.559c2.303,0.288,4.032,2.246,4.032,4.567l0,0
		c0,2.321-1.729,4.28-4.032,4.568l-28.476,3.559V146.286z"/>
	<path style="fill:#7E9A52;" d="M418.541,121.905l3.559-28.476c0.288-2.303,2.246-4.032,4.568-4.032l0,0
		c2.321,0,4.28,1.729,4.568,4.032l3.559,28.476H418.541z"/>
	<path style="fill:#7E9A52;" d="M182.857,316.952l-36.592-3.659c-2.295-0.23-4.043-2.161-4.043-4.468l0,0
		c0-2.307,1.748-4.238,4.043-4.468l36.592-3.659V316.952z"/>
	<path style="fill:#7E9A52;" d="M182.857,251.937l-36.592-3.659c-2.295-0.23-4.043-2.161-4.043-4.468l0,0
		c0-2.307,1.748-4.238,4.043-4.468l36.592-3.659V251.937z"/>
	<path style="fill:#7E9A52;" d="M329.144,446.984l36.592-3.659c2.295-0.23,4.043-2.161,4.043-4.468l0,0
		c0-2.307-1.748-4.238-4.043-4.468l-36.592-3.659V446.984z"/>
	<path style="fill:#7E9A52;" d="M329.144,381.968l36.592-3.659c2.295-0.23,4.043-2.161,4.043-4.468l0,0
		c0-2.307-1.748-4.238-4.043-4.468l-36.592-3.659V381.968z"/>
	<path style="fill:#7E9A52;" d="M182.857,186.921l-36.592-3.659c-2.295-0.23-4.043-2.161-4.043-4.468l0,0
		c0-2.307,1.748-4.238,4.043-4.468l36.592-3.659V186.921z"/>
	<path style="fill:#7E9A52;" d="M329.144,186.921l36.592-3.659c2.295-0.23,4.043-2.161,4.043-4.468l0,0
		c0-2.307-1.748-4.238-4.043-4.468l-36.592-3.659V186.921z"/>
	<path style="fill:#7E9A52;" d="M182.857,121.905l-36.592-3.659c-2.295-0.23-4.043-2.161-4.043-4.468l0,0
		c0-2.307,1.748-4.238,4.043-4.468l36.592-3.659V121.905z"/>
	<path style="fill:#7E9A52;" d="M247.874,40.635l3.659-36.592C251.762,1.748,253.693,0,256.001,0l0,0
		c2.307,0,4.238,1.748,4.468,4.043l3.659,36.592H247.874z"/>
	<path style="fill:#7E9A52;" d="M199.033,68.303l-23.287-28.462c-1.461-1.785-1.331-4.387,0.3-6.018l0,0
		c1.631-1.631,4.233-1.761,6.018-0.3l28.462,23.287L199.033,68.303z"/>
	<path style="fill:#7E9A52;" d="M312.969,68.303l23.287-28.462c1.461-1.785,1.331-4.387-0.3-6.018l0,0
		c-1.631-1.631-4.233-1.761-6.018-0.3L301.476,56.81L312.969,68.303z"/>
	<path style="fill:#7E9A52;" d="M329.144,121.905l36.592-3.659c2.295-0.23,4.043-2.161,4.043-4.468l0,0
		c0-2.307-1.748-4.238-4.043-4.468l-36.592-3.659V121.905z"/>
</g>
<path style="fill:#AFD755;" d="M423.475,113.93c-16.902,1.612-29.315,16.774-29.315,33.752v79.873
	c0,8.977-7.277,16.254-16.254,16.254h-32.508c-4.488,0-8.127-3.639-8.127-8.127V113.778c0-46.674-39.346-84.159-86.679-81.095
	c-43.196,2.796-75.861,40.592-75.861,83.879v379.185c0,8.977,7.277,16.254,16.254,16.254h130.032
	c8.977,0,16.254-7.277,16.254-16.254V316.952c0-4.488,3.639-8.127,8.127-8.127h56.889c31.419,0,56.889-25.47,56.889-56.889v-105.65
	C459.176,127.279,442.864,112.082,423.475,113.93z"/>
<path style="fill:#96BE4B;" d="M280.488,36.373c-13.524-4.277-28.487-5.315-44.122-1.498c-36.853,8.997-61.635,43.752-61.635,81.687
	v249.153c0,4.488-3.639,8.127-8.127,8.127h-32.508c-8.977,0-16.254-7.277-16.254-16.254V212.7c0-16.978-12.412-32.14-29.314-33.753
	c-19.389-1.849-35.702,13.348-35.702,32.355v170.667c0,31.419,25.47,56.889,56.889,56.889h56.889c4.488,0,8.127,3.639,8.127,8.127
	v48.762c0,8.977,7.277,16.254,16.254,16.254h48.762c-8.977,0-16.254-7.277-16.254-16.254V116.562
	C223.493,79.861,247.015,47.194,280.488,36.373z"/>
<path style="fill:#AFD755;" d="M117.842,357.587V211.302c0-15.13-10.384-27.734-24.381-31.359V349.46
	c0,13.465,10.916,24.381,24.381,24.381h16.254C125.12,373.841,117.842,366.564,117.842,357.587z"/>
<g>
	<path style="fill:#7E9A52;" d="M256.001,121.905c-4.488,0-8.127-3.635-8.127-8.127v-8.127c0-4.492,3.639-8.127,8.127-8.127
		c4.488,0,8.127,3.635,8.127,8.127v8.127C264.128,118.27,260.489,121.905,256.001,121.905z"/>
	<path style="fill:#7E9A52;" d="M256.001,186.921c-4.488,0-8.127-3.635-8.127-8.127v-8.127c0-4.492,3.639-8.127,8.127-8.127
		c4.488,0,8.127,3.635,8.127,8.127v8.127C264.128,183.286,260.489,186.921,256.001,186.921z"/>
	<path style="fill:#7E9A52;" d="M85.334,235.683c-4.488,0-8.127-3.635-8.127-8.127v-8.127c0-4.492,3.639-8.127,8.127-8.127
		s8.127,3.635,8.127,8.127v8.127C93.461,232.048,89.822,235.683,85.334,235.683z"/>
	<path style="fill:#7E9A52;" d="M85.334,292.571c-4.488,0-8.127-3.635-8.127-8.127v-8.127c0-4.492,3.639-8.127,8.127-8.127
		s8.127,3.635,8.127,8.127v8.127C93.461,288.936,89.822,292.571,85.334,292.571z"/>
	<path style="fill:#7E9A52;" d="M85.334,349.46c-4.488,0-8.127-3.635-8.127-8.127v-8.127c0-4.492,3.639-8.127,8.127-8.127
		s8.127,3.635,8.127,8.127v8.127C93.461,345.825,89.822,349.46,85.334,349.46z"/>
</g>
<g>
	<path style="fill:#7E9A52;" d="M96.636,399.175c-2.274,0-4.536-0.944-6.143-2.802l-5.325-6.135c-2.94-3.389-2.579-8.524,0.81-11.46
		c3.393-2.952,8.52-2.587,11.468,0.81l5.325,6.135c2.94,3.389,2.579,8.524-0.81,11.46
		C100.422,398.524,98.525,399.175,96.636,399.175z"/>
	<path style="fill:#7E9A52;" d="M142.223,414.476h-8.127c-4.488,0-8.127-3.635-8.127-8.127s3.639-8.127,8.127-8.127h8.127
		c4.488,0,8.127,3.635,8.127,8.127S146.711,414.476,142.223,414.476z"/>
	<path style="fill:#7E9A52;" d="M256.001,251.937c-4.488,0-8.127-3.635-8.127-8.127v-8.127c0-4.492,3.639-8.127,8.127-8.127
		c4.488,0,8.127,3.635,8.127,8.127v8.127C264.128,248.302,260.489,251.937,256.001,251.937z"/>
	<path style="fill:#7E9A52;" d="M256.001,316.952c-4.488,0-8.127-3.635-8.127-8.127v-8.127c0-4.492,3.639-8.127,8.127-8.127
		c4.488,0,8.127,3.635,8.127,8.127v8.127C264.128,313.317,260.489,316.952,256.001,316.952z"/>
	<path style="fill:#7E9A52;" d="M256.001,381.968c-4.488,0-8.127-3.635-8.127-8.127v-8.127c0-4.492,3.639-8.127,8.127-8.127
		c4.488,0,8.127,3.635,8.127,8.127v8.127C264.128,378.333,260.489,381.968,256.001,381.968z"/>
	<path style="fill:#7E9A52;" d="M256.001,446.984c-4.488,0-8.127-3.635-8.127-8.127v-8.127c0-4.492,3.639-8.127,8.127-8.127
		c4.488,0,8.127,3.635,8.127,8.127v8.127C264.128,443.349,260.489,446.984,256.001,446.984z"/>
</g>
<path style="fill:#96BE4B;" d="M418.541,219.429V114.927c-13.997,3.625-24.381,16.228-24.381,31.359v81.27
	c0,8.977-7.277,16.254-16.254,16.254h16.254C407.625,243.81,418.541,232.894,418.541,219.429z"/>
<g>
	<path style="fill:#7E9A52;" d="M426.668,170.667c-4.488,0-8.127-3.635-8.127-8.127v-8.127c0-4.492,3.639-8.127,8.127-8.127
		s8.127,3.635,8.127,8.127v8.127C434.795,167.032,431.156,170.667,426.668,170.667z"/>
	<path style="fill:#7E9A52;" d="M426.668,227.556c-4.488,0-8.127-3.635-8.127-8.127v-8.127c0-4.492,3.639-8.127,8.127-8.127
		s8.127,3.635,8.127,8.127v8.127C434.795,223.921,431.156,227.556,426.668,227.556z"/>
	<path style="fill:#7E9A52;" d="M361.652,276.317c0-4.488,3.635-8.127,8.127-8.127h8.127c4.492,0,8.127,3.639,8.127,8.127
		s-3.635,8.127-8.127,8.127h-8.127C365.287,284.444,361.652,280.806,361.652,276.317z"/>
	<path style="fill:#7E9A52;" d="M407.935,272.193c-3.174-3.174-3.176-8.317,0-11.493l5.747-5.747c3.176-3.176,8.32-3.174,11.493,0
		c3.174,3.174,3.176,8.317,0,11.493l-5.747,5.747C416.252,275.369,411.109,275.366,407.935,272.193z"/>
</g>
<g>
</g>
<g>
</g>
<g>
</g>
<g>
</g>
<g>
</g>
<g>
</g>
<g>
</g>
<g>
</g>
<g>
</g>
<g>
</g>
<g>
</g>
<g>
</g>
<g>
</g>
<g>
</g>
<g>
</g>
</svg>
