<?xml version="1.0" encoding="iso-8859-1"?>
<!-- Generator: Adobe Illustrator 19.0.0, SVG Export Plug-In . SVG Version: 6.00 Build 0)  -->
<svg version="1.1" id="Capa_1" xmlns="http://www.w3.org/2000/svg" xmlns:xlink="http://www.w3.org/1999/xlink" x="0px" y="0px"
	 viewBox="0 0 512 512" style="enable-background:new 0 0 512 512;" xml:space="preserve">
<g>
	<path style="fill:#E1A546;" d="M74.319,72.46c-4.411,0-8.069-3.488-8.246-7.931c-0.012-0.254-1.194-25.661-14.871-43.875
		c-2.738-3.649-2-8.827,1.645-11.565c3.649-2.738,8.819-1.996,11.565,1.645c16.843,22.431,18.117,51.927,18.165,53.169
		c0.165,4.552-3.383,8.375-7.935,8.552C74.532,72.46,74.423,72.46,74.319,72.46z"/>
	<path style="fill:#E1A546;" d="M51.621,72.064c-2.94,0-5.782-1.569-7.274-4.335c-9.762-18.077-23.282-24.681-23.419-24.746
		c-4.093-1.956-5.871-6.863-3.948-10.972c1.931-4.105,6.766-5.903,10.903-4.012c0.746,0.347,18.476,8.698,30.996,31.883
		c2.165,4.012,0.669,9.02-3.343,11.19C54.29,71.746,52.944,72.064,51.621,72.064z"/>
</g>
<g>
	<path style="fill:#EBAF4B;" d="M195.995,393.457l-15.648,27.633c-5.108,9.021,3.463,19.637,13.357,16.545l30.788-9.619
		L195.995,393.457z"/>
	<path style="fill:#EBAF4B;" d="M325.766,470.211l6.934,25.878c2.683,10.013,16.238,11.572,21.125,2.43l12.997-24.315
		L325.766,470.211z"/>
	<path style="fill:#EBAF4B;" d="M488.34,420.161l-37.22,15.366l19.812,18.324c7.61,7.039,19.908,1.128,19.165-9.212L488.34,420.161z
		"/>
	<path style="fill:#EBAF4B;" d="M193.303,253.01l-26.578,12.755c-9.346,4.485-8.377,18.095,1.51,21.211l28.534,8.992L193.303,253.01
		z"/>
</g>
<path style="fill:#D4F582;" d="M493.145,321.492c-44.487-32.839-92.122-13.337-107.86,23.164c-1.675,3.885-5.968,5.865-9.992,4.559
	c-6.364-2.064-13.143-3.199-20.196-3.199c-9.374,0-18.269,1.985-26.335,5.523c-4.412,1.935-9.441-0.056-11.179-4.55
	c-2.923-7.557-7.197-14.435-12.527-20.35c-2.782-3.087-2.738-7.75,0.043-10.838c10.53-11.691,16.965-27.133,16.965-44.107
	c0-18.714-7.809-35.576-20.322-47.586c-3.511-3.37-3.52-8.806-0.008-12.175c22.573-21.659,29.847-59.106,3.592-94.74
	c-0.553-0.75-1.255-1.455-2.003-2.011c-22.399-16.645-45.584-19.937-65.122-14.478c-4.289,1.198-8.676-1.218-9.993-5.472
	c-12.567-40.607-63.13-64.493-110.249-29.754c-0.749,0.552-1.451,1.253-2.006,2.001c-40.188,54.2-2.401,113.377,49.208,113.377
	c6.126,0,12.055-0.836,17.684-2.397c4.33-1.201,8.779,1.149,10.109,5.442c3.351,10.822,9.402,20.445,17.378,28.09
	c3.489,3.344,3.432,8.754-0.056,12.1c-12.523,12.011-20.34,28.88-20.34,47.604c0,16.972,6.434,32.413,16.962,44.104
	c2.802,3.111,2.791,7.789-0.01,10.9c-19.762,21.954-25.089,57.128-0.493,90.831c0.543,0.744,1.234,1.445,1.97,1.999
	c26.174,19.718,52.959,21.055,74.052,11.769c4.4-1.937,9.376,0.145,11.112,4.628c9.56,24.696,33.497,42.221,61.569,42.221
	c27.194,0,50.519-16.443,60.646-39.921c1.677-3.888,5.969-5.875,9.997-4.568c6.364,2.064,13.142,3.199,20.195,3.199
	c51.597,0,89.379-59.151,49.234-113.342C494.611,322.759,493.901,322.05,493.145,321.492z"/>
<path style="fill:#BEE86E;" d="M462.452,403.823c-2.604,0-5.169-0.158-7.689-0.46c-9.304-1.118-18.266,2.586-24.32,9.738
	c-4.855,5.736-10.681,10.627-17.196,14.477c-9.787,5.832-21.144,9.278-33.376,9.278c-30.783,0-56.792-21.018-63.983-49.548
	c-2.034-8.071-17.853-16.141-23.415,3.515c-2.165,7.651-10.3,13.128-18.057,11.377c-23.389-5.281-42.075-22.971-48.778-45.788
	c-2.734-9.308,4.295-18.653,13.996-18.653h16.365c22.395,0,42.107-11.192,54.036-28.241l-0.001-0.001
	c-11.483,3.852-24.296,4.79-37.731,1.306c-23.15-6.004-41.578-24.696-47.351-47.904c-2.397-9.635-2.519-18.94-0.925-27.649
	c1.092-5.967,6.982-9.536,12.78-7.753c6.07,1.866,12.507,2.888,19.191,2.888c18.314,0,34.826-7.493,46.762-19.547
	c0.188-0.189,0.366-0.387,0.552-0.578c3.842-3.974,7.214-8.409,9.975-13.245c-9.605,5.447-20.683,8.596-32.514,8.596
	c-29.857,0-55.032-19.824-63.202-47.019c-1.617-5.383-6.808-8.598-12.345-7.63c-9.159,1.601-17.356,3.294-31.291-0.061
	c-25.988-6.256-42.033-32.696-42.033-32.696l-31.814-13.984c-6.351,41.149,25.134,76.616,65.073,76.616
	c6.136,0,12.075-0.838,17.711-2.405c4.271-1.187,8.764,1.187,10.074,5.423c3.349,10.833,9.403,20.465,17.386,28.117
	c3.49,3.345,3.433,8.757-0.056,12.103c-12.524,12.009-20.341,28.878-20.341,47.601c0,16.973,6.435,32.415,16.964,44.104
	c2.801,3.11,2.791,7.787-0.009,10.897c-19.744,21.931-25.081,57.059-0.568,90.733c0.703,0.714,1.438,1.459,2.141,2.173
	c26.144,19.646,52.887,20.968,73.953,11.694c4.4-1.937,9.377,0.145,11.111,4.628c0.016,0.041,0.033,0.062,0.049,0.103
	c9.598,24.634,33.491,42.118,61.52,42.118c27.115,0,50.318-16.372,60.47-39.748c1.758-4.049,6.219-6.103,10.416-4.736
	c6.288,2.048,12.975,3.193,19.952,3.193c32.457,0,59.391-23.426,64.956-54.28C498.824,395.612,481.618,403.823,462.452,403.823z"/>
<circle style="fill:#FFDC64;" cx="66.07" cy="123.05" r="66.06"/>
<path style="fill:#FFC850;" d="M94.968,160.21c-36.486,0-66.065-29.578-66.065-66.065c0-10.788,2.639-20.942,7.225-29.936
	C14.704,75.132,0,97.35,0,123.048c0,36.486,29.578,66.065,66.065,66.065c25.698,0,47.916-14.704,58.84-36.128
	C115.91,157.57,105.756,160.21,94.968,160.21z"/>
<circle style="fill:#4B3F4E;" cx="57.806" cy="106.53" r="16.516"/>
<circle style="fill:#FFFFFF;" cx="66.07" cy="98.27" r="8.258"/>
<g>
</g>
<g>
</g>
<g>
</g>
<g>
</g>
<g>
</g>
<g>
</g>
<g>
</g>
<g>
</g>
<g>
</g>
<g>
</g>
<g>
</g>
<g>
</g>
<g>
</g>
<g>
</g>
<g>
</g>
</svg>
