<?xml version="1.0" encoding="iso-8859-1"?>
<!-- Generator: Adobe Illustrator 19.0.0, SVG Export Plug-In . SVG Version: 6.00 Build 0)  -->
<svg version="1.1" id="Capa_1" xmlns="http://www.w3.org/2000/svg" xmlns:xlink="http://www.w3.org/1999/xlink" x="0px" y="0px"
	 viewBox="0 0 512.001 512.001" style="enable-background:new 0 0 512.001 512.001;" xml:space="preserve">
<path style="fill:#E6646E;" d="M256,312.914c0,0-107.355,0-198.194,41.29H256V312.914z"/>
<g>
	<path style="fill:#EDEBED;" d="M70.06,331.122l-12.253,28.243l40.258-4.709l-15.739-24.525
		C79.312,325.437,72.28,326.005,70.06,331.122z"/>
	<path style="fill:#EDEBED;" d="M23.742,290.72l17.28,48.901c2.947,8.341,14.932,7.763,17.063-0.823l11.076-44.617L23.742,290.72z"
		/>
</g>
<path style="fill:#96BE4B;" d="M471.904,451.584c-79.787-45.241-176.679-60.907-176.679-60.907l59.871-69.505L512,345.946v82.058
	C512,448.59,489.812,461.738,471.904,451.584z"/>
<path style="fill:#FFDC64;" d="M410.151,81.364l14.461-18.077c1.984-2.48,0.278-6.226-2.897-6.3
	c-75.634-1.762-136.811,28.505-136.811,28.505l11.525-19.208c1.845-3.075-1.118-6.714-4.544-5.654
	c-71.62,22.157-108.549,82.909-121.379,108.694c-2.002,4.024,2.034,8.285,6.213,6.629c12.521-4.963,26.954-8.845,41.618-11.878
	c48.151-9.962,97.852-9.766,146.267-1.178L512,189.043v-55.011c0-12.959-7.649-24.664-19.406-30.116
	C442.791,80.82,410.151,81.364,410.151,81.364z"/>
<path style="fill:#FFC850;" d="M170.877,168.601c-0.114,0.228-0.262,0.501-0.372,0.723c-2.003,4.024,2.034,8.285,6.213,6.629
	c12.521-4.963,26.954-8.845,41.617-11.878c48.151-9.962,97.852-9.766,146.267-1.178L512,189.043v-44.52
	C474.839,110.591,322.581,61.043,170.877,168.601z"/>
<path style="fill:#BEE86E;" d="M224,185.946l-9.29,57.083H97.086c-9.327,0-18.464-2.633-26.361-7.595l-10.129-6.364
	c-11.894-7.474-27.313-8.328-40.618-0.936C7.258,235.201,0,249.253,0,263.804v16.94c0,8.925,7.09,16.235,16.01,16.509l198.898,6.101
	c5.847,0.179,11.163,3.438,13.975,8.567l11.341,20.68L30.454,353.2c-7.541,0.741-12.881,7.709-11.635,15.183l2.706,16.236
	c1.908,11.451,11.461,20.039,23.053,20.663c58.044,3.13,226.038,10.048,263.723-12.176c17.881-10.546,32.698-24.756,44.518-39.02
	c3.523-4.252,8.993-6.307,14.474-5.637c33.473,4.095,100.698,14.897,144.706,39.151V164.269
	c-74.312-35.201-128.094-38.854-164.44-36.865C286.968,130.72,242.749,161.912,224,185.946z"/>
<g>
	<path style="fill:#AFD755;" d="M512,249.198c-36.739-18.777-83.644-38.726-130.593-47.622c-4.516-0.831-8.802,2.097-9.649,6.573
		c-0.851,4.484,2.093,8.806,6.577,9.653c47.945,9.086,96.824,30.781,133.665,50.162V249.198z"/>
	<path style="fill:#AFD755;" d="M512,316.617c-61.247-39.489-142.452-69.768-159.656-22.284
		c-19.895,54.909-92.215,71.57-112.12,38.268L30.454,353.2c-7.541,0.741-12.881,7.709-11.635,15.183l2.706,16.236
		c1.908,11.451,11.461,20.039,23.053,20.663c58.044,3.13,226.038,10.048,263.723-12.176c17.881-10.546,32.698-24.756,44.518-39.02
		c3.523-4.252,8.993-6.307,14.474-5.637c33.473,4.095,100.698,14.897,144.706,39.151v-70.983H512z"/>
	<path style="fill:#AFD755;" d="M159.6,243.029H97.086c-9.327,0-18.464-2.633-26.361-7.595l-10.129-6.364
		c11.116,10.703,8.823,52.876-33.154,68.534l173.782,5.33C172.645,302.075,146.323,271.365,159.6,243.029z"/>
	<path style="fill:#AFD755;" d="M512,164.269c-74.312-35.201-128.093-38.854-164.439-36.865
		c-36.496,1.997-67.007,14.109-89.619,28.674c0,0,101.972-26.906,254.058,55.131V164.269z"/>
</g>
<path style="fill:#4B3F4E;" d="M31.742,269.664c-3.169,0-6.339-1.21-8.758-3.629c-4.839-4.839-4.839-12.677,0-17.516l5.419-5.419
	c4.839-4.839,12.677-4.839,17.516,0s4.839,12.677,0,17.516l-5.419,5.419C38.081,268.454,34.911,269.664,31.742,269.664z"/>
<g>
	<path style="fill:#AFD755;" d="M428.08,358.746c-22.313,24.158-51.039,40.913-64.952,48.181c6.981,2.063,14.212,4.296,21.746,6.811
		c17.813-10.574,42.342-27.706,61.373-50.659C440.14,361.496,434.065,360.064,428.08,358.746z"/>
	<path style="fill:#AFD755;" d="M512,387.6c-2.38-1.311-4.855-2.565-7.361-3.799c-23.059,25.137-51.646,42.732-66.299,50.829
		c6.062,2.752,12.115,5.606,18.116,8.663c15.278-9.183,36.509-23.807,55.545-43.304L512,387.6L512,387.6z"/>
</g>
<path style="fill:#96BE4B;" d="M18.819,368.383l1.149,6.895l211.697-24.248c8.761-1.004,13.228-10.751,8.646-18.285l-0.086-0.143
	L30.455,353.2C22.913,353.94,17.573,360.908,18.819,368.383z"/>
<path style="fill:#AFD755;" d="M223.371,189.812l-8.661,53.217h-30.569c5.257,16.534,20.551,28.594,38.827,28.594
	c22.603,0,40.926-18.324,40.926-40.926C263.894,208.232,245.783,190.034,223.371,189.812z"/>
<path style="fill:#FFDC64;" d="M198.194,230.697c0,0-21.953-44.707,24.774-74.323c34.859-22.094,89.802-17.566,130.617-2.855
	c2.317,0.835,2.404,4.1,0.175,5.147l-19.308,9.063c0,0,46.016,39.652,144.723,46.013c2.787,0.18,3.693,3.808,1.261,5.181
	c-16.599,9.369-66.581,26.607-181.596-6.655c-80.901-23.396-100.63,16.603-100.63,16.603"/>
<path style="fill:#FFC850;" d="M480.435,218.924c2.159-1.219,1.592-4.086-0.49-4.87c-38.061,6.826-133.6,13.711-199.171-40.495
	l8.418-10.522c1.617-2.022,0.169-5.03-2.419-4.977c-22.082,0.448-93.298,6.33-83.259,63.977
	c10.052-10.273,36.445-26.795,95.325-9.767C413.854,245.531,463.836,228.293,480.435,218.924z"/>
<circle style="fill:#EDEBED;" cx="222.97" cy="230.701" r="24.774"/>
<circle style="fill:#4B3F4E;" cx="222.97" cy="230.701" r="8.622"/>
<g>
</g>
<g>
</g>
<g>
</g>
<g>
</g>
<g>
</g>
<g>
</g>
<g>
</g>
<g>
</g>
<g>
</g>
<g>
</g>
<g>
</g>
<g>
</g>
<g>
</g>
<g>
</g>
<g>
</g>
</svg>
