<?xml version="1.0" encoding="iso-8859-1"?>
<!-- Generator: Adobe Illustrator 19.0.0, SVG Export Plug-In . SVG Version: 6.00 Build 0)  -->
<svg version="1.1" id="Capa_1" xmlns="http://www.w3.org/2000/svg" xmlns:xlink="http://www.w3.org/1999/xlink" x="0px" y="0px"
	 viewBox="0 0 512 512" style="enable-background:new 0 0 512 512;" xml:space="preserve">
<circle style="fill:#87DCFF;" cx="256" cy="256" r="256"/>
<path style="fill:#00C3FF;" d="M339.957,428.043c-141.385,0-256-114.615-256-256c0-49.18,13.896-95.102,37.935-134.107
	C48.766,83.005,0,163.795,0,256c0,141.385,114.615,256,256,256c92.205,0,172.996-48.766,218.065-121.893
	C435.059,414.147,389.138,428.043,339.957,428.043z"/>
<path style="fill:#BEE86E;" d="M418.711,312.749l-56.729-39.561c-4.543-3.169-9.678-5.391-15.098-6.534l-53.077-11.193
	c-8.478-1.788-17.039,2.658-20.453,10.621l-46.075-39.089c-1.741-1.477-4.018-2.167-6.287-1.906l-19.994,2.305
	c-9.623,1.11-18.132-6.263-18.402-15.947l-0.218-7.816c-0.399-8.39,5.563-15.744,13.854-17.089l35.306-5.725
	c9.924-1.609,18.971,5.946,19.157,15.997l0.143,7.726c0.089,4.508,3.766,8.105,8.258,8.105c0.048,0,0.105,0,0.153,0
	c4.556-0.089,8.185-3.855,8.105-8.411l-0.516-27.851c-0.115-6.189,2.091-12.196,6.184-16.839l38.719-43.931l23.572-7.857
	c6.636-2.212,7.689-11.155,1.748-14.848l-44.636-27.747c-8.753-5.441-20.297-1.624-24.082,7.963l-1.198,3.034
	c-3.699,9.371-14.854,13.275-23.589,8.257l-18.415-10.579c-5.749-3.302-5.458-11.692,0.506-14.589l16.203-7.87
	c3.675-1.785,6.198-5.307,6.704-9.361c0.925-7.404-5.021-13.866-12.476-13.558l-35.821,1.477l-31.084,13.2
	c-3.783,1.607-8.172,0.186-10.297-3.332l-9.88-16.36C127.4,33.394,107.44,46.257,89.595,61.542l16.104,24.964
	c2.339,3.71,3.113,8.274,2.129,12.524l-13.734,59.645c-1.887,8.194,0.511,16.786,6.367,22.819l56.197,57.891
	c5.315,5.492,13.073,8.258,20.621,7.363l42.048-4.847l39.24,33.295c5.268,4.47,7.197,11.745,4.836,18.238l-3.374,9.278
	c-2.551,7.017-1.802,14.81,2.039,21.213l29.348,48.914c3.116,5.194,4.222,11.349,3.108,17.303l-13.824,73.9
	c-0.585,3.128,0.678,6.314,3.249,8.19l8.666,6.324c3.505,2.557,8.391,1.967,11.185-1.352l118.098-140.269
	C428.154,329.504,426.678,318.305,418.711,312.749z"/>
<g>
	<path style="fill:#AFD755;" d="M89.597,61.544L101.29,79.67c5.617-14.487,12.411-28.387,20.447-41.461
		C110.431,45.193,99.647,52.936,89.597,61.544z"/>
	<path style="fill:#AFD755;" d="M339.957,428.043c-17.658,0-34.897-1.789-51.549-5.193l-7.708,41.192
		c-0.585,3.128,0.678,6.314,3.249,8.19l8.666,6.324c3.505,2.557,8.391,1.967,11.185-1.352l41.55-49.35
		C343.546,427.891,341.771,428.043,339.957,428.043z"/>
</g>
<g>
</g>
<g>
</g>
<g>
</g>
<g>
</g>
<g>
</g>
<g>
</g>
<g>
</g>
<g>
</g>
<g>
</g>
<g>
</g>
<g>
</g>
<g>
</g>
<g>
</g>
<g>
</g>
<g>
</g>
</svg>
