<?xml version="1.0" encoding="iso-8859-1"?>
<!-- Generator: Adobe Illustrator 19.0.0, SVG Export Plug-In . SVG Version: 6.00 Build 0)  -->
<svg version="1.1" id="Capa_1" xmlns="http://www.w3.org/2000/svg" xmlns:xlink="http://www.w3.org/1999/xlink" x="0px" y="0px"
	 viewBox="0 0 512.001 512.001" style="enable-background:new 0 0 512.001 512.001;" xml:space="preserve">
<path style="fill:#BEE86E;" d="M453.365,265.06c16.008-10.903,34.7-30.126,46.064-47.729c1.93-2.989,1.627-6.973-0.735-9.634
	c-15.216-17.141-38.458-32.687-58.41-41.088l-117.727,52.323L453.365,265.06z"/>
<path style="fill:#AFD755;" d="M337.716,224.278l115.649,40.781c16.007-10.902,34.7-30.126,46.064-47.729
	c1.121-1.736,1.402-3.789,1.051-5.742L337.716,224.278z"/>
<path style="fill:#BEE86E;" d="M110.51,368.329c-30.391,40.961-34.942,94.028-18.414,138.343c1.245,3.338,4.598,5.537,8.154,5.314
	c40.011-2.512,82.511-23.923,109.399-52.779L110.51,368.329z"/>
<path style="fill:#AFD755;" d="M110.51,368.329c-30.391,40.961-34.942,94.028-18.414,138.343c0.539,1.445,1.523,2.617,2.698,3.53
	l63.632-97.95L110.51,368.329z"/>
<path style="fill:#BEE86E;" d="M384.518,393.114c1.312,36.748-12.771,71.443-33.348,100.391c-1.851,2.604-5.1,3.949-8.24,3.358
	c-37.905-7.133-73.025-30.47-97.104-53.34l24.407-169.513L384.518,393.114z"/>
<path style="fill:#AFD755;" d="M245.826,443.523c23.429,22.252,57.335,44.825,94.064,52.605L268.183,288.25L245.826,443.523z"/>
<g>
	<path style="fill:#96BE4B;" d="M125.18,475.284c-1.936,0-3.897-0.541-5.639-1.686c-4.776-3.122-6.116-9.52-2.993-14.288
		l16.975-25.963c3.114-4.784,9.512-6.132,14.288-2.993c4.776,3.122,6.116,9.52,2.993,14.288l-16.975,25.963
		C131.852,473.638,128.544,475.284,125.18,475.284z"/>
	<path style="fill:#96BE4B;" d="M360.167,232.802c-5.381,0-9.915-4.163-10.295-9.601c-0.395-5.696,3.889-10.625,9.577-11.029
		l84.35-5.914c5.752-0.444,10.634,3.889,11.029,9.577c0.395,5.696-3.889,10.625-9.577,11.029l-84.35,5.914
		C360.651,232.793,360.409,232.802,360.167,232.802z"/>
	<path style="fill:#96BE4B;" d="M317.834,438.228c-4.292,0-8.302-2.695-9.77-6.987l-43.438-127.11
		c-1.848-5.397,1.033-11.271,6.43-13.11c5.389-1.848,11.263,1.033,13.11,6.43l43.438,127.11c1.848,5.397-1.033,11.271-6.43,13.11
		C320.069,438.05,318.939,438.228,317.834,438.228z"/>
</g>
<path style="fill:#E6646E;" d="M438.762,242.102c-20.478-12.17-49.241-17.775-78.586-19.629c0.819-0.302,1.665-0.615,1.894-0.682
	c26.867-7.814,52.469-18.835,68.573-33.375c31.696-28.617,31.615-80.366-0.182-115.584c-31.796-35.219-83.268-40.57-114.964-11.953
	c-11.074,9.998-20.916,24.679-29.42,41.279c0.417-18.364-1.622-37.942-6.296-51.632c-13.797-40.413-61.383-60.747-106.287-45.417
	s-70.121,60.519-56.324,100.933c1.554,4.551,6.029,12.962,8.486,17.624l-7.114,17.103c-8.087-2.483-15.925-4.129-23.3-4.694
	c-42.579-3.259-80.032,32.451-83.653,79.761s27.96,88.305,70.539,91.564c23.761,1.819,51.944-5.752,79.162-17.109
	c-22.156,19.76-41.949,42.353-50.411,63.751c-15.705,39.711,7.332,86.049,51.455,103.499c44.123,17.45,92.624-0.595,108.329-40.306
	c11.591-29.308,10.142-77.475,3.736-116.441c12.831,25.095,47.811,71.922,76.582,89.02c36.71,21.816,86.121,6.435,110.361-34.354
	C485.581,314.67,475.472,263.919,438.762,242.102z"/>
<path style="fill:#DC4655;" d="M368.727,300.12l-96.533-67.98l94.476-70.804c3.251-2.428,4.962-6.156,4.962-9.916
	c0-2.59-0.807-5.204-2.477-7.431c-4.107-5.478-11.868-6.583-17.346-2.485l-94.48,70.807L219.18,100.575
	c-2.211-6.479-9.262-9.94-15.732-7.729c-6.479,2.219-9.94,9.262-7.729,15.732l38.153,111.741l-118.058,1.751
	c-6.785,0.105-12.215,5.631-12.207,12.4c0,0.056,0,0.113,0,0.177c0.105,6.777,5.631,12.207,12.392,12.207c0.056,0,0.121,0,0.186,0
	l118.058-1.759l-34.821,112.822c-0.371,1.218-0.557,2.453-0.549,3.671c0,5.285,3.421,10.182,8.738,11.828
	c1.218,0.371,2.445,0.549,3.655,0.549c5.301,0,10.198-3.413,11.844-8.738l34.816-112.818l96.539,67.976
	c2.17,1.525,4.655,2.259,7.124,2.259c3.889,0,7.729-1.831,10.141-5.26C375.665,311.795,374.326,304.066,368.727,300.12z"/>
<path style="fill:#FFDC64;" d="M249.741,236.731c-1.146,0-2.307-0.242-3.413-0.742l-113.056-53.394
	c-4.147-1.888-5.986-6.785-4.099-10.94c1.88-4.139,6.753-6.019,10.94-4.099l55.983,27.463l-57.645-47.44
	c-3.518-2.904-4.026-8.108-1.13-11.634c2.904-3.518,8.1-4.034,11.634-1.13L255,222.086c3.195,2.638,3.953,7.237,1.759,10.755
	C255.211,235.327,252.524,236.731,249.741,236.731z"/>
<circle style="fill:#FFC850;" cx="114.43" cy="157.761" r="20.648"/>
<circle style="fill:#FFDC64;" cx="138.48" cy="133.321" r="20.648"/>
<circle style="fill:#FFF082;" cx="143.25" cy="166.901" r="20.648"/>
<g>
</g>
<g>
</g>
<g>
</g>
<g>
</g>
<g>
</g>
<g>
</g>
<g>
</g>
<g>
</g>
<g>
</g>
<g>
</g>
<g>
</g>
<g>
</g>
<g>
</g>
<g>
</g>
<g>
</g>
</svg>
