<?xml version="1.0" encoding="iso-8859-1"?>
<!-- Generator: Adobe Illustrator 19.0.0, SVG Export Plug-In . SVG Version: 6.00 Build 0)  -->
<svg version="1.1" id="Capa_1" xmlns="http://www.w3.org/2000/svg" xmlns:xlink="http://www.w3.org/1999/xlink" x="0px" y="0px"
	 viewBox="0 0 512.001 512.001" style="enable-background:new 0 0 512.001 512.001;" xml:space="preserve">
<path style="fill:#FF8087;" d="M85.202,482.594c41.287,33.246,99.014,30.075,128.936-7.084
	c33.81-41.987,48.123-147.01,41.864-205.026c-58.017,6.259-157.569,42.644-191.379,84.631
	C34.701,392.274,43.915,449.348,85.202,482.594z"/>
<path style="fill:#FAEBC8;" d="M261.178,264.056c-3.198-2.575-7.805-2.405-10.805,0.395l-85.316,79.635
	c-3.333,3.111-3.514,8.335-0.407,11.665c3.126,3.345,8.335,3.514,11.664,0.401l43.088-40.216l-30.104,50.671
	c-2.323,3.913-1.027,8.972,2.883,11.313c3.919,2.328,8.984,1.037,11.313-2.883l59.602-100.34
	C265.192,271.169,264.376,266.632,261.178,264.056z"/>
<path style="fill:#FF9B9B;" d="M160.25,389.394c-5.326-4.289-13.119-3.445-17.405,1.878L96.263,449.12
	c-4.286,5.323-3.448,13.116,1.878,17.405s13.119,3.445,17.405-1.878l46.582-57.848C166.414,401.477,165.576,393.683,160.25,389.394z
	"/>
<g>
	<circle style="fill:#DC4655;" cx="196.851" cy="373.081" r="18.273"/>
	<circle style="fill:#DC4655;" cx="168.381" cy="350.161" r="18.273"/>
</g>
<path style="fill:#FF8087;" d="M426.8,482.594c-41.287,33.246-99.014,30.075-128.936-7.084
	C264.054,433.523,249.741,328.5,256,270.484c58.017,6.259,157.569,42.644,191.379,84.631
	C477.301,392.274,468.087,449.348,426.8,482.594z"/>
<path style="fill:#FAEBC8;" d="M250.824,264.056c3.198-2.575,7.805-2.405,10.805,0.395l85.316,79.635
	c3.333,3.111,3.514,8.335,0.407,11.665c-3.126,3.345-8.335,3.514-11.664,0.401L292.6,315.936l30.104,50.671
	c2.323,3.913,1.027,8.972-2.883,11.313c-3.919,2.328-8.984,1.037-11.313-2.883l-59.602-100.34
	C246.81,271.169,247.626,266.632,250.824,264.056z"/>
<path style="fill:#FF9B9B;" d="M351.751,389.394c5.326-4.289,13.119-3.445,17.405,1.878l46.582,57.848
	c4.286,5.323,3.448,13.116-1.878,17.405s-13.119,3.445-17.405-1.878l-46.582-57.848
	C345.588,401.477,346.425,393.683,351.751,389.394z"/>
<g>
	<circle style="fill:#DC4655;" cx="315.151" cy="373.081" r="18.273"/>
	<circle style="fill:#DC4655;" cx="343.621" cy="350.161" r="18.273"/>
</g>
<path style="fill:#E6646E;" d="M5.191,180.077c-16.345,50.426,7.196,103.23,52.58,117.94
	c51.281,16.622,154.507-7.442,206.481-33.971c-26.529-51.974-96.011-132.017-147.292-148.639
	C71.577,100.697,21.536,129.651,5.191,180.077z"/>
<path style="fill:#FAEBC8;" d="M272.103,266.59c1.266-3.906-0.535-8.15-4.22-9.954l-104.816-51.324
	c-4.094-2.005-9.04-0.312-11.043,3.778c-2.011,4.114-0.312,9.04,3.783,11.041l52.934,25.921l-58.074-10.063
	c-4.484-0.776-8.748,2.239-9.542,6.726c-0.778,4.492,2.234,8.764,6.726,9.542l114.995,19.919
	C266.888,272.877,270.837,270.496,272.103,266.59z"/>
<path style="fill:#FF8087;" d="M119.021,216.973c2.108-6.505-1.458-13.485-7.959-15.592L40.409,178.48
	c-6.501-2.107-13.484,1.454-15.592,7.959s1.458,13.485,7.959,15.592l70.653,22.901C109.93,227.038,116.913,223.477,119.021,216.973z
	"/>
<g>
	<circle style="fill:#DC4655;" cx="147.311" cy="245.351" r="18.273"/>
	<circle style="fill:#DC4655;" cx="158.581" cy="210.591" r="18.273"/>
</g>
<path style="fill:#FF8087;" d="M256.001,6.408c53.009,0,95.982,38.675,95.982,86.383c0,53.908-54.719,144.684-95.982,185.946
	c-41.262-41.262-95.981-132.039-95.981-185.946C160.02,45.083,202.992,6.408,256.001,6.408z"/>
<path style="fill:#FAEBC8;" d="M256.001,286.99c-4.106,0-7.588-3.022-8.168-7.084l-16.505-115.534
	c-0.645-4.513,2.49-8.696,6.999-9.34c4.533-0.645,8.696,2.49,9.336,7.003l8.338,58.347l8.333-58.347
	c0.645-4.505,4.827-7.632,9.34-7.003c4.513,0.645,7.648,4.827,7.003,9.34l-16.509,115.534
	C263.589,283.968,260.107,286.99,256.001,286.99z"/>
<path style="fill:#FF9B9B;" d="M256.001,126.068c-6.838,0-12.379-5.545-12.379-12.379V39.417c0-6.834,5.541-12.379,12.379-12.379
	c6.838,0,12.379,5.545,12.379,12.379v74.272C268.38,120.523,262.839,126.068,256.001,126.068z"/>
<g>
	<circle style="fill:#DC4655;" cx="274.271" cy="161.731" r="18.273"/>
	<circle style="fill:#DC4655;" cx="237.731" cy="161.731" r="18.273"/>
</g>
<path style="fill:#E6646E;" d="M506.811,180.077c16.345,50.426-7.196,103.23-52.58,117.94
	c-51.281,16.622-154.507-7.442-206.481-33.971c26.529-51.974,96.011-132.017,147.292-148.639
	C440.425,100.697,490.466,129.651,506.811,180.077z"/>
<path style="fill:#FAEBC8;" d="M239.899,266.59c-1.266-3.906,0.535-8.15,4.22-9.954l104.816-51.324
	c4.094-2.005,9.04-0.312,11.043,3.778c2.011,4.114,0.312,9.04-3.783,11.041l-52.934,25.921l58.074-10.063
	c4.484-0.776,8.748,2.239,9.542,6.726c0.778,4.492-2.234,8.764-6.726,9.542l-114.995,19.919
	C245.114,272.877,241.165,270.496,239.899,266.59z"/>
<path style="fill:#FF8087;" d="M392.981,216.973c-2.108-6.505,1.458-13.485,7.959-15.592l70.653-22.901
	c6.501-2.107,13.484,1.454,15.592,7.959s-1.458,13.485-7.959,15.592l-70.653,22.901
	C402.072,227.038,395.089,223.477,392.981,216.973z"/>
<g>
	<circle style="fill:#DC4655;" cx="364.691" cy="245.351" r="18.273"/>
	<circle style="fill:#DC4655;" cx="353.421" cy="210.591" r="18.273"/>
</g>
<circle style="fill:#FFDC64;" cx="256.001" cy="278.741" r="41.26"/>
<circle style="fill:#FFF082;" cx="256.001" cy="278.741" r="24.757"/>
<g>
</g>
<g>
</g>
<g>
</g>
<g>
</g>
<g>
</g>
<g>
</g>
<g>
</g>
<g>
</g>
<g>
</g>
<g>
</g>
<g>
</g>
<g>
</g>
<g>
</g>
<g>
</g>
<g>
</g>
</svg>
