<?xml version="1.0" encoding="iso-8859-1"?>
<!-- Generator: Adobe Illustrator 19.0.0, SVG Export Plug-In . SVG Version: 6.00 Build 0)  -->
<svg version="1.1" id="Capa_1" xmlns="http://www.w3.org/2000/svg" xmlns:xlink="http://www.w3.org/1999/xlink" x="0px" y="0px"
	 viewBox="0 0 511.998 511.998" style="enable-background:new 0 0 511.998 511.998;" xml:space="preserve">
<g>
	<path style="fill:#FFDC64;" d="M382.425,305.22c19.043-19.043,24.049-44.911,3.55-65.41c-12.431-12.431-49.588-38.233-81.156-52.37
		l-39.924,40.727c14.188,31.448,39.762,68.244,52.121,80.603C337.514,329.268,363.382,324.263,382.425,305.22z"/>
	<path style="fill:#FFDC64;" d="M129.573,52.367c-19.043,19.043-24.049,44.911-3.55,65.41c12.431,12.431,49.588,38.233,81.156,52.37
		l39.924-40.727c-14.188-31.448-39.762-68.244-52.121-80.603C174.484,28.319,148.616,33.325,129.573,52.367z"/>
</g>
<path style="fill:#FFC850;" d="M164.053,86.847c3.174-3.174,8.317-3.176,11.493,0l172.399,172.399c3.176,3.176,3.174,8.32,0,11.493
	c-3.174,3.174-8.317,3.176-11.493,0L164.053,98.341C160.876,95.164,160.879,90.021,164.053,86.847z"/>
<g>
	<path style="fill:#FFDC64;" d="M129.573,305.22c19.043,19.043,44.911,24.049,65.41,3.55c12.431-12.431,38.233-49.588,52.37-81.156
		l-40.727-39.924c-31.448,14.188-68.244,39.762-80.603,52.121C105.524,260.309,110.53,286.177,129.573,305.22z"/>
	<path style="fill:#FFDC64;" d="M382.425,52.367c-19.043-19.043-44.911-24.049-65.41-3.55
		c-12.431,12.431-38.233,49.588-52.37,81.156l40.727,39.924c31.448-14.188,68.244-39.762,80.603-52.121
		C406.474,97.279,401.468,71.41,382.425,52.367z"/>
</g>
<path style="fill:#FFC850;" d="M164.053,270.74c-3.174-3.174-3.176-8.317,0-11.493l172.399-172.4c3.176-3.176,8.32-3.174,11.493,0
	c3.174,3.174,3.176,8.317,0,11.493l-172.399,172.4C172.37,273.916,167.226,273.914,164.053,270.74z"/>
<path id="SVGCleanerId_0" style="fill:#FFF082;" d="M77.205,178.794c0,26.931,14.752,48.762,43.742,48.762
	c17.58,0,62.099-8.029,94.417-20.355l-0.567-57.029c-32.269-12.204-76.372-20.14-93.85-20.14
	C91.957,130.032,77.205,151.863,77.205,178.794z"/>
<path style="fill:#FFF082;" d="M434.793,178.794c0-26.931-14.752-48.762-43.742-48.762c-17.58,0-62.099,8.029-94.417,20.355
	l0.567,57.029c32.269,12.204,76.372,20.14,93.85,20.14C420.041,227.556,434.793,205.724,434.793,178.794z"/>
<path id="SVGCleanerId_1" style="fill:#FFDC64;" d="M125.967,178.794c0-4.488,3.635-8.127,8.127-8.127h243.81
	c4.492,0,8.127,3.639,8.127,8.127s-3.635,8.127-8.127,8.127h-243.81C129.602,186.921,125.967,183.282,125.967,178.794z"/>
<path id="SVGCleanerId_2" style="fill:#FFF082;" d="M255.999,357.587c26.931,0,48.762-14.752,48.762-43.742
	c0-17.58-8.029-62.099-20.355-94.417l-57.029,0.567c-12.204,32.269-20.14,76.372-20.14,93.85
	C207.237,342.835,229.068,357.587,255.999,357.587z"/>
<path id="SVGCleanerId_3" style="fill:#FFF082;" d="M255.999,0c-26.931,0-48.762,14.752-48.762,43.742
	c0,17.58,8.029,62.099,20.355,94.417l57.029-0.567c12.204-32.269,20.14-76.372,20.14-93.85C304.761,14.752,282.93,0,255.999,0z"/>
<path id="SVGCleanerId_4" style="fill:#FFDC64;" d="M255.999,308.825c-4.488,0-8.127-3.635-8.127-8.127V56.889
	c0-4.492,3.639-8.127,8.127-8.127s8.127,3.635,8.127,8.127v243.81C264.126,305.19,260.487,308.825,255.999,308.825z"/>
<g>
	<path style="fill:#AFD755;" d="M349.562,483.933c-24.596,11.557-56.6-5.433-61.994-16.911c-5.393-11.478,1.956-46.96,26.552-58.517
		c28.456-13.371,68.791-6.111,86.878-1.741c5.018,1.212,7.628,6.767,5.358,11.404C398.175,434.879,378.018,470.562,349.562,483.933z
		"/>
	<path style="fill:#AFD755;" d="M152.588,455.908c27.185,12.774,62.558-6.005,68.519-18.692s-2.162-51.903-29.347-64.676
		c-32.008-15.04-77.614-6.463-97.061-1.671c-5.018,1.237-7.603,6.737-5.352,11.39C98.072,400.287,120.579,440.868,152.588,455.908z"
		/>
</g>
<g>
	<path style="fill:#BEE86E;" d="M221.808,435.244c4.439-14.326-4.115-50.519-30.048-62.704c-32.008-15.04-77.614-6.463-97.061-1.672
		c-3.103,0.765-5.092,3.211-5.766,6.028C113.598,383.733,172.73,402.344,221.808,435.244z"/>
	<path style="fill:#BEE86E;" d="M400.998,406.763c-18.087-4.37-58.422-11.629-86.878,1.742
		c-23.879,11.22-31.465,44.924-26.954,57.386c26.523-16.465,68.457-38.224,119.8-50.36
		C407.416,411.621,405.089,407.752,400.998,406.763z"/>
</g>
<path style="fill:#96BE4B;" d="M375.134,424.913c-1.258-4.302-5.782-6.786-10.079-5.524c-45.81,13.382-82.214,38.646-100.929,53.541
	V349.46c0-4.492-3.639-8.127-8.127-8.127s-8.127,3.635-8.127,8.127v96.077c-20.147-16.229-60.918-45.038-112.647-60.149
	c-4.29-1.262-8.817,1.214-10.079,5.524c-1.258,4.31,1.214,8.817,5.524,10.079c52.523,15.343,94.193,46.555,111.29,60.769
	c3.736,3.106,5.912,7.683,5.912,12.541v29.57c0,4.492,3.639,8.127,8.127,8.127s8.127-3.635,8.127-8.127v-2.201
	c0-4.836,2.101-9.401,5.831-12.479c15.837-13.068,52.987-40.569,99.653-54.201C373.92,433.73,376.392,429.222,375.134,424.913z"/>
<g>
	<path id="SVGCleanerId_0_1_" style="fill:#FFF082;" d="M77.205,178.794c0,26.931,14.752,48.762,43.742,48.762
		c17.58,0,62.099-8.029,94.417-20.355l-0.567-57.029c-32.269-12.204-76.372-20.14-93.85-20.14
		C91.957,130.032,77.205,151.863,77.205,178.794z"/>
</g>
<g>
	<path id="SVGCleanerId_1_1_" style="fill:#FFDC64;" d="M125.967,178.794c0-4.488,3.635-8.127,8.127-8.127h243.81
		c4.492,0,8.127,3.639,8.127,8.127s-3.635,8.127-8.127,8.127h-243.81C129.602,186.921,125.967,183.282,125.967,178.794z"/>
</g>
<g>
	<path id="SVGCleanerId_2_1_" style="fill:#FFF082;" d="M255.999,357.587c26.931,0,48.762-14.752,48.762-43.742
		c0-17.58-8.029-62.099-20.355-94.417l-57.029,0.567c-12.204,32.269-20.14,76.372-20.14,93.85
		C207.237,342.835,229.068,357.587,255.999,357.587z"/>
</g>
<g>
	<path id="SVGCleanerId_3_1_" style="fill:#FFF082;" d="M255.999,0c-26.931,0-48.762,14.752-48.762,43.742
		c0,17.58,8.029,62.099,20.355,94.417l57.029-0.567c12.204-32.269,20.14-76.372,20.14-93.85C304.761,14.752,282.93,0,255.999,0z"/>
</g>
<g>
	<path id="SVGCleanerId_4_1_" style="fill:#FFDC64;" d="M255.999,308.825c-4.488,0-8.127-3.635-8.127-8.127V56.889
		c0-4.492,3.639-8.127,8.127-8.127s8.127,3.635,8.127,8.127v243.81C264.126,305.19,260.487,308.825,255.999,308.825z"/>
</g>
<circle style="fill:#965A50;" cx="255.999" cy="178.79" r="56.889"/>
<circle style="fill:#AF6E5A;" cx="255.999" cy="178.79" r="32.508"/>
<g>
</g>
<g>
</g>
<g>
</g>
<g>
</g>
<g>
</g>
<g>
</g>
<g>
</g>
<g>
</g>
<g>
</g>
<g>
</g>
<g>
</g>
<g>
</g>
<g>
</g>
<g>
</g>
<g>
</g>
</svg>
