<?xml version="1.0" encoding="iso-8859-1"?>
<!-- Generator: Adobe Illustrator 19.0.0, SVG Export Plug-In . SVG Version: 6.00 Build 0)  -->
<svg version="1.1" id="Capa_1" xmlns="http://www.w3.org/2000/svg" xmlns:xlink="http://www.w3.org/1999/xlink" x="0px" y="0px"
	 viewBox="0 0 511.999 511.999" style="enable-background:new 0 0 511.999 511.999;" xml:space="preserve">
<g>
	<path style="fill:#FFC850;" d="M182.832,17.203c-2.527,16.022-6.831,59.848,16.06,85.357l39.146-16.215
		c-1.85-34.224-35.884-62.17-48.999-71.713C186.535,12.81,183.314,14.144,182.832,17.203z"/>
	<path style="fill:#FFC850;" d="M329.166,352.93c2.527-16.022,6.831-59.848-16.06-85.357l-39.146,16.215
		c1.85,34.224,35.884,62.17,49,71.713C325.463,357.322,328.683,355.988,329.166,352.93z"/>
	<path style="fill:#FFC850;" d="M423.862,111.899c-16.022-2.527-59.848-6.831-85.357,16.06l16.215,39.146
		c34.224-1.85,62.17-35.884,71.713-48.999C428.255,115.602,426.921,112.382,423.862,111.899z"/>
	<path style="fill:#FFC850;" d="M88.135,258.233c16.022,2.527,59.848,6.831,85.357-16.06l-16.215-39.146
		c-34.224,1.85-62.17,35.884-71.713,48.999C83.743,254.53,85.077,257.751,88.135,258.233z"/>
	<path style="fill:#FFC850;" d="M322.96,14.632c-13.116,9.543-47.15,37.489-49,71.713l39.146,16.215
		c22.892-25.508,18.587-69.334,16.061-85.356C328.684,14.144,325.463,12.81,322.96,14.632z"/>
	<path style="fill:#FFC850;" d="M189.038,355.5c13.116-9.543,47.15-37.489,49-71.712l-39.146-16.215
		c-22.892,25.508-18.587,69.334-16.061,85.356C183.314,355.988,186.534,357.322,189.038,355.5z"/>
	<path style="fill:#FFC850;" d="M426.433,252.027c-9.543-13.116-37.489-47.15-71.713-49l-16.215,39.146
		c25.508,22.892,69.334,18.587,85.356,16.061C426.921,257.751,428.255,254.531,426.433,252.027z"/>
	<path style="fill:#FFC850;" d="M85.565,118.105c9.543,13.116,37.489,47.15,71.713,49l16.215-39.146
		c-25.508-22.892-69.334-18.587-85.356-16.061C85.077,112.382,83.743,115.602,85.565,118.105z"/>
</g>
<path style="fill:#96BE4B;" d="M300.134,431.903c-1.033,0.776-19.584,14.779-35.962,32.871V274.973h-16.347v189.801
	c-16.378-18.092-34.929-32.095-35.962-32.871l-9.81,13.074c0.288,0.219,26.487,20.018,42.73,41.761
	c2.046,2.739,3.042,6.114,3.042,9.532v7.556c0,4.518,3.66,8.173,8.173,8.173s8.173-3.656,8.173-8.173v-7.555
	c0-3.419,0.996-6.794,3.043-9.533c16.222-21.704,42.441-41.543,42.728-41.762L300.134,431.903z"/>
<path style="fill:#AFD755;" d="M57.151,341.87c11.109,23.886,50.746,88.846,159.408,108.226c4.11,0.733,7.178-3.748,5.067-7.35
	c-13.365-22.802-57.27-83.047-158.866-107.68C58.814,334.109,55.439,338.189,57.151,341.87z"/>
<path style="fill:#BEE86E;" d="M454.847,341.87c-11.109,23.886-50.746,88.846-159.408,108.226c-4.11,0.733-7.178-3.748-5.067-7.35
	c13.365-22.802,57.27-83.047,158.866-107.68C453.184,334.109,456.559,338.189,454.847,341.87z"/>
<g>
	<path style="fill:#FFDC64;" d="M252.64,1.981c-8.466,13.836-29.214,52.678-17.827,85.005h42.371
		c11.387-32.327-9.361-71.17-17.826-85.005C257.742-0.66,254.256-0.66,252.64,1.981z"/>
	<path style="fill:#FFDC64;" d="M259.358,368.152c8.466-13.836,29.214-52.678,17.827-85.005h-42.371
		c-11.387,32.327,9.361,71.17,17.826,85.005C254.256,370.793,257.741,370.793,259.358,368.152z"/>
	<path style="fill:#FFDC64;" d="M439.084,181.708c-13.836-8.466-52.678-29.214-85.005-17.827v42.371
		c32.327,11.387,71.17-9.361,85.005-17.826C441.725,186.809,441.725,183.324,439.084,181.708z"/>
	<path style="fill:#FFDC64;" d="M72.913,188.425c13.836,8.466,52.678,29.214,85.005,17.827v-42.371
		c-32.327-11.387-71.17,9.361-85.005,17.826C70.272,183.323,70.272,186.809,72.913,188.425z"/>
	<path style="fill:#FFDC64;" d="M383.085,53.23c-15.769,3.797-57.907,16.592-72.713,47.502l29.961,29.961
		c30.911-14.806,43.705-56.944,47.503-72.713C388.56,54.97,386.095,52.506,383.085,53.23z"/>
	<path style="fill:#FFDC64;" d="M128.913,316.902c15.769-3.797,57.907-16.592,72.713-47.502l-29.961-29.961
		c-30.911,14.806-43.705,56.944-47.503,72.713C123.438,315.162,125.903,317.627,128.913,316.902z"/>
	<path style="fill:#FFDC64;" d="M387.835,312.152c-3.797-15.769-16.592-57.907-47.502-72.713L310.372,269.4
		c14.806,30.911,56.944,43.705,72.713,47.503C386.095,317.627,388.56,315.162,387.835,312.152z"/>
	<path style="fill:#FFDC64;" d="M124.163,57.98c3.797,15.769,16.592,57.907,47.502,72.713l29.961-29.961
		c-14.806-30.911-56.944-43.705-72.713-47.503C125.903,52.505,123.438,54.97,124.163,57.98z"/>
</g>
<circle style="fill:#965A50;" cx="255.999" cy="185.07" r="106.25"/>
<circle style="fill:#643C3E;" cx="255.999" cy="185.07" r="81.73"/>
<g>
</g>
<g>
</g>
<g>
</g>
<g>
</g>
<g>
</g>
<g>
</g>
<g>
</g>
<g>
</g>
<g>
</g>
<g>
</g>
<g>
</g>
<g>
</g>
<g>
</g>
<g>
</g>
<g>
</g>
</svg>
