<?xml version="1.0" encoding="iso-8859-1"?>
<!-- Generator: Adobe Illustrator 19.0.0, SVG Export Plug-In . SVG Version: 6.00 Build 0)  -->
<svg version="1.1" id="Capa_1" xmlns="http://www.w3.org/2000/svg" xmlns:xlink="http://www.w3.org/1999/xlink" x="0px" y="0px"
	 viewBox="0 0 512 512" style="enable-background:new 0 0 512 512;" xml:space="preserve">
<g>
	<path style="fill:#BEB96E;" d="M96.961,183.58c-3.165,0-6.161-1.891-7.423-5.001c-3.235-8.025-9.54-8.361-13.037-7.837
		c-4.348,0.625-8.439-2.368-9.087-6.743c-0.649-4.368,2.371-8.439,6.743-9.087c10.009-1.485,23.98,2.25,30.219,17.667
		c1.656,4.102-0.324,8.759-4.419,10.415C98.973,183.392,97.957,183.58,96.961,183.58z"/>
	<path style="fill:#BEB96E;" d="M203.73,350.103c-2.95,0-5.79-1.633-7.181-4.462c-7.071-14.322-4.313-29.012,7.032-37.427
		c3.547-2.633,8.568-1.883,11.193,1.656c2.633,3.547,1.891,8.556-1.66,11.189c-7.372,5.477-3.559,14.775-2.219,17.502
		c1.957,3.961,0.332,8.759-3.629,10.712C206.124,349.837,204.917,350.103,203.73,350.103z"/>
	<path style="fill:#BEB96E;" d="M202.511,34.098c-4.368,0-7.939-3.516-7.997-7.9c-0.023-1.985-0.449-4.688-2.328-6.345
		c-1.371-1.203-3.356-1.696-5.591-1.469c-4.356,0.531-8.357-2.641-8.865-7.032c-0.508-4.383,2.637-8.353,7.028-8.861
		c6.817-0.781,13.185,1.11,17.995,5.344c4.911,4.321,7.665,10.767,7.763,18.159c0.055,4.415-3.481,8.048-7.9,8.103
		C202.581,34.098,202.546,34.098,202.511,34.098z"/>
</g>
<path style="fill:#D2D26E;" d="M128.378,144.902c-5.459-16.649,4.052-34.61,21.152-39.303c16.355-4.489,33.63,6.105,38.077,22.472
	c5.836,21.477-2.398,48.445-7.098,61.067c-1.434,3.851-6.061,5.301-9.495,3.045C159.312,184.496,135.519,166.681,128.378,144.902z"
	/>
<path style="fill:#BEB96E;" d="M171.014,192.183c1.676,1.102,3.633,1.293,5.368,0.779c-3.392-6.898-6.59-17.581-10.541-35.011
	c-5.452-24.055-16.036-39.436-24.517-48.586c-11.685,7.349-17.441,21.827-12.946,35.537
	C135.519,166.68,159.312,184.495,171.014,192.183z"/>
<path style="fill:#D2D26E;" d="M54.965,356.971c9.657-20.667,35.537-28.571,55.38-15.631c15.999,10.433,21.56,30.501,13.474,47.805
	c-12.459,26.664-46.374,45.399-61.036,52.493c-3.637,1.76-7.943-0.259-8.926-4.178C49.891,421.657,42.507,383.631,54.965,356.971z"
	/>
<path style="fill:#BEB96E;" d="M54.965,356.971c-12.458,26.659-5.074,64.686-1.109,80.489c0.387,1.542,1.371,2.67,2.543,3.509
	c23.457-28.278,41.941-71.187,37.265-90.991c-1.543-6.533-1.402-11.106-0.284-14.673C77.703,333.649,62.013,341.887,54.965,356.971z
	"/>
<path style="fill:#D2D26E;" d="M279.173,316.31c-15.337-14.764-19.435-35.391-9.152-46.073c10.282-10.682,31.051-7.372,46.388,7.392
	c19.609,18.876,31.089,48.507,36.143,64.292c1.539,4.807-2.895,9.413-7.757,8.058C328.828,345.529,298.782,335.186,279.173,316.31z"
	/>
<path style="fill:#BEB96E;" d="M344.794,349.978c1.856,0.517,3.643,0.158,5.066-0.741c-16.361-18.271-51.629-56.277-80.54-78.023
	c-9.232,10.908-5.061,30.738,9.854,45.096C298.782,335.186,328.828,345.529,344.794,349.978z"/>
<g>
	<path style="fill:#A5A050;" d="M260.347,512c-4.215,0-7.743-3.297-7.982-7.564c-0.059-1.07-6.888-108.39-83-193.956
		c-97.974-110.148-93.7-188.573-82.433-225.515C99.117,45.014,129.52,16.072,170.35,5.571
		c78.859-20.292,132.804,18.241,157.217,60.915c12.465,21.789,1.047,26.957-6.704,29.457c0,0-1-11.002-7.204-21.55
		c-21.926-37.28-69.201-71.346-139.324-53.32c-35.298,9.079-61.579,34.067-72.096,68.556
		c-10.29,33.739-13.697,105.905,79.081,210.209c79.952,89.887,86.774,199.121,87.024,203.723c0.242,4.415-3.137,8.181-7.548,8.423
		C260.648,511.992,260.495,512,260.347,512z"/>
	<path style="fill:#A5A050;" d="M86.823,393.484c-1.363,0-2.746-0.344-4.008-1.078c-3.825-2.219-5.122-7.118-2.903-10.939
		c8.65-14.893,6.438-27.144,3.883-41.334c-2.153-11.924-4.376-24.253,0.504-37.865c5.309-14.815,16.373-24.605,31.149-27.574
		c21.308-4.274,48.378,6.024,65.798,25.066c2.985,3.258,2.758,8.321-0.504,11.306c-3.27,2.969-8.321,2.75-11.302-0.508
		c-13.392-14.635-35.27-23.3-50.839-20.175c-9.326,1.875-15.795,7.689-19.237,17.291c-3.434,9.579-1.762,18.87,0.18,29.621
		c2.723,15.104,5.809,32.223-5.794,52.203C92.265,392.054,89.581,393.484,86.823,393.484z"/>
	<path style="fill:#A5A050;" d="M159.669,149.286c-3.516,0-6.739-2.336-7.712-5.884c-7.001-25.543-23.519-38.669-35.907-40.06
		c-8.04-0.906-14.611,2.977-19.014,11.212c-2.086,3.891-6.935,5.368-10.826,3.282c-3.899-2.078-5.368-6.931-3.286-10.83
		c7.528-14.08,20.245-21.222,34.911-19.565c21.831,2.453,41.748,23.238,49.554,51.726c1.168,4.266-1.34,8.665-5.602,9.837
		C161.079,149.192,160.368,149.286,159.669,149.286z"/>
	<path style="fill:#A5A050;" d="M295.031,302.635c-2.352,0-4.68-1.031-6.259-3.016c-17.409-21.831-44.709-40.888-44.983-41.084
		c-3.629-2.516-4.528-7.501-2.008-11.134c2.508-3.626,7.501-4.54,11.134-2.008c1.195,0.828,29.516,20.604,48.366,44.256
		c2.754,3.454,2.188,8.486-1.266,11.244C298.543,302.065,296.781,302.635,295.031,302.635z"/>
</g>
<path style="fill:#D29B82;" d="M382.878,229.859l44.072,22.577c4.496,2.303,10.219-0.879,10.635-5.913l4.081-49.35l-49.737-20.246
	L382.878,229.859z"/>
<path style="fill:#BEB96E;" d="M324.697,65.272c-54.341,6.001-54.406,54.815-51.953,70.329c0.5,3.165,3.751,5.09,6.719,3.884
	c15.211-6.184,50.018-29.132,53.068-61.378L324.697,65.272z"/>
<path style="fill:#C38264;" d="M404.779,135.524c3.806,39.023-8.686,92.664-14.398,114.483c-1.266,4.834-6.966,6.852-10.996,3.897
	c-18.211-13.353-61.382-46.964-78.052-76.947c-14.63-26.313-12.67-57.36,2.44-81.088c14.096-22.136,41.755-33.42,65.902-23.143
	C392.657,82.507,402.016,107.202,404.779,135.524z"/>
<path style="fill:#D28C73;" d="M349.979,165.992c31.138,23.827,83.294,41.524,104.842,48.187c4.774,1.476,9.497-2.301,9.113-7.283
	c-1.732-22.516-7.498-76.923-24.169-106.906c-14.63-26.313-42.036-41.033-70.165-40.721c-26.242,0.291-50.422,17.83-54.437,43.764
	C311.343,127.717,327.38,148.699,349.979,165.992z"/>
<path style="fill:#D2D26E;" d="M325.46,74.88c14.792,3.136,48.554,6.653,87.838-13.275c4.083-2.071,3.984-7.984-0.226-9.783
	c-18.737-8.004-61.054-20.376-90.495,14.251C319.945,69.168,321.486,74.038,325.46,74.88z"/>
<g>
</g>
<g>
</g>
<g>
</g>
<g>
</g>
<g>
</g>
<g>
</g>
<g>
</g>
<g>
</g>
<g>
</g>
<g>
</g>
<g>
</g>
<g>
</g>
<g>
</g>
<g>
</g>
<g>
</g>
</svg>
