<?xml version="1.0" encoding="iso-8859-1"?>
<!-- Generator: Adobe Illustrator 19.0.0, SVG Export Plug-In . SVG Version: 6.00 Build 0)  -->
<svg version="1.1" id="Capa_1" xmlns="http://www.w3.org/2000/svg" xmlns:xlink="http://www.w3.org/1999/xlink" x="0px" y="0px"
	 viewBox="0 0 512 512" style="enable-background:new 0 0 512 512;" xml:space="preserve">
<path style="fill:#96BE4B;" d="M390.227,251.936H121.773l125.838,142.616L232.2,502.424c-0.722,5.054,3.2,9.576,8.305,9.576h30.99
	c5.105,0,9.027-4.522,8.305-9.576l-15.41-107.873L390.227,251.936z"/>
<polygon style="fill:#E6646E;" points="265.588,402.94 246.412,402.94 240.42,444.886 271.58,444.886 "/>
<path style="fill:#AFD755;" d="M381.838,352.605c19.54-1.628,46.35-1.245,71.221,1.95c5.232,0.672,7.191,7.275,3.122,10.633
	c-23.983,19.798-92.633,64.436-200.181,37.983v-8.62L381.838,352.605z"/>
<path style="fill:#BEE86E;" d="M483.43,271.8C462.814,300.475,397.05,374.401,256,394.551c0,0,63.6-95.4,221.757-131.418
	C482.717,262.004,486.4,267.669,483.43,271.8z"/>
<path style="fill:#AFD755;" d="M130.162,352.605c-19.54-1.628-46.35-1.245-71.221,1.95c-5.232,0.672-7.191,7.275-3.122,10.633
	c23.983,19.798,92.633,64.436,200.181,37.983v-8.62L130.162,352.605z"/>
<path style="fill:#FFF082;" d="M101.476,120.035l-47.374-10.933c-4.833-1.115-9.164,3.216-8.049,8.049l10.933,47.374l51.905,7.415
	L101.476,120.035z"/>
<path style="fill:#FFDC64;" d="M107.942,213.26c-13.698-34.78-16.278-87.225-16.749-108.722c-0.104-4.763,4.594-8.104,9.061-6.45
	c20.189,7.478,68.56,26.998,91.686,50.124c20.296,20.296,26.621,49.272,18.977,74.978c-7.132,23.982-29.537,41.561-54.363,38.458
	C132.925,258.693,117.884,238.503,107.942,213.26z"/>
<path style="fill:#FFC850;" d="M150.211,170.992c-34.78-13.698-87.225-16.278-108.722-16.749c-4.763-0.104-8.104,4.594-6.45,9.061
	c7.478,20.189,26.998,68.56,50.124,91.686c20.296,20.296,49.272,26.621,74.978,18.977c23.982-7.132,41.561-29.537,38.458-54.363
	C195.645,195.974,175.453,180.934,150.211,170.992z"/>
<path style="fill:#FFF082;" d="M410.524,120.035l47.374-10.933c4.833-1.115,9.164,3.216,8.049,8.049l-10.933,47.374l-51.905,7.415
	L410.524,120.035z"/>
<path style="fill:#FFDC64;" d="M404.058,213.26c13.698-34.78,16.278-87.225,16.749-108.722c0.104-4.763-4.594-8.104-9.061-6.45
	c-20.189,7.478-68.56,26.998-91.686,50.124c-20.296,20.296-26.621,49.272-18.977,74.978c7.132,23.982,29.537,41.561,54.363,38.458
	C379.075,258.693,394.116,238.503,404.058,213.26z"/>
<path style="fill:#FFC850;" d="M361.789,170.992c34.78-13.698,87.225-16.278,108.722-16.749c4.763-0.104,8.104,4.594,6.45,9.061
	c-7.478,20.189-26.998,68.56-50.124,91.686c-20.296,20.296-49.272,26.621-74.978,18.977c-23.982-7.132-41.561-29.537-38.458-54.363
	C316.355,195.974,336.547,180.934,361.789,170.992z"/>
<path style="fill:#FFA0A0;" d="M287.459,44.384l-25.768-41.23c-2.629-4.206-8.754-4.206-11.382,0l-25.768,41.229L256,86.331
	L287.459,44.384z"/>
<path style="fill:#FF8087;" d="M226.111,114.877c14.907-34.279,50.167-73.188,65.035-88.722c3.294-3.442,8.979-2.482,10.968,1.847
	c8.988,19.564,29.389,67.57,29.389,100.275c0,28.702-16.016,53.664-39.599,66.436c-22,11.915-50.274,8.503-65.634-11.247
	C211.65,164.668,215.292,139.756,226.111,114.877z"/>
<path style="fill:#E6646E;" d="M285.889,114.877c-14.907-34.279-50.167-73.188-65.035-88.722c-3.294-3.442-8.979-2.482-10.968,1.847
	c-8.988,19.564-29.389,67.57-29.389,100.275c0,28.702,16.016,53.664,39.599,66.436c22,11.915,50.274,8.503,65.634-11.247
	C300.35,164.668,296.708,139.756,285.889,114.877z"/>
<path style="fill:#BEE86E;" d="M28.57,271.8C49.186,300.475,114.95,374.401,256,394.551c0,0-63.6-95.4-221.757-131.418
	C29.283,262.004,25.6,267.669,28.57,271.8z"/>
<path style="fill:#FF8087;" d="M287.459,201.601l-25.768-41.229c-2.629-4.206-8.754-4.206-11.382,0l-25.768,41.229L256,243.547
	L287.459,201.601z"/>
<path style="fill:#E6646E;" d="M226.111,272.092c14.907-34.279,50.167-73.188,65.035-88.722c3.294-3.442,8.979-2.482,10.968,1.847
	c8.988,19.564,29.389,67.57,29.389,100.275c0,28.702-16.016,53.664-39.599,66.436c-22,11.915-50.274,8.503-65.634-11.247
	C211.65,321.884,215.292,296.971,226.111,272.092z"/>
<path style="fill:#DC4655;" d="M285.889,272.092c-14.907-34.279-50.167-73.188-65.035-88.722c-3.294-3.442-8.979-2.482-10.968,1.847
	c-8.988,19.564-29.389,67.57-29.389,100.275c0,28.702,16.016,53.664,39.599,66.436c22,11.915,50.274,8.503,65.634-11.247
	C300.35,321.884,296.708,296.971,285.889,272.092z"/>
<g>
</g>
<g>
</g>
<g>
</g>
<g>
</g>
<g>
</g>
<g>
</g>
<g>
</g>
<g>
</g>
<g>
</g>
<g>
</g>
<g>
</g>
<g>
</g>
<g>
</g>
<g>
</g>
<g>
</g>
</svg>
