<?xml version="1.0" encoding="iso-8859-1"?>
<!-- Generator: Adobe Illustrator 19.0.0, SVG Export Plug-In . SVG Version: 6.00 Build 0)  -->
<svg version="1.1" id="Capa_1" xmlns="http://www.w3.org/2000/svg" xmlns:xlink="http://www.w3.org/1999/xlink" x="0px" y="0px"
	 viewBox="0 0 512 512" style="enable-background:new 0 0 512 512;" xml:space="preserve">
<path style="fill:#E6646E;" d="M41.292,214.788l4.646-9.292c2.279-4.559,6.536-7.81,11.534-8.81l74.663-14.933l8.258,33.034
	L41.292,214.788L41.292,214.788z"/>
<path style="fill:#FFDC64;" d="M377.617,67.685l14.9-10.038c2.421-1.631,1.712-5.383-1.147-5.971
	c-14.889-3.063-51.143-8.664-99.912-3.605l18.359-16.631c1.822-1.651,0.859-4.657-1.581-4.957
	c-14.591-1.793-54.388-3.851-104.492,16.771l2.881-23.538c0.262-2.144-1.849-3.809-3.858-3.017
	c-16.651,6.566-75.673,32.837-98.052,82.955c-0.942,2.109,1.003,4.41,3.254,3.894c12.66-2.906,45.309-9.588,73.716-8.506
	l95.341,70.571l199.109-37.054c2.667-0.496,3.681-3.787,1.691-5.631C465.322,111.337,428.236,80.298,377.617,67.685z"/>
<path style="fill:#FFC850;" d="M478.308,123.73c-55.064-33.507-132.439-55.528-219.544-55.529
	c-39.292,0-109.854,4.903-153.936,33.703c0.538,1.144,1.735,1.965,3.142,1.642c12.659-2.906,45.308-9.588,73.716-8.505
	l95.341,70.571l199.109-37.055C478.465,128.124,479.401,125.601,478.308,123.73z"/>
<path style="fill:#BEE86E;" d="M315.976,391.483c-107.081,44.977-245.8,41.488-242.766-21.334
	c2.417-50.067,89.945-45.621,182.333-38.539c251.399,19.269,260.283-63.65,255.716-116.822
	C500.817,93.223,293.299,71.417,137.741,96.803c-12.535,2.046-21.71,12.893-21.71,25.594l0,0c0,13.683-11.092,24.775-24.775,24.775
	H48.294c-4.39,0-8.6-1.74-11.71-4.838l-6.866-6.842c-3.109-3.097-7.324-4.837-11.721-4.837h-1.422
	C7.421,130.655,0,138.076,0,147.231v16.458c0,9.122,7.395,16.517,16.517,16.517h97.587c6.262,0,11.988,3.533,14.796,9.13
	l0.991,1.975c3.143,6.264-1.085,13.713-8.075,14.225l-94.43,6.913c-5.643,0.413-9.549,5.816-8.172,11.304l0.926,3.692
	c2.777,11.068,12.726,18.829,24.137,18.829h91.957c25.241,0,48.343-12.859,62.029-33.526c18.153-1.985,150.686-16.146,180.908-9.831
	c64.231,13.42,50.763,87.746-40.403,81.552c-85.887-5.835-182.304-12.944-239.313-5.162C23.828,289.63,0,328.857,0,370.149
	c0,50.583,64.434,134.562,243.802,86.713c87.713-23.399,156.173-71.792,204.435-54.368c37.851,13.666,27.339,73.786-42.784,84.496
	c-5.237,0.8-4.518,8.681,0.777,8.504c81.851-2.733,115.14-75.708,83.792-110.894C459.977,350.879,392.984,359.138,315.976,391.483z"
	/>
<path style="fill:#FFDC64;" d="M132.606,122.397c-0.116,0.457,95.533,34.84,160.826,2.581c0.184,1.199-49.551-14.194-72.261-27.872
	C176.849,70.412,138.845,97.88,132.606,122.397z"/>
<g>
	<path style="fill:#AFD755;" d="M202.95,205.187c-1.324,2.638-2.871,5.111-4.471,7.537c18.85-2.059,150.57-16.101,180.692-9.807
		c57.645,12.044,52.663,73.105-14.856,81.031c103.927-7.461,102.549-82.451,55.259-107.871
		c-31.168-16.755-89.31-15.325-142.548-10.465c-16.538,1.51-30.207,3.064-40.088,4.293c-11.002,1.368-20.519,8.155-25.45,18.085
		L202.95,205.187z"/>
	<path style="fill:#AFD755;" d="M405.374,487.003c-5.231,0.796-4.51,8.669,0.778,8.495c81.907-2.689,115.227-75.7,83.869-110.896
		c-30.044-33.722-97.037-25.464-174.045,6.882c-107.081,44.976-245.8,41.487-242.766-21.335
		c1.601-33.163,40.558-42.401,93.52-42.805l-0.195-0.035c-77.958-2.065-110.61,0.021-127.307,32.69
		c-15.829,30.969,1.176,150.544,212.517,94.456l0.033,0.118c83.87-24.086,149.68-68.967,196.459-52.078
		C486.101,416.165,475.567,476.325,405.374,487.003z"/>
</g>
<path style="fill:#FFC850;" d="M293.432,124.978c-38.453,8.775-70.971-2.065-100.908-15.226s-59.918,12.646-59.918,12.646
	C132.49,122.853,228.139,157.237,293.432,124.978z"/>
<circle style="fill:#4B3F4E;" cx="138.27" cy="132.429" r="13.648"/>
<path style="fill:#AFD755;" d="M16.517,180.206h49.551c9.122,0,16.517-7.395,16.517-16.517l0,0c0-9.122-7.395-16.517-16.517-16.517
	H48.294c-4.39,0-8.6-1.74-11.71-4.838l-6.866-6.841c-3.109-3.097-7.324-4.837-11.721-4.837h-1.422
	C7.421,130.655,0,138.076,0,147.231v16.458C0,172.811,7.395,180.206,16.517,180.206z"/>
<path style="fill:#82AA00;" d="M16.517,156.979c4.561,0,8.258-3.698,8.258-8.258c0-4.561-3.697-8.258-8.258-8.258H1.474
	C0.544,142.533,0,144.814,0,147.231v9.748H16.517z"/>
<g>
</g>
<g>
</g>
<g>
</g>
<g>
</g>
<g>
</g>
<g>
</g>
<g>
</g>
<g>
</g>
<g>
</g>
<g>
</g>
<g>
</g>
<g>
</g>
<g>
</g>
<g>
</g>
<g>
</g>
</svg>
