<?xml version="1.0" encoding="iso-8859-1"?>
<!-- Generator: Adobe Illustrator 19.0.0, SVG Export Plug-In . SVG Version: 6.00 Build 0)  -->
<svg version="1.1" id="Capa_1" xmlns="http://www.w3.org/2000/svg" xmlns:xlink="http://www.w3.org/1999/xlink" x="0px" y="0px"
	 viewBox="0 0 512 512" style="enable-background:new 0 0 512 512;" xml:space="preserve">
<circle style="fill:#965A50;" cx="66.06" cy="214.71" r="66.06"/>
<circle style="fill:#EBC9A0;" cx="66.06" cy="214.71" r="41.29"/>
<circle style="fill:#965A50;" cx="445.94" cy="214.71" r="66.06"/>
<circle style="fill:#EBC9A0;" cx="445.94" cy="214.71" r="41.29"/>
<path style="fill:#AF6E5A;" d="M442.589,253.792c-8.366-14.435-13.169-30.655-13.169-47.34v-0.001
	c0-72.373-44.364-134.33-107.355-160.318V16.516l-41.29,16.516L272.516,0c-21.781,7.261-40.361,22.498-54.356,37.298
	c-77.556,17.283-135.579,86.39-135.579,169.154c0,16.685-4.803,32.904-13.169,47.34c-12.72,21.948-19.863,46.482-19.863,72.402
	c0,93.496,92.431,169.29,206.452,169.29s206.452-75.794,206.452-169.29C462.452,300.274,455.308,275.739,442.589,253.792z"/>
<path style="fill:#965A50;" d="M140.387,355.785c0-30.24,7.143-58.864,19.863-84.469c8.367-16.841,13.169-35.764,13.169-55.23
	c0-84.035,43.969-155.956,106.493-186.502L272.516,0c-21.781,7.261-40.361,22.498-54.357,37.298
	c-77.555,17.283-135.578,86.39-135.578,169.154c0,16.685-4.802,32.904-13.169,47.34c-12.72,21.948-19.863,46.482-19.863,72.402
	c0,75.465,60.232,139.37,143.415,161.223C160.282,452.477,140.387,406.361,140.387,355.785z"/>
<path style="fill:#FAEBC8;" d="M256,462.452c68.412,0,123.871-44.367,123.871-99.097c0-11.354-2.414-22.245-6.835-32.386
	c-6.41-14.707-4.228-31.587,6.07-43.889c13.134-15.691,19.908-36.877,16.333-59.635c-4.91-31.259-30.182-56.486-61.448-61.353
	c-23.892-3.719-46.037,3.968-61.903,18.439c-4.51,4.113-10.3,6.17-16.087,6.17c-5.79,0-11.581-2.056-16.091-6.17
	c-15.866-14.471-38.011-22.158-61.903-18.439c-31.266,4.866-56.537,30.094-61.448,61.353c-3.575,22.757,3.199,43.943,16.333,59.635
	c10.298,12.303,12.48,29.182,6.07,43.889c-4.42,10.142-6.835,21.033-6.835,32.386C132.129,418.084,187.588,462.452,256,462.452z"/>
<path style="fill:#F5DCB4;" d="M132.129,363.355c0,18.522,6.468,35.795,17.524,50.625c-5.938-18.411-9.266-37.916-9.266-58.195
	c0-30.24,7.143-58.864,19.863-84.469c8.367-16.841,13.169-35.764,13.169-55.23c0-17.307,1.96-34.056,5.468-50.08
	c-0.295,0.042-0.583,0.04-0.879,0.086c-31.266,4.866-56.536,30.094-61.448,61.352c-3.575,22.758,3.2,43.944,16.333,59.635
	c10.298,12.302,12.481,29.181,6.071,43.889C134.543,341.11,132.129,352.001,132.129,363.355z"/>
<g>
	<path style="fill:#5D5360;" d="M239.476,322.065c-1.242,0-2.5-0.278-3.685-0.871l-16.516-8.258c-4.081-2.04-5.734-7-3.694-11.081
		c2.048-4.081,7-5.734,11.081-3.694l16.516,8.258c4.081,2.04,5.734,7,3.694,11.081C245.419,320.395,242.508,322.065,239.476,322.065
		z"/>
	<path style="fill:#5D5360;" d="M272.524,322.065c-3.032,0-5.944-1.669-7.395-4.565c-2.04-4.081-0.387-9.04,3.694-11.081
		l16.516-8.258c4.073-2.04,9.032-0.387,11.081,3.694c2.04,4.081,0.387,9.04-3.694,11.081l-16.516,8.258
		C275.024,321.787,273.766,322.065,272.524,322.065z"/>
</g>
<path style="fill:#4B3F4E;" d="M181.677,264.258L181.677,264.258c-13.682,0-24.774-11.092-24.774-24.774v-8.258
	c0-13.682,11.092-24.774,24.774-24.774l0,0c13.682,0,24.774,11.092,24.774,24.774v8.258
	C206.452,253.167,195.36,264.258,181.677,264.258z"/>
<path style="fill:#5D5360;" d="M181.677,206.452v28.903c0,6.841,5.546,12.387,12.387,12.387s12.387-5.546,12.387-12.387v-4.129
	C206.452,217.544,195.36,206.452,181.677,206.452z"/>
<circle style="fill:#FFFFFF;" cx="181.68" cy="222.97" r="8.258"/>
<path style="fill:#4B3F4E;" d="M330.323,264.258L330.323,264.258c-13.682,0-24.774-11.092-24.774-24.774v-8.258
	c0-13.682,11.092-24.774,24.774-24.774l0,0c13.682,0,24.774,11.092,24.774,24.774v8.258
	C355.097,253.167,344.005,264.258,330.323,264.258z"/>
<path style="fill:#5D5360;" d="M330.323,206.452v28.903c0,6.841,5.546,12.387,12.387,12.387s12.387-5.546,12.387-12.387v-4.129
	C355.097,217.544,344.005,206.452,330.323,206.452z"/>
<circle style="fill:#FFFFFF;" cx="330.32" cy="222.97" r="8.258"/>
<g>
	<path style="fill:#965A50;" d="M121.333,445.936c-5.483,13.387-11.242,28.017-17.096,43.721
		c-4.021,10.787,3.962,22.339,15.474,22.34L179.727,512c6.256,0,11.976-3.534,14.773-9.13l3.693-7.386L121.333,445.936z"/>
	<path style="fill:#965A50;" d="M390.667,445.936c5.483,13.387,11.242,28.017,17.096,43.721c4.021,10.787-3.962,22.339-15.474,22.34
		L332.273,512c-6.256,0-11.975-3.534-14.773-9.13l-3.693-7.386L390.667,445.936z"/>
</g>
<path style="fill:#F5DCB4;" d="M383.484,330.797c-11.768,2.265-19.865,13.257-19.865,25.24v33.019l-26.536-26.536
	c-23.229-23.229-60.346-27.609-86.874-8.234c-33.435,24.419-36.092,72.126-7.971,100.247l37.025,37.025
	c24.599,24.599,64.853,24.599,89.452,0l10.586-10.586c21.682-21.682,33.862-51.088,33.862-81.751v-44.127
	C413.169,339.81,399.315,327.75,383.484,330.797z"/>
<path style="fill:#EBC9A0;" d="M274.617,343.468c-8.701,1.779-17.118,5.304-24.668,10.819
	c-33.434,24.419-36.092,72.126-7.971,100.246l25.571,25.571l13.892-13.892c17.034-17.034,25.73-40.667,23.858-64.838
	C303.536,378.61,292.364,357.776,274.617,343.468z"/>
<path style="fill:#F5DCB4;" d="M128.516,330.797c11.768,2.265,19.865,13.257,19.865,25.24v33.019l26.536-26.536
	c23.229-23.229,60.346-27.609,86.874-8.234c33.435,24.419,36.092,72.126,7.971,100.247l-37.025,37.025
	c-24.599,24.599-64.853,24.599-89.452,0L132.7,480.972c-21.682-21.682-33.862-51.088-33.862-81.751v-44.127
	C98.831,339.81,112.685,327.75,128.516,330.797z"/>
<path style="fill:#EBC9A0;" d="M258.291,351.98c-26.216-16.599-61.143-11.691-83.375,10.54l-26.535,26.536v-33.019
	c0-11.984-8.098-22.975-19.865-25.24c-15.832-3.047-29.684,9.013-29.678,24.297v44.127c0,30.662,12.18,60.069,33.863,81.751
	l10.585,10.586C134.197,457.947,181.317,353.303,258.291,351.98z"/>
<g>
</g>
<g>
</g>
<g>
</g>
<g>
</g>
<g>
</g>
<g>
</g>
<g>
</g>
<g>
</g>
<g>
</g>
<g>
</g>
<g>
</g>
<g>
</g>
<g>
</g>
<g>
</g>
<g>
</g>
</svg>
