<?xml version="1.0" encoding="iso-8859-1"?>
<!-- Generator: Adobe Illustrator 19.0.0, SVG Export Plug-In . SVG Version: 6.00 Build 0)  -->
<svg version="1.1" id="Capa_1" xmlns="http://www.w3.org/2000/svg" xmlns:xlink="http://www.w3.org/1999/xlink" x="0px" y="0px"
	 viewBox="0 0 511.999 511.999" style="enable-background:new 0 0 511.999 511.999;" xml:space="preserve">
<path style="fill:#FFC850;" d="M74.188,256.912c43.505-41.015,122.841-26.591,142.324-5.925s29.21,100.713-14.295,141.728
	C146.05,445.666,40.562,454.196,8.625,455.569c-5.06,0.218-9.096-4.064-8.581-9.102C3.295,414.667,18.021,309.863,74.188,256.912z"
	/>
<path style="fill:#FFDC64;" d="M216.512,250.987c-19.483-20.666-98.818-35.09-142.324,5.925
	C18.021,309.863,3.295,414.667,0.044,446.467c-0.272,2.665,0.776,5.061,2.529,6.749l214.685-201.267
	C217.004,251.656,216.769,251.261,216.512,250.987z"/>
<g>
	<path style="fill:#EBAF4B;" d="M249.728,219.675c-3.153-3.356-8.427-3.51-11.758-0.349l-106.138,100.06l-42.731-1.264
		c-0.081,0-0.163,0-0.252,0c-4.477,0-8.175,3.567-8.313,8.077c-0.13,4.591,3.478,8.427,8.077,8.565l26.087,0.771l-19.326,18.219
		c-3.348,3.153-3.502,8.419-0.349,11.758c1.633,1.739,3.844,2.617,6.054,2.617c2.048,0,4.104-0.748,5.704-2.267l34.009-32.062
		c0.015-0.014,0.03-0.027,0.045-0.042l26.024-24.533l-1.351,45.887c-0.13,4.591,3.486,8.427,8.077,8.565c0.081,0,0.163,0,0.252,0
		c4.477,0,8.175-3.567,8.313-8.077l1.841-62.525l65.386-61.641C252.726,228.28,252.881,223.015,249.728,219.675z"/>
	<path style="fill:#EBAF4B;" d="M68.217,379.359l-6.793,6.403c-3.348,3.153-3.502,8.419-0.349,11.758
		c1.633,1.739,3.844,2.617,6.054,2.617c2.048,0,4.104-0.748,5.704-2.267l6.793-6.403c3.348-3.153,3.502-8.419,0.349-11.758
		C76.83,376.352,71.54,376.198,68.217,379.359z"/>
</g>
<path style="fill:#EB874B;" d="M352.062,307.513c-38.18-25.671-40.852-87.661-28.658-105.797s70.61-39.053,108.79-13.383
	c47.861,32.18,72.204,106.381,79.493,132.387c1.377,4.913-1.96,9.876-7.029,10.455C477.824,334.237,399.923,339.693,352.062,307.513
	z"/>
<path style="fill:#FFAA50;" d="M352.063,307.513c47.86,32.18,125.761,26.724,152.595,23.661c2.534-0.289,4.636-1.674,5.932-3.602
	L323.404,201.715C311.21,219.851,313.883,281.842,352.063,307.513z"/>
<g>
	<path style="fill:#D77841;" d="M399.612,242.931c-0.037-0.025-0.07-0.048-0.108-0.073l-19.035-12.798l30.121-5.899
		c4.51-0.886,7.452-5.258,6.566-9.767c-0.886-4.502-5.201-7.46-9.767-6.566l-46.455,9.099l-56.729-38.141
		c-3.819-2.568-8.979-1.544-11.547,2.267c-2.56,3.811-1.552,8.979,2.267,11.547l92.486,62.182l6.172,31.494
		c0.78,3.966,4.258,6.72,8.159,6.72c0.528,0,1.065-0.049,1.609-0.154c4.51-0.886,7.452-5.258,6.566-9.767l-2.97-15.159l13.119,8.821
		c1.422,0.959,3.039,1.414,4.632,1.414c2.682,0,5.306-1.292,6.915-3.681c2.56-3.811,1.552-8.979-2.267-11.547L399.612,242.931z"/>
	<path style="fill:#D77841;" d="M459.143,282.952l-5.964-4.006c-3.811-2.568-8.979-1.536-11.547,2.267
		c-2.56,3.819-1.544,8.987,2.267,11.547l5.964,4.006c1.422,0.959,3.039,1.414,4.632,1.414c2.682,0,5.306-1.292,6.915-3.681
		C463.97,290.68,462.954,285.512,459.143,282.952z"/>
</g>
<path style="fill:#FFDC64;" d="M206.587,60.112c32.989-13.196,73.708,12.066,79.976,27.736s-5.796,62.045-38.785,75.241
	c-39.926,15.971-95.31,0.914-116.875-6.14c-4.899-1.602-7.157-7.248-4.715-11.787C136.94,125.182,166.661,76.083,206.587,60.112z"/>
<path style="fill:#FFF082;" d="M206.588,60.112c-39.926,15.971-69.647,65.07-80.399,85.05c-1.196,2.222-1.236,4.702-0.42,6.85
	L286.498,87.72C280.066,72.041,239.491,46.951,206.588,60.112z"/>
<path style="fill:#FFC850;" d="M314.833,76.389c-1.706-4.282-6.582-6.355-10.816-4.64l-79.539,31.815l-21.597-9.436
	c-4.209-1.861-9.117,0.089-10.954,4.291c-1.845,4.209,0.081,9.117,4.291,10.954l6.566,2.868l-21.778,8.711
	c-4.266,1.706-6.346,6.55-4.64,10.816c1.3,3.259,4.429,5.233,7.728,5.233c1.032,0,2.08-0.187,3.088-0.593l53.006-21.202
	l-7.614,17.764c-1.812,4.217,0.146,9.109,4.372,10.921c1.065,0.463,2.178,0.674,3.275,0.674c3.226,0,6.298-1.885,7.647-5.046
	l14.168-33.052l48.159-19.263C314.459,85.498,316.54,80.655,314.833,76.389z"/>
<g>
</g>
<g>
</g>
<g>
</g>
<g>
</g>
<g>
</g>
<g>
</g>
<g>
</g>
<g>
</g>
<g>
</g>
<g>
</g>
<g>
</g>
<g>
</g>
<g>
</g>
<g>
</g>
<g>
</g>
</svg>
