<?xml version="1.0" encoding="iso-8859-1"?>
<!-- Generator: Adobe Illustrator 19.0.0, SVG Export Plug-In . SVG Version: 6.00 Build 0)  -->
<svg version="1.1" id="Capa_1" xmlns="http://www.w3.org/2000/svg" xmlns:xlink="http://www.w3.org/1999/xlink" x="0px" y="0px"
	 viewBox="0 0 512.002 512.002" style="enable-background:new 0 0 512.002 512.002;" xml:space="preserve">
<g>
	<path style="fill:#78AA4B;" d="M419.615,296.774c-0.839,0-1.677-0.129-2.492-0.387c-5.008-1.581-121.532-39.202-186.129-123.444
		c-58.992,21.323-100.065,70.952-100.71,71.75c-2.879,3.54-8.073,4.081-11.621,1.202c-3.54-2.879-4.073-8.081-1.202-11.621
		c1.121-1.371,113.153-136.637,240.016-68.121c67.944,36.694,70.323,118.726,70.395,122.202c0.048,2.661-1.185,5.185-3.315,6.774
		C423.115,296.21,421.373,296.774,419.615,296.774z"/>
	<path style="fill:#78AA4B;" d="M132.131,181.677c-2.258,0-4.508-0.927-6.137-2.742c-3.048-3.387-2.774-8.605,0.613-11.653
		c2.484-2.242,30.895-27.363,77.798-51.476c-2.726-14.524,0.161-38.976,26.597-55.379C320.421,4.911,436.97,72.565,441.881,75.468
		c3.403,2.016,4.903,6.161,3.573,9.887c-1.331,3.742-5.161,5.992-9.024,5.387c-168.702-25.831-297.5,87.661-298.774,88.823
		C136.075,180.976,134.099,181.677,132.131,181.677z"/>
</g>
<path style="fill:#AFD755;" d="M129.78,0H84.934c-5.226,0-9.185,4.777-8.085,9.886c3.537,16.421,5.733,39.211,5.733,64.437
	c0,30.786-3.27,66.199-8.258,82.581v16.516c4.988,16.381,8.258,51.794,8.258,82.581c0,30.785-3.27,66.199-8.258,82.581v16.516
	c4.988,16.381,8.258,51.794,8.258,82.581c0,25.227-2.196,48.016-5.733,64.437c-1.101,5.109,2.859,9.886,8.085,9.886h44.845
	c5.226,0,9.185-4.777,8.085-9.886c-3.537-16.421-5.733-39.21-5.733-64.437c0-30.786,3.27-66.2,8.258-82.581v-16.516
	c-4.988-16.382-8.258-51.795-8.258-82.581s3.27-66.2,8.258-82.581v-16.516c-4.988-16.382-8.258-51.795-8.258-82.581
	c0-25.226,2.196-48.016,5.733-64.437C138.965,4.777,135.005,0,129.78,0z"/>
<path style="fill:#96BE4B;" d="M101.623,502.114c3.537-16.421,5.733-39.211,5.733-64.437c0-30.786-3.27-57.942-8.258-74.323v-33.032
	c4.988-16.382,8.258-43.537,8.258-74.323s-3.27-57.942-8.258-74.323v-33.032c4.988-16.382,8.258-43.537,8.258-74.323
	c0-25.227-2.196-48.016-5.733-64.437C100.523,4.777,104.482,0,109.708,0H84.934c-5.226,0-9.185,4.777-8.085,9.886
	c3.538,16.421,5.733,39.21,5.733,64.437c0,30.786-3.27,66.199-8.258,82.581v16.516c4.988,16.381,8.258,51.794,8.258,82.581
	c0,30.785-3.27,66.199-8.258,82.581v16.516c4.988,16.381,8.258,51.794,8.258,82.581c0,25.226-2.196,48.016-5.733,64.437
	c-1.1,5.108,2.859,9.886,8.085,9.886h24.774C104.482,512,100.523,507.223,101.623,502.114z"/>
<path style="fill:#4B6450;" d="M228.704,262.194c-3.25,0-6.331-1.927-7.637-5.121l-33.089-80.605
	c-1.734-4.218,0.282-9.048,4.5-10.774c4.194-1.75,9.048,0.274,10.774,4.5l33.089,80.605c1.734,4.218-0.282,9.048-4.5,10.774
	C230.816,262,229.752,262.194,228.704,262.194z"/>
<path style="fill:#E6646E;" d="M241.409,237.515l-29.859,17.479c-3.551,2.079-5.056,6.425-3.484,10.228
	c9.568,23.142,44.94,101.451,103.535,149.753c3.264,2.691,8.093,2.365,11.085-0.626l48.987-48.987
	c3.735-3.735,3.094-9.965-1.375-12.783c-19.478-12.28-68.191-46.89-118.126-112.845C249.645,236.396,245.022,235.4,241.409,237.515z
	"/>
<path style="fill:#96BE4B;" d="M132.131,181.677H82.583c-9.122,0-16.516-7.395-16.516-16.516l0,0
	c0-9.122,7.395-16.516,16.516-16.516h49.548c9.122,0,16.516,7.395,16.516,16.516l0,0
	C148.647,174.283,141.253,181.677,132.131,181.677z"/>
<path style="fill:#78AA4B;" d="M90.841,165.161c0-9.122,7.395-16.516,16.516-16.516H82.583c-9.121,0-16.516,7.394-16.516,16.516
	c0,9.121,7.395,16.516,16.516,16.516h24.774C98.235,181.677,90.841,174.283,90.841,165.161z"/>
<path style="fill:#96BE4B;" d="M132.131,363.355H82.583c-9.122,0-16.516-7.395-16.516-16.516l0,0
	c0-9.122,7.395-16.516,16.516-16.516h49.548c9.122,0,16.516,7.395,16.516,16.516l0,0
	C148.647,355.96,141.253,363.355,132.131,363.355z"/>
<path style="fill:#78AA4B;" d="M90.841,346.839c0-9.122,7.395-16.516,16.516-16.516H82.583c-9.121,0-16.516,7.394-16.516,16.516
	c0,9.121,7.395,16.516,16.516,16.516h24.774C98.235,363.355,90.841,355.96,90.841,346.839z"/>
<g>
	<path style="fill:#96BE4B;" d="M441.881,75.468c-4.911-2.903-121.46-70.556-210.879-15.04
		c-26.435,16.403-29.323,40.855-26.597,55.379c65.804-35.744,166.806-52.847,241.058-30.511
		C446.757,81.585,445.267,77.473,441.881,75.468z"/>
	<path style="fill:#96BE4B;" d="M417.123,296.387c0.815,0.258,1.653,0.387,2.492,0.387c1.758,0,3.5-0.565,4.944-1.645
		c0.987-0.737,1.758-1.69,2.322-2.749c-32.474-152.305-158.005-131.525-195.886-119.436
		C295.591,257.185,412.115,294.806,417.123,296.387z"/>
</g>
<path style="fill:#DC4655;" d="M311.601,414.975c3.264,2.691,8.093,2.365,11.085-0.626l20.239-20.24
	c0,0-88.987-62.238-94.149-106.109c-2.785-23.668,11.769-37.509,11.769-37.509c-2.785-3.499-5.576-7.063-8.373-10.758
	c-2.527-3.338-7.15-4.334-10.763-2.219l-29.859,17.479c-3.551,2.079-5.056,6.425-3.483,10.228
	C217.634,288.364,253.006,366.672,311.601,414.975z"/>
<g>
</g>
<g>
</g>
<g>
</g>
<g>
</g>
<g>
</g>
<g>
</g>
<g>
</g>
<g>
</g>
<g>
</g>
<g>
</g>
<g>
</g>
<g>
</g>
<g>
</g>
<g>
</g>
<g>
</g>
</svg>
