<?xml version="1.0" encoding="iso-8859-1"?>
<!-- Generator: Adobe Illustrator 19.0.0, SVG Export Plug-In . SVG Version: 6.00 Build 0)  -->
<svg version="1.1" id="Capa_1" xmlns="http://www.w3.org/2000/svg" xmlns:xlink="http://www.w3.org/1999/xlink" x="0px" y="0px"
	 viewBox="0 0 512 512" style="enable-background:new 0 0 512 512;" xml:space="preserve">
<path style="fill:#AFD755;" d="M261.788,220.693c0,0-45.258,170.097-131.595,166.382c-16.335-0.703-31.85-8.44-42.814-20.568
	c-12.893-14.262-18.121-31.24-17.207-47.513c0.339-6.042-2.294-11.713-7.128-15.352c-13.022-9.803-22.618-24.753-25.193-43.805
	c-2.19-16.202,1.911-33.048,11.915-45.98C102.641,145.504,261.788,220.693,261.788,220.693z"/>
<path style="fill:#BEE86E;" d="M63.044,303.641c-13.022-9.803-22.618-24.753-25.193-43.805c-2.191-16.202,1.911-33.047,11.915-45.98
	c52.875-68.352,212.022,6.837,212.022,6.837L66.753,307.54C65.71,306.098,64.519,304.752,63.044,303.641z"/>
<path style="fill:#AFD755;" d="M261.831,220.878c0,0,4.214,175.964,89.024,192.548c16.046,3.138,32.94-0.755,46.438-9.983
	c15.871-10.85,24.925-26.134,27.844-42.17c1.084-5.954,4.97-10.851,10.522-13.259c14.954-6.485,27.781-18.775,34.741-36.697
	c5.92-15.241,5.872-32.578-0.829-47.491C434.151,185.002,261.831,220.878,261.831,220.878z"/>
<g>
	<path style="fill:#BEE86E;" d="M435.658,348.015c14.954-6.485,27.781-18.775,34.741-36.697c5.92-15.24,5.872-32.577-0.829-47.491
		c-35.42-78.824-207.739-42.948-207.739-42.948l169.309,130.06C432.491,349.78,433.964,348.749,435.658,348.015z"/>
	<path style="fill:#BEE86E;" d="M260.972,226.143c0,0,147.398-96.203,116.858-177.043c-5.778-15.295-17.981-27.611-32.931-34.23
		c-17.58-7.783-35.34-7.437-50.512-1.478c-5.633,2.213-11.842,1.486-16.812-1.967C264.191,2.123,246.99-2.314,228.088,1.201
		c-16.074,2.989-30.791,12.155-39.944,25.702C139.766,98.509,260.972,226.143,260.972,226.143z"/>
</g>
<path style="fill:#AFD755;" d="M277.577,11.424C264.191,2.123,246.99-2.314,228.088,1.201
	c-16.075,2.989-30.791,12.155-39.944,25.702c-48.378,71.606,72.827,199.24,72.827,199.24l0,0
	c8.332-86.67,19.431-166.035,26.287-211.62C283.851,14.419,280.497,13.454,277.577,11.424z"/>
<g>
	<path style="fill:#96BE4B;" d="M279.897,72.608c-0.309,0-0.635-0.016-0.952-0.056c-4.459-0.524-7.649-4.555-7.125-9.014
		l1.992-17.02c0.524-4.444,4.523-7.649,9.014-7.125c4.459,0.524,7.649,4.555,7.125,9.014l-1.992,17.02
		C287.475,69.561,283.968,72.608,279.897,72.608z"/>
	<path style="fill:#96BE4B;" d="M266.956,183.22c-0.309,0-0.635-0.016-0.952-0.056c-4.459-0.524-7.649-4.555-7.125-9.014
		l8.958-76.579c0.524-4.444,4.547-7.657,9.014-7.125c4.459,0.524,7.649,4.555,7.125,9.014l-8.958,76.579
		C274.534,180.173,271.026,183.22,266.956,183.22z"/>
	<path style="fill:#96BE4B;" d="M405.53,340.83c-1.769,0-3.547-0.571-5.047-1.762l-13.418-10.649
		c-3.515-2.785-4.102-7.903-1.309-11.418c2.785-3.507,7.895-4.11,11.418-1.309l13.418,10.649c3.515,2.785,4.102,7.903,1.309,11.418
		C410.299,339.774,407.926,340.83,405.53,340.83z"/>
	<path style="fill:#96BE4B;" d="M365.268,308.876c-1.769,0-3.547-0.571-5.039-1.762l-60.392-47.919
		c-3.523-2.785-4.11-7.895-1.317-11.41c2.793-3.523,7.895-4.118,11.41-1.317l60.392,47.919c3.523,2.785,4.11,7.895,1.317,11.41
		C370.037,307.821,367.665,308.876,365.268,308.876z"/>
	<path style="fill:#96BE4B;" d="M95.714,304.575c-3.055,0-5.983-1.73-7.364-4.682c-1.904-4.063-0.159-8.895,3.912-10.799
		l15.513-7.268c4.063-1.904,8.895-0.151,10.799,3.912c1.904,4.063,0.159,8.895-3.912,10.799l-15.513,7.268
		C98.039,304.329,96.864,304.575,95.714,304.575z"/>
	<path style="fill:#96BE4B;" d="M142.268,282.778c-3.055,0-5.983-1.73-7.364-4.682c-1.904-4.063-0.151-8.903,3.912-10.799
		l69.827-32.684c4.055-1.912,8.903-0.151,10.799,3.912c1.904,4.063,0.151,8.903-3.912,10.799l-69.827,32.684
		C144.593,282.532,143.418,282.778,142.268,282.778z"/>
	<path style="fill:#96BE4B;" d="M277.985,512c-2.872,0-5.65-1.523-7.125-4.213c-62.82-114.301-19.599-276.918-17.726-283.782
		c1.182-4.332,5.665-6.848,9.974-5.705c4.324,1.182,6.88,5.642,5.705,9.974c-0.436,1.619-43.332,163.196,16.282,271.689
		c2.166,3.928,0.73,8.871-3.206,11.029C280.651,511.675,279.31,512,277.985,512z"/>
</g>
<g>
</g>
<g>
</g>
<g>
</g>
<g>
</g>
<g>
</g>
<g>
</g>
<g>
</g>
<g>
</g>
<g>
</g>
<g>
</g>
<g>
</g>
<g>
</g>
<g>
</g>
<g>
</g>
<g>
</g>
</svg>
